<?xml version="1.0" encoding="UTF-8" standalone="no"?>
<svg width="452px" height="50px" viewBox="0 0 452 50" version="1.1" xmlns="http://www.w3.org/2000/svg" xmlns:xlink="http://www.w3.org/1999/xlink">
    <!-- Generator: Sketch 39.1 (31720) - http://www.bohemiancoding.com/sketch -->
    <title>Delights &amp; Restaurants</title>
    <desc>Created with Sketch.</desc>
    <defs></defs>
    <g id="Landing-Page" stroke="none" stroke-width="1" fill="none" fill-rule="evenodd">
        <g id="EDIT-Website-Opening-•-Below-Fold-(1440x780)" transform="translate(-499.000000, -347.000000)">
            <g id="Delights-&amp;-Restaurants" transform="translate(485.000000, 346.000000)">
                <g id="Restaurants" transform="translate(301.000000, 0.000000)">
                    <g id="Spots">
                        <rect id="Rectangle-8" fill="#EFB83D" opacity="0" x="0" y="0" width="50.4" height="50.5555556"></rect>
                        <path d="M47.5779556,14.1544856 C48.2613333,13.2243347 48.6666667,12.0787654 48.6666667,10.8390398 C48.6666667,10.7691358 48.6609778,10.6942387 48.6446222,10.6243347 L48.6389333,10.6022222 L47.5779556,5.27454047 C47.4776889,4.77308642 47.0389333,4.41358025 46.5333333,4.41358025 L3.86666667,4.41358025 C3.39733333,4.41358025 2.98062222,4.72315501 2.84195556,5.17967078 L1.24693333,10.5187654 L1.24195556,10.529465 C1.21137778,10.6300412 1.2,10.7327572 1.2,10.8333333 C1.2,12.3633745 1.81368889,13.7479012 2.8,14.759369 L2.8,45.2945679 C2.8,45.8830453 3.28071111,46.3645267 3.86666667,46.3645267 C4.45262222,46.3645267 4.93333333,45.8830453 4.93333333,45.2945679 L4.93333333,16.1303429 C5.5136,16.3393416 6.14435556,16.4506173 6.8,16.4506173 C8.66666667,16.4506173 10.3192889,15.531166 11.3333333,14.1238134 C12.3473778,15.531166 14,16.4506173 15.8666667,16.4506173 C17.7333333,16.4506173 19.3859556,15.531166 20.4,14.1238134 C21.4140444,15.531166 23.0666667,16.4506173 24.9333333,16.4506173 C26.8,16.4506173 28.4526222,15.531166 29.4666667,14.1238134 C30.4807111,15.531166 32.1333333,16.4506173 34,16.4506173 C35.8666667,16.4506173 37.5192889,15.531166 38.5333333,14.1238134 C39.5473778,15.531166 41.2,16.4506173 43.0666667,16.4506173 C43.9249778,16.4506173 44.7413333,16.2580247 45.4666667,15.904225 L45.4666667,45.2945679 C45.4666667,45.8830453 45.9473778,46.3645267 46.5333333,46.3645267 C47.1192889,46.3645267 47.6,45.8830453 47.6,45.2945679 L47.6,14.3720439 C47.6,14.2964335 47.5943111,14.2272428 47.5779556,14.1573388 L47.5779556,14.1544856 L47.5779556,14.1544856 Z M43.0666667,14.3106996 C41.1580444,14.3106996 39.6,12.7478464 39.6,10.8333333 C39.6,10.2455693 39.1192889,9.76337449 38.5333333,9.76337449 C37.9473778,9.76337449 37.4666667,10.2455693 37.4666667,10.8333333 C37.4666667,12.7478464 35.9086222,14.3106996 34,14.3106996 C32.0913778,14.3106996 30.5333333,12.7478464 30.5333333,10.8333333 C30.5333333,10.2455693 30.0526222,9.76337449 29.4666667,9.76337449 C28.8807111,9.76337449 28.4,10.2455693 28.4,10.8333333 C28.4,12.7478464 26.8419556,14.3106996 24.9333333,14.3106996 C23.0247111,14.3106996 21.4666667,12.7478464 21.4666667,10.8333333 C21.4666667,10.2455693 20.9859556,9.76337449 20.4,9.76337449 C19.8140444,9.76337449 19.3333333,10.2455693 19.3333333,10.8333333 C19.3333333,12.7478464 17.7752889,14.3106996 15.8666667,14.3106996 C13.9580444,14.3106996 12.4,12.7478464 12.4,10.8333333 C12.4,10.2455693 11.9192889,9.76337449 11.3333333,9.76337449 C10.7473778,9.76337449 10.2666667,10.2455693 10.2666667,10.8333333 C10.2666667,12.7478464 8.70862222,14.3106996 6.8,14.3106996 C4.93902222,14.3106996 3.408,12.8227435 3.33902222,10.972428 L4.66097778,6.55349794 L45.6586667,6.55349794 L46.5276444,10.9196433 C46.4864,12.7977778 44.9496889,14.3106996 43.0666667,14.3106996 L43.0666667,14.3106996 Z M45.4666667,3.3436214 L4.93333333,3.3436214 C4.34453333,3.3436214 3.86666667,2.86427984 3.86666667,2.27366255 C3.86666667,1.68304527 4.34453333,1.2037037 4.93333333,1.2037037 L45.4666667,1.2037037 C46.0554667,1.2037037 46.5333333,1.68304527 46.5333333,2.27366255 C46.5333333,2.86427984 46.0554667,3.3436214 45.4666667,3.3436214 L45.4666667,3.3436214 Z M47.6,49.3518519 L2.26666667,49.3518519 C1.67786667,49.3518519 1.2,48.8725103 1.2,48.281893 C1.2,47.6912757 1.67786667,47.2119342 2.26666667,47.2119342 L47.6,47.2119342 C48.1888,47.2119342 48.6666667,47.6912757 48.6666667,48.281893 C48.6666667,48.8725103 48.1888,49.3518519 47.6,49.3518519 L47.6,49.3518519 Z M18.8,45.1832922 L8.13333333,45.1832922 C7.54453333,45.1832922 7.06666667,44.7039506 7.06666667,44.1133333 L7.06666667,21.6441975 C7.06666667,21.0535802 7.54453333,20.5742387 8.13333333,20.5742387 L18.8,20.5742387 C19.3888,20.5742387 19.8666667,21.0535802 19.8666667,21.6441975 L19.8666667,44.1133333 C19.8666667,44.7039506 19.3888,45.1832922 18.8,45.1832922 L18.8,45.1832922 Z M9.2,43.0433745 L17.7333333,43.0433745 L17.7333333,22.7141564 L9.2,22.7141564 L9.2,43.0433745 Z M42.2666667,45.1832922 L23.0666667,45.1832922 C22.4778667,45.1832922 22,44.7039506 22,44.1133333 L22,21.6441975 C22,21.0535802 22.4778667,20.5742387 23.0666667,20.5742387 L42.2666667,20.5742387 C42.8554667,20.5742387 43.3333333,21.0535802 43.3333333,21.6441975 L43.3333333,44.1133333 C43.3333333,44.7039506 42.8554667,45.1832922 42.2666667,45.1832922 L42.2666667,45.1832922 Z M24.1333333,43.0433745 L41.2,43.0433745 L41.2,22.7141564 L24.1333333,22.7141564 L24.1333333,43.0433745 Z M16.2663111,33.9487243 C16.2663111,34.5393416 15.7891556,35.0186831 15.1996444,35.0186831 C14.6108444,35.0186831 14.1329778,34.5393416 14.1329778,33.9487243 C14.1329778,33.358107 14.6108444,32.8787654 15.1996444,32.8787654 C15.7891556,32.8787654 16.2663111,33.358107 16.2663111,33.9487243 L16.2663111,33.9487243 Z M29.4858667,35.2640604 C29.2142222,35.2640604 28.9418667,35.160631 28.7335111,34.9494925 C28.3168,34.5314952 28.3168,33.8538546 28.7335111,33.4365706 L31.3582222,30.8030453 C31.7749333,30.385048 32.4497778,30.385048 32.8664889,30.8030453 C33.2832,31.2210425 33.2832,31.8979698 32.8664889,32.3159671 L30.2417778,34.9494925 C30.0334222,35.160631 29.7610667,35.2640604 29.4858667,35.2640604 L29.4858667,35.2640604 Z M33.2192,35.2640604 C32.9475556,35.2640604 32.6752,35.160631 32.4668444,34.9494925 C32.0501333,34.5314952 32.0501333,33.8538546 32.4668444,33.4365706 L35.0915556,30.8030453 C35.5082667,30.385048 36.1831111,30.385048 36.5998222,30.8030453 C37.0165333,31.2210425 37.0165333,31.8979698 36.5998222,32.3159671 L33.9751111,34.9494925 C33.7667556,35.160631 33.4944,35.2640604 33.2192,35.2640604 L33.2192,35.2640604 Z" id="Spot" fill="#007AFF"></path>
                    </g>
                    <path d="M76.848,25.082 L73.068,24.284 C69.204,23.528 67.566,21.596 67.566,18.824 C67.566,15.926 69.456,13.49 74.664,13.49 C79.83,13.49 81.468,15.716 81.93,18.404 L84.45,18.404 C83.862,14.12 80.964,11.264 74.664,11.264 C68.112,11.264 65.004,14.54 65.004,18.782 C65.004,22.814 67.608,25.376 72.48,26.384 L76.89,27.308 C80.166,27.98 82.896,29.576 82.896,33.356 C82.896,36.842 80.586,39.11 74.958,39.11 C69.246,39.11 67.44,36.38 66.852,33.02 L64.248,33.02 C64.836,37.808 67.944,41.336 74.916,41.336 C81.804,41.336 85.5,38.312 85.5,33.356 C85.5,28.316 81.972,26.132 76.848,25.082 L76.848,25.082 Z M99.822,18.908 C96.294,18.908 93.564,20.504 92.052,23.696 L92.052,19.16 L89.616,19.16 L89.616,48.98 L92.052,48.98 L92.052,36.17 C93.48,39.572 96.21,41.294 99.822,41.294 C104.652,41.294 109.356,37.85 109.356,30.08 C109.356,22.352 104.61,18.908 99.822,18.908 L99.822,18.908 Z M99.528,39.194 C95.538,39.194 91.926,36.464 91.926,30.08 C91.926,23.57 95.538,21.008 99.528,21.008 C103.392,21.008 107.004,23.696 107.004,30.08 C107.004,36.506 103.392,39.194 99.528,39.194 L99.528,39.194 Z M122.166,18.908 C117.294,18.908 112.212,22.478 112.212,30.122 C112.212,37.808 117.294,41.378 122.166,41.378 C126.996,41.378 132.078,37.808 132.078,30.122 C132.078,22.478 126.996,18.908 122.166,18.908 L122.166,18.908 Z M129.726,30.122 C129.726,36.464 125.988,39.32 122.166,39.32 C118.344,39.32 114.606,36.464 114.606,30.122 C114.606,23.822 118.344,20.966 122.166,20.966 C125.988,20.966 129.726,23.822 129.726,30.122 L129.726,30.122 Z M141.738,39.152 C140.478,39.152 139.974,38.732 139.974,37.556 L139.974,21.218 L144.174,21.218 L144.174,19.16 L139.974,19.16 L139.974,13.7 L137.538,13.7 L137.538,19.16 L134.388,19.16 L134.388,21.218 L137.538,21.218 L137.538,37.682 C137.538,40.538 139.218,41.252 141.234,41.252 C142.452,41.252 143.628,41.126 144.552,40.832 L144.552,38.816 C143.628,39.026 142.872,39.152 141.738,39.152 L141.738,39.152 Z M161.772,24.284 L163.998,24.284 C162.948,20.462 160.092,18.908 156.018,18.908 C151.23,18.908 148.122,20.84 148.122,24.62 C148.122,27.728 150.138,29.408 153.96,30.332 L157.908,31.256 C160.68,31.928 162.318,32.642 162.318,35.246 C162.318,38.312 159.378,39.404 156.186,39.404 C153.036,39.404 150.348,38.354 149.634,35.036 L147.408,35.036 C147.996,39.488 151.65,41.294 156.186,41.294 C160.596,41.294 164.754,39.824 164.754,35.246 C164.754,31.34 162.318,30.416 158.16,29.408 L154.842,28.61 C151.734,27.854 150.558,26.762 150.558,24.62 C150.558,22.31 152.28,20.798 156.018,20.798 C158.958,20.798 160.848,21.68 161.772,24.284 L161.772,24.284 Z" id="Spots" fill="#4A4A4A"></path>
                </g>
                <g id="Delights">
                    <g>
                        <rect id="Rectangle-8" fill="#EFB83D" opacity="0" x="0" y="0" width="50.4" height="50.5555556"></rect>
                        <path d="M23.4003692,1.2037037 C23.0193231,1.2037037 22.7076923,1.5162963 22.7076923,1.89777778 L22.7076923,12.3148148 L21.3230769,12.3148148 L21.3230769,1.89777778 C21.3230769,1.5162963 21.0114462,1.2037037 20.6311385,1.2037037 C20.2500923,1.2037037 19.9384615,1.5162963 19.9384615,1.89777778 L19.9384615,12.3148148 L18.5538462,12.3148148 L18.5538462,1.89777778 C18.5538462,1.5162963 18.2422154,1.2037037 17.8619077,1.2037037 C17.4808615,1.2037037 17.1692308,1.5162963 17.1692308,1.89777778 L17.1692308,12.3148148 L15.7846154,12.3148148 L15.7846154,1.89777778 C15.7846154,1.5162963 15.4729846,1.2037037 15.0926769,1.2037037 C14.7116308,1.2037037 14.4,1.5162963 14.4,1.89777778 L14.4,17.8703704 C14.4,19.4037037 15.6406154,20.6481481 17.1692308,20.6481481 L17.1692308,46.3422222 C17.1692308,47.4940741 18.0982154,48.4259259 19.2457846,48.4259259 C20.3940923,48.4259259 21.3230769,47.4940741 21.3230769,46.3422222 L21.3230769,20.6481481 C22.8516923,20.6481481 24.0923077,19.4037037 24.0923077,17.8703704 L24.0923077,1.89777778 C24.0923077,1.5162963 23.7806769,1.2037037 23.4003692,1.2037037 Z M32.5292308,1.2037037 C31.0006154,1.2037037 29.76,2.44814815 29.76,3.98148148 L29.76,23.4259259 C29.76,24.9592593 31.0006154,26.2037037 32.5292308,26.2037037 L32.5292308,46.3422222 C32.5292308,47.4940741 33.4582154,48.4259259 34.6065231,48.4259259 C35.7540923,48.4259259 36.6830769,47.4940741 36.6830769,46.3422222 L36.6830769,3.98148148 C36.6830769,2.44814815 35.4424615,1.2037037 33.9138462,1.2037037 L32.5292308,1.2037037 Z" id="Delight" fill="#007AFF"></path>
                    </g>
                    <path d="M73.488,11.6 L64.878,11.6 L64.878,41 L73.488,41 C82.728,41 87.432,35.54 87.432,26.3 C87.432,17.018 82.728,11.6 73.488,11.6 L73.488,11.6 Z M73.278,38.69 L67.44,38.69 L67.44,13.91 L73.278,13.91 C81.048,13.91 84.87,17.984 84.87,26.3 C84.87,34.616 81.048,38.69 73.278,38.69 L73.278,38.69 Z M110.49,30.038 C110.49,22.268 105.828,18.908 100.872,18.908 C95.958,18.908 90.96,22.52 90.96,30.122 C90.96,37.85 95.958,41.378 101.04,41.378 C104.988,41.378 107.802,40.076 109.734,36.674 L107.298,36.674 C105.702,38.69 103.77,39.32 101.166,39.32 C97.302,39.32 93.732,36.8 93.354,31.046 L110.49,31.046 L110.49,30.038 Z M100.872,20.966 C104.694,20.966 107.97,23.57 108.138,29.24 L93.354,29.24 C93.69,23.612 97.176,20.966 100.872,20.966 L100.872,20.966 Z M114.438,11.6 L114.438,41 L116.874,41 L116.874,11.6 L114.438,11.6 Z M121.83,11.6 L121.83,14.246 L124.266,14.246 L124.266,11.6 L121.83,11.6 Z M121.83,19.16 L121.83,41 L124.266,41 L124.266,19.16 L121.83,19.16 Z M145.476,19.16 L145.476,23.612 C143.922,20.504 141.234,18.908 137.748,18.908 C132.96,18.908 128.172,22.352 128.172,30.08 C128.172,37.64 132.918,41.084 137.748,41.084 C141.276,41.084 144.006,39.362 145.476,36.254 L145.476,40.958 C145.476,46.46 142.536,48.14 137.874,48.14 C134.766,48.14 132.246,47.132 130.986,45.242 L129.348,46.208 C130.734,48.728 134.094,50.24 137.874,50.24 C142.83,50.24 147.828,48.602 147.912,41.168 L147.912,40.958 L147.912,19.16 L145.476,19.16 Z M138.042,38.984 C134.136,38.984 130.566,36.296 130.566,30.08 C130.566,23.696 134.136,21.008 138.042,21.008 C141.948,21.008 145.644,23.612 145.644,30.08 C145.644,36.38 141.948,38.984 138.042,38.984 L138.042,38.984 Z M162.906,18.95 C157.992,18.95 155.346,22.814 154.926,24.452 L154.926,19.16 L154.926,11.6 L152.49,11.6 L152.49,19.16 L152.49,41 L154.926,41 L154.926,27.308 C155.43,24.998 157.74,21.092 162.36,21.092 C165.72,21.092 168.282,22.688 168.282,27.77 L168.282,41 L170.718,41 L170.718,27.602 C170.718,21.05 167.232,18.95 162.906,18.95 L162.906,18.95 Z M181.386,39.152 C180.126,39.152 179.622,38.732 179.622,37.556 L179.622,21.218 L183.822,21.218 L183.822,19.16 L179.622,19.16 L179.622,13.7 L177.186,13.7 L177.186,19.16 L174.036,19.16 L174.036,21.218 L177.186,21.218 L177.186,37.682 C177.186,40.538 178.866,41.252 180.882,41.252 C182.1,41.252 183.276,41.126 184.2,40.832 L184.2,38.816 C183.276,39.026 182.52,39.152 181.386,39.152 L181.386,39.152 Z M201.42,24.284 L203.646,24.284 C202.596,20.462 199.74,18.908 195.666,18.908 C190.878,18.908 187.77,20.84 187.77,24.62 C187.77,27.728 189.786,29.408 193.608,30.332 L197.556,31.256 C200.328,31.928 201.966,32.642 201.966,35.246 C201.966,38.312 199.026,39.404 195.834,39.404 C192.684,39.404 189.996,38.354 189.282,35.036 L187.056,35.036 C187.644,39.488 191.298,41.294 195.834,41.294 C200.244,41.294 204.402,39.824 204.402,35.246 C204.402,31.34 201.966,30.416 197.808,29.408 L194.49,28.61 C191.382,27.854 190.206,26.762 190.206,24.62 C190.206,22.31 191.928,20.798 195.666,20.798 C198.606,20.798 200.496,21.68 201.42,24.284 L201.42,24.284 Z" fill="#4A4A4A"></path>
                </g>
                <path d="M269.292,28.072 L268.05,28.072 C266.97,32.77 265.35,36.388 263.406,39.034 L251.742,25.75 L252.606,25.264 C258.438,21.862 260.76,19.162 260.76,14.95 C260.76,10.522 257.682,7.336 252.66,7.336 C247.53,7.336 244.128,10.522 244.128,14.95 C244.128,19.324 247.53,22.618 249.96,25.426 L248.232,26.452 C242.508,29.638 240.24,32.338 240.24,36.766 C240.24,41.14 243.426,46.486 251.472,46.486 C255.522,46.486 259.896,45.19 263.514,40.87 L268.428,46.486 L269.238,45.676 L264.216,39.952 C266.268,37.198 268.05,33.31 269.292,28.072 L269.292,28.072 Z M245.316,15.112 C245.316,10.846 248.556,8.47 252.66,8.47 C256.656,8.47 259.626,10.846 259.626,15.112 C259.626,19.81 255.36,22.186 252.66,23.86 L250.932,24.832 C248.394,21.916 245.316,18.838 245.316,15.112 L245.316,15.112 Z M251.472,45.298 C245.262,45.298 241.482,41.464 241.482,36.658 C241.482,32.068 245.1,29.584 248.664,27.586 L250.77,26.344 L262.704,39.952 C259.518,43.786 255.522,45.298 251.472,45.298 L251.472,45.298 Z" id="&amp;" fill="#007AFF"></path>
            </g>
        </g>
    </g>
</svg>