<?xml version="1.0" encoding="UTF-8" standalone="no"?>
<svg width="218px" height="53px" viewBox="0 0 218 53" version="1.1" xmlns="http://www.w3.org/2000/svg" xmlns:xlink="http://www.w3.org/1999/xlink">
    <!-- Generator: Sketch 39.1 (31720) - http://www.bohemiancoding.com/sketch -->
    <title>Shape</title>
    <desc>Created with Sketch.</desc>
    <defs>
        <path d="M225.768358,54.0549451 L225.768358,17.3868132 C225.768358,16.1582418 226.145663,15.2131868 226.994601,14.3626374 C227.843538,13.5120879 228.881129,13.1340659 230.013045,13.1340659 L234.163407,13.1340659 L234.163407,29.956044 L250.104567,13.1340659 L260.669122,13.1340659 L244.25633,29.6725275 L262.084018,54.0549451 L251.896768,54.0549451 L241.520865,39.5010989 C239.728664,37.1384615 238.030789,36.1934066 236.42724,36.6659341 C234.918018,37.1384615 234.06908,38.178022 234.06908,39.5956044 L234.06908,53.9604396 L225.768358,53.9604396 L225.768358,54.0549451 L225.768358,54.0549451 Z M91.2589244,39.8791209 C90.8816188,44.6043956 89.0894174,48.3846154 85.8823201,51.0307692 C82.5808964,53.6769231 78.3362088,55 73.053931,55 C66.9227156,55 62.206396,53.1098901 58.9049723,49.4241758 C55.697875,45.832967 54,40.5406593 54,33.6417582 C54,26.4593407 55.697875,21.167033 58.9992987,17.5758242 C62.3950488,13.8901099 67.3000211,12 73.7142157,12 C78.9021672,12 83.1468548,13.3230769 86.1652993,15.9692308 C89.0894174,18.5208791 90.7872924,22.1120879 91.164598,26.6483516 L86.0709729,26.6483516 C84.1844451,26.6483516 82.8638756,25.7978022 82.0149381,24.1912088 L82.0149381,24.1912088 C81.4489797,23.1516484 80.788695,22.2065934 80.0340839,21.4505495 C78.4305352,20.221978 76.3553546,19.6549451 73.7142157,19.6549451 C70.0354865,19.6549451 67.3000211,20.8835165 65.3191669,23.2461538 C63.4326391,25.6087912 62.4893752,29.1054945 62.4893752,33.7362637 C62.4893752,38.178022 63.4326391,41.5802198 65.3191669,43.9428571 C67.1113683,46.4 69.8468337,47.6285714 73.5255629,47.6285714 C76.0723755,47.6285714 78.1475561,46.967033 79.8454311,45.7384615 C81.3546534,44.5098901 82.3922437,42.6197802 83.0525284,40.0681319 L91.2589244,40.0681319 L91.2589244,39.8791209 L91.2589244,39.8791209 Z M106.351147,30.9956044 L116.255418,30.9956044 C118.424925,30.9956044 119.934147,30.5230769 120.971738,29.6725275 C122.009328,28.821978 122.48096,27.4043956 122.48096,25.6087912 C122.48096,23.8131868 122.009328,22.3956044 120.971738,21.5450549 C120.028474,20.6 118.613578,20.1274725 116.72705,20.1274725 L106.351147,20.1274725 L106.351147,30.9956044 L106.351147,30.9956044 L106.351147,30.9956044 Z M97.9560982,54.0549451 L97.9560982,17.3868132 C97.9560982,16.1582418 98.3334037,15.2131868 99.1823412,14.3626374 C100.031279,13.5120879 101.068869,13.1340659 102.200786,13.1340659 L117.76464,13.1340659 C122.197981,13.1340659 125.499404,14.0791209 127.574585,15.9692308 C129.838418,17.9538462 130.876009,20.8835165 130.876009,24.6637363 C130.876009,27.2153846 130.31005,29.2945055 129.178134,30.9956044 C128.23487,32.6021978 126.725647,33.7362637 124.650467,34.4923077 C126.442668,35.1538462 127.763238,36.0989011 128.423522,37.3274725 C129.178134,38.556044 129.555439,40.5406593 129.744092,43.3758242 L129.932745,48.2901099 L129.932745,49.8021978 C129.932745,50.3692308 129.932745,50.8417582 130.027071,51.3142857 C130.31005,52.7318681 130.781682,53.6769231 131.441967,54.0549451 L122.197981,54.0549451 C121.820675,53.2989011 121.537696,52.4483516 121.443369,51.5978022 C121.254717,50.3692308 121.254717,49.4241758 121.254717,48.9516484 L121.16039,44.5098901 C120.971738,42.1472527 120.500106,40.4461538 119.745494,39.4065934 C118.896557,38.556044 117.293008,38.0835165 115.123501,38.0835165 L106.256821,38.0835165 L106.256821,54.0549451 L97.9560982,54.0549451 L97.9560982,54.0549451 L97.9560982,54.0549451 Z M137.195877,54.0549451 L137.195877,17.3868132 C137.195877,16.1582418 137.573182,15.2131868 138.42212,14.3626374 C139.271057,13.5120879 140.308648,13.1340659 141.440564,13.1340659 L145.590926,13.1340659 L145.590926,54.0549451 L137.195877,54.0549451 L137.195877,54.0549451 L137.195877,54.0549451 Z M162.003718,54.0549451 L162.003718,20.410989 L149.92994,20.410989 L149.92994,17.3868132 C149.92994,16.1582418 150.307245,15.2131868 151.156183,14.3626374 C152.00512,13.5120879 152.948384,13.1340659 154.174627,13.1340659 L182.472544,13.1340659 L182.472544,20.410989 L170.493093,20.410989 L170.493093,54.0549451 L162.003718,54.0549451 L162.003718,54.0549451 L162.003718,54.0549451 Z M209.638545,54.0549451 L201.243496,54.0549451 L201.243496,38.8395604 L186.434253,13.1340659 L196.810156,13.1340659 L205.488184,30.7120879 L212.468337,15.4967033 C213.222948,13.8901099 214.543517,13.1340659 216.335719,13.1340659 L223.127219,13.1340659 L209.638545,38.8395604 L209.638545,54.0549451 L209.638545,54.0549451 Z" id="path-1"></path>
        <filter x="-50%" y="-50%" width="200%" height="200%" filterUnits="objectBoundingBox" id="filter-2">
            <feOffset dx="0" dy="1" in="SourceAlpha" result="shadowOffsetOuter1"></feOffset>
            <feGaussianBlur stdDeviation="2.5" in="shadowOffsetOuter1" result="shadowBlurOuter1"></feGaussianBlur>
            <feColorMatrix values="0 0 0 0 0   0 0 0 0 0   0 0 0 0 0  0 0 0 0.5 0" type="matrix" in="shadowBlurOuter1"></feColorMatrix>
        </filter>
    </defs>
    <g id="Page-1" stroke="none" stroke-width="1" fill="none" fill-rule="evenodd">
        <g id="Website-Main-(1440x780)" transform="translate(-195.000000, -27.000000)">
            <g id="HEADER-CONTENT" transform="translate(146.000000, 19.000000)">
                <g id="Shape">
                    <use fill="black" fill-opacity="1" filter="url(#filter-2)" xlink:href="#path-1"></use>
                    <use fill="#FFFFFF" fill-rule="evenodd" xlink:href="#path-1"></use>
                </g>
            </g>
        </g>
    </g>
</svg>