<?xml version="1.0" encoding="UTF-8" standalone="no"?>
<svg width="274px" height="71px" viewBox="0 0 274 71" version="1.1" xmlns="http://www.w3.org/2000/svg" xmlns:xlink="http://www.w3.org/1999/xlink">
    <!-- Generator: Sketch 39.1 (31720) - http://www.bohemiancoding.com/sketch -->
    <title>Crityk Logo</title>
    <desc>Created with Sketch.</desc>
    <defs>
        <filter x="-50%" y="-50%" width="200%" height="200%" filterUnits="objectBoundingBox" id="filter-1">
            <feOffset dx="0" dy="1" in="SourceAlpha" result="shadowOffsetOuter1"></feOffset>
            <feGaussianBlur stdDeviation="2.5" in="shadowOffsetOuter1" result="shadowBlurOuter1"></feGaussianBlur>
            <feColorMatrix values="0 0 0 0 0   0 0 0 0 0   0 0 0 0 0  0 0 0 0.5 0" type="matrix" in="shadowBlurOuter1" result="shadowMatrixOuter1"></feColorMatrix>
            <feMerge>
                <feMergeNode in="shadowMatrixOuter1"></feMergeNode>
                <feMergeNode in="SourceGraphic"></feMergeNode>
            </feMerge>
        </filter>
        <path d="M225.768358,52.0549451 L225.768358,15.3868132 C225.768358,14.1582418 226.145663,13.2131868 226.994601,12.3626374 C227.843538,11.5120879 228.881129,11.1340659 230.013045,11.1340659 L234.163407,11.1340659 L234.163407,27.956044 L250.104567,11.1340659 L260.669122,11.1340659 L244.25633,27.6725275 L262.084018,52.0549451 L251.896768,52.0549451 L241.520865,37.5010989 C239.728664,35.1384615 238.030789,34.1934066 236.42724,34.6659341 C234.918018,35.1384615 234.06908,36.178022 234.06908,37.5956044 L234.06908,51.9604396 L225.768358,51.9604396 L225.768358,52.0549451 L225.768358,52.0549451 Z M91.2589244,37.8791209 C90.8816188,42.6043956 89.0894174,46.3846154 85.8823201,49.0307692 C82.5808964,51.6769231 78.3362088,53 73.053931,53 C66.9227156,53 62.206396,51.1098901 58.9049723,47.4241758 C55.697875,43.832967 54,38.5406593 54,31.6417582 C54,24.4593407 55.697875,19.167033 58.9992987,15.5758242 C62.3950488,11.8901099 67.3000211,10 73.7142157,10 C78.9021672,10 83.1468548,11.3230769 86.1652993,13.9692308 C89.0894174,16.5208791 90.7872924,20.1120879 91.164598,24.6483516 L86.0709729,24.6483516 C84.1844451,24.6483516 82.8638756,23.7978022 82.0149381,22.1912088 L82.0149381,22.1912088 C81.4489797,21.1516484 80.788695,20.2065934 80.0340839,19.4505495 C78.4305352,18.221978 76.3553546,17.6549451 73.7142157,17.6549451 C70.0354865,17.6549451 67.3000211,18.8835165 65.3191669,21.2461538 C63.4326391,23.6087912 62.4893752,27.1054945 62.4893752,31.7362637 C62.4893752,36.178022 63.4326391,39.5802198 65.3191669,41.9428571 C67.1113683,44.4 69.8468337,45.6285714 73.5255629,45.6285714 C76.0723755,45.6285714 78.1475561,44.967033 79.8454311,43.7384615 C81.3546534,42.5098901 82.3922437,40.6197802 83.0525284,38.0681319 L91.2589244,38.0681319 L91.2589244,37.8791209 L91.2589244,37.8791209 Z M106.351147,28.9956044 L116.255418,28.9956044 C118.424925,28.9956044 119.934147,28.5230769 120.971738,27.6725275 C122.009328,26.821978 122.48096,25.4043956 122.48096,23.6087912 C122.48096,21.8131868 122.009328,20.3956044 120.971738,19.5450549 C120.028474,18.6 118.613578,18.1274725 116.72705,18.1274725 L106.351147,18.1274725 L106.351147,28.9956044 L106.351147,28.9956044 L106.351147,28.9956044 Z M97.9560982,52.0549451 L97.9560982,15.3868132 C97.9560982,14.1582418 98.3334037,13.2131868 99.1823412,12.3626374 C100.031279,11.5120879 101.068869,11.1340659 102.200786,11.1340659 L117.76464,11.1340659 C122.197981,11.1340659 125.499404,12.0791209 127.574585,13.9692308 C129.838418,15.9538462 130.876009,18.8835165 130.876009,22.6637363 C130.876009,25.2153846 130.31005,27.2945055 129.178134,28.9956044 C128.23487,30.6021978 126.725647,31.7362637 124.650467,32.4923077 C126.442668,33.1538462 127.763238,34.0989011 128.423522,35.3274725 C129.178134,36.556044 129.555439,38.5406593 129.744092,41.3758242 L129.932745,46.2901099 L129.932745,47.8021978 C129.932745,48.3692308 129.932745,48.8417582 130.027071,49.3142857 C130.31005,50.7318681 130.781682,51.6769231 131.441967,52.0549451 L122.197981,52.0549451 C121.820675,51.2989011 121.537696,50.4483516 121.443369,49.5978022 C121.254717,48.3692308 121.254717,47.4241758 121.254717,46.9516484 L121.16039,42.5098901 C120.971738,40.1472527 120.500106,38.4461538 119.745494,37.4065934 C118.896557,36.556044 117.293008,36.0835165 115.123501,36.0835165 L106.256821,36.0835165 L106.256821,52.0549451 L97.9560982,52.0549451 L97.9560982,52.0549451 L97.9560982,52.0549451 Z M137.195877,52.0549451 L137.195877,15.3868132 C137.195877,14.1582418 137.573182,13.2131868 138.42212,12.3626374 C139.271057,11.5120879 140.308648,11.1340659 141.440564,11.1340659 L145.590926,11.1340659 L145.590926,52.0549451 L137.195877,52.0549451 L137.195877,52.0549451 L137.195877,52.0549451 Z M162.003718,52.0549451 L162.003718,18.410989 L149.92994,18.410989 L149.92994,15.3868132 C149.92994,14.1582418 150.307245,13.2131868 151.156183,12.3626374 C152.00512,11.5120879 152.948384,11.1340659 154.174627,11.1340659 L182.472544,11.1340659 L182.472544,18.410989 L170.493093,18.410989 L170.493093,52.0549451 L162.003718,52.0549451 L162.003718,52.0549451 L162.003718,52.0549451 Z M209.638545,52.0549451 L201.243496,52.0549451 L201.243496,36.8395604 L186.434253,11.1340659 L196.810156,11.1340659 L205.488184,28.7120879 L212.468337,13.4967033 C213.222948,11.8901099 214.543517,11.1340659 216.335719,11.1340659 L223.127219,11.1340659 L209.638545,36.8395604 L209.638545,52.0549451 L209.638545,52.0549451 Z" id="path-2"></path>
        <filter x="-50%" y="-50%" width="200%" height="200%" filterUnits="objectBoundingBox" id="filter-3">
            <feOffset dx="0" dy="1" in="SourceAlpha" result="shadowOffsetOuter1"></feOffset>
            <feGaussianBlur stdDeviation="2.5" in="shadowOffsetOuter1" result="shadowBlurOuter1"></feGaussianBlur>
            <feColorMatrix values="0 0 0 0 0   0 0 0 0 0   0 0 0 0 0  0 0 0 0.5 0" type="matrix" in="shadowBlurOuter1"></feColorMatrix>
        </filter>
    </defs>
    <g id="Page-1" stroke="none" stroke-width="1" fill="none" fill-rule="evenodd">
        <g id="Website-Main-(1440x780)" transform="translate(-141.000000, -16.000000)">
            <g id="HEADER-CONTENT" transform="translate(146.000000, 19.000000)">
                <g id="Crityk-Logo" filter="url(#filter-1)">
                    <path d="M1.13358793,50.6223451 C1.13353417,50.6220544 1.13348043,50.6217635 1.13342674,50.6214726 C-0.354385848,42.5601842 3.8795928,32.914032 3.96472747,32.914032 C5.26927846,35.5948129 5.44921653,38.970611 5.44921653,38.970611 C6.07899977,37.8287969 4.41457264,31.1764888 4.41457264,31.1764888 C5.13432491,28.4460638 12.1968941,21.5951794 12.5567702,22.3398407 C14.2211973,26.0135034 14.1312283,30.3821834 14.1312283,30.3821834 C15.5707328,27.6517584 13.5464296,21.1980266 13.5464296,21.1980266 C17.23516,18.3683135 21.328751,15.1414476 21.328751,15.1414476 C24.0728065,16.0846853 31.3153138,22.2901966 22.0934878,14.5953626 C25.2873885,13.9499894 30.0107628,9.13451265 30.0107628,9.13451265 C30.5055925,10.5245472 31.5455056,12.9957012 31.5455056,12.9957012 C31.218456,12.3937047 30.5955615,8.73735992 30.5955615,8.73735992 C33.2946325,6.65230812 36.8484093,0 36.8484093,0 L36.8521825,0.00851736031 C36.852616,0.00567857039 36.8530492,0.00283945031 36.8534823,9.74458609e-14 C36.8532662,0.00332879816 36.8530497,0.0066571837 36.8528328,0.0099851567 L37.8380687,2.23398407 C39.6374494,6.2551554 39.2775733,12.8578194 39.2775733,12.8578194 C35.6788119,13.5528367 32.0463765,16.1387704 32.0463765,16.1387704 C38.3891934,12.5643959 40.0872946,14.4960744 40.0872946,14.4960744 C40.1772636,18.8647544 38.557821,21.396603 38.557821,21.396603 C29.583208,19.9788599 29.365175,18.4136692 37.9280377,22.7866375 C37.9280377,22.7866375 36.4435487,25.9142152 32.7548183,28.3467757 C26.726893,32.3183029 25.0174814,33.4104729 25.0174814,33.4104729 C21.328751,32.8643879 11.8704956,35.1962546 11.8704956,35.1962546 C20.867399,33.7565759 22.543333,34.5026429 22.543333,34.5026429 C16.8302993,37.2330679 13.4564605,40.9067306 13.4564605,40.9067306 C8.77807078,40.9067306 5.44921652,42.7505726 5.44921652,42.7505726 C8.8680398,41.2612499 11.5221263,41.8003242 11.5221263,41.8003242 C7.0182622,43.9089711 3.75661036,48.9339197 2.13683172,50.8522424 C2.11828407,50.8715104 2.10002228,50.8899977 2.08204301,50.9077124 C2.08162812,50.9095956 2.08121338,50.9114788 2.08079879,50.9133622 C2.01648162,50.9813283 1.9563924,51.0365648 1.90026623,51.0806733 C1.63699635,52.3315186 1.44446569,53.6154644 1.3252986,54.9334652 C1.25379303,55.7243245 1.20874843,56.5270132 1.19069311,57.3417074 L1.19065186,57.5626707 L1.19065186,57.7799114 L1.19065186,57.997152 L1.19065186,58.2143926 L1.19065186,58.4316332 L1.19065186,58.7574941 L1.19065186,58.9747347 L1.19065186,59.1919753 L1.19065186,59.409216 L1.19065186,59.6264566 L1.19065186,59.8436972 L1.19065186,60.0609378 L1.19065186,60.4411089 L1.19065186,60.7669698 L1.19065186,61.0928307 L1.19065186,61.3643815 L1.19065186,61.5816221 L1.19065186,61.7988627 L1.19065186,62.0704135 L1.19065186,62.4505846 C1.19065186,62.6851573 1.19065183,63 1.19065183,63 L0,60.9529164 L0.0233632814,60.6040393 L0.0233632814,60.3867987 L0.0233632814,59.6264566 L0.0233632814,59.409216 L0.0233632814,59.1919753 L0.0233632814,58.9747347 L0.0233632814,58.7574941 L0.0233632814,58.5402535 L0.0233632814,58.3230129 L0.0233632814,58.1057723 L0.0233632814,57.8885317 L0.0233632814,57.671291 C0.240980748,57.4762982 0.315476903,57.2704287 0.373795749,56.8745608 C0.38077265,56.8272016 0.391405333,56.5307778 0.391405333,56.5307778 C0.436211773,55.9533369 0.492120044,55.3734791 0.558550785,54.8037682 C0.716401948,53.4500343 0.933640257,52.1536705 1.20924956,50.9103243 C1.15117546,50.7643155 1.13342674,50.6230572 1.13342674,50.6230572 C1.15394579,50.7324405 1.17902466,50.8287586 1.2092725,50.9102209 C1.20955693,50.9110971 1.20986542,50.91187 1.21017505,50.912643 C1.20987369,50.9118371 1.20957284,50.9110297 1.2092725,50.9102209 C1.24705605,50.7397717 1.28593659,50.570319 1.32591151,50.4018514 C2.55079829,45.2397717 4.77611985,41.0436932 8.05824627,37.2698972 C10.5549479,34.3991843 12.8839784,32.4165419 18.153121,28.3834886 C18.232611,28.3226474 18.232611,28.3226474 18.3121034,28.2618052 C20.054642,26.9252696 20.4671748,26.6019211 21.1829942,26.0284966 C21.3385578,25.9151649 29.4817982,19.077559 31.4345523,15.6076154 C32.3972609,13.8969317 32.9235882,13.0384865 31.0990044,15.9572001 C29.6919517,18.1083044 26.4112779,21.7921654 21.3385577,26.0432595 C21.1531333,26.1986507 19.9923144,27.1691698 19.6539793,27.4531445 C19.2401277,27.7964534 16.7154241,29.6497687 16.0487517,30.1625103 C14.1091275,31.6542867 12.4100808,33.1283229 10.788187,34.7991833 C6.39282689,39.3272438 3.31140571,44.5791163 1.9432362,50.8796987 C1.92978786,50.9416299 1.91651358,51.0036426 1.90341366,51.0657368 C1.75091016,51.1836473 1.6228738,51.2342973 1.5164157,51.2246421 C1.61720715,51.2403858 1.74322326,51.2040904 1.90026623,51.0806733 C1.90131426,51.075694 1.9023634,51.0707151 1.90341366,51.0657368 C1.95958884,51.0223041 2.01908383,50.9697452 2.08204301,50.9077124 C5.20819937,36.7185057 16.7903163,30.0851789 19.7681969,27.5933471 C27.269127,21.2580217 35.9021712,14.5966086 36.8528328,0.0099851567 L36.8521825,0.00851736031 C34.3241405,16.5664225 25.60989,21.8918516 18.2040182,28.1364486 C10.9792649,33.6662205 3.72025885,39.1959923 1.13358793,50.6223451 Z M1.5164157,51.2246421 C1.38176229,51.2124297 1.28163068,51.1037385 1.21017505,50.912643 C1.26707332,51.0546955 1.36222993,51.2005581 1.5164157,51.2246421 Z" id="Combined-Shape" fill="#FFFFFF"></path>
                    <g id="Shape">
                        <use fill="black" fill-opacity="1" filter="url(#filter-3)" xlink:href="#path-2"></use>
                        <use fill="#FFFFFF" fill-rule="evenodd" xlink:href="#path-2"></use>
                    </g>
                </g>
            </g>
        </g>
    </g>
</svg>