<svg id="SvgjsSvg1014" xmlns="http://www.w3.org/2000/svg" version="1.1" xmlns:xlink="http://www.w3.org/1999/xlink" xmlns:svgjs="http://svgjs.com/svgjs" width="97" height="23"><defs id="SvgjsDefs1015"></defs><path id="SvgjsPath1016" d="M159.45272 128.59423C159.45284 128.59372000000002 159.45296 128.59321 159.45307 128.59271C159.44836 128.58213 159.44425999999999 128.57154 159.44069 128.56131000000002C159.44447 128.57299000000003 159.44848 128.58396000000002 159.45271 128.59423ZM159.45307 128.5927C159.46811 128.52801 159.48373999999998 128.46377 159.5 128.4C159.95 126.52000000000001 160.79 124.98 162.01 123.61C162.95 122.56 163.82 121.83 165.79 120.36C165.82 120.34 165.82 120.34 165.85 120.32C166.5 119.83 166.66 119.71 166.93 119.5C166.96512 119.47191 168.47998 118.23042 169.63165 117.05728C168.98375000000001 117.75539 168.09783000000002 118.59808000000001 166.98000000000002 119.51C166.91000000000003 119.56 166.48000000000002 119.92 166.35000000000002 120.02000000000001C166.20000000000002 120.15 165.25000000000003 120.82000000000001 165.00000000000003 121.01C164.28000000000003 121.56 163.64000000000001 122.09 163.04000000000002 122.7C161.39000000000001 124.36 160.24 126.27 159.73000000000002 128.58C159.72520000000003 128.60052000000002 159.72045000000003 128.6211 159.71576000000002 128.64174C159.73611000000002 128.62681 159.75763 128.60903 159.78038 128.5883C159.78025 128.58887000000001 159.78012 128.58943 159.78 128.59C159.75653 128.61425 159.73453 128.63404 159.71391 128.6499C159.71453 128.64718 159.71514 128.64446 159.71576 128.64174C159.65000999999998 128.68997 159.59651 128.70831 159.55320999999998 128.69922C159.50527999999997 128.68451 159.47350999999998 128.63868 159.45306999999997 128.5927ZM159.78038 128.5883C159.78682 128.58244 159.79336 128.57634000000002 159.8 128.57C160.41000000000003 127.86 161.63000000000002 126.02999999999999 163.31 125.25999999999999C163.31 125.25999999999999 162.32 125.05999999999999 161.04 125.60999999999999C161.04 125.60999999999999 162.28 124.92999999999998 164.03 124.92999999999998C164.03 124.92999999999998 165.3 123.58999999999997 167.43 122.59999999999998C167.43 122.59999999999998 166.81 122.31999999999998 163.44 122.84999999999998C163.44 122.84999999999998 166.98 121.99999999999999 168.35999999999999 122.19999999999997C168.35999999999999 122.19999999999997 168.99999999999997 121.79999999999997 171.26 120.34999999999998C172.64 119.45999999999998 173.19 118.31999999999998 173.19 118.31999999999998C169.99 116.71999999999998 170.07 117.28999999999998 173.43 117.80999999999997C173.43 117.80999999999997 174.03 116.88999999999997 174 115.28999999999998C174 115.28999999999998 173.36 114.58999999999997 170.99 115.88999999999997C170.99 115.88999999999997 172.35000000000002 114.94999999999997 173.70000000000002 114.68999999999997C173.70000000000002 114.68999999999997 173.83 112.27999999999997 173.16000000000003 110.81999999999996C172.79000000000002 109.99999999999997 172.79000000000002 109.99999999999997 172.79000000000002 109.99999999999997C172.79000000000002 109.99999999999997 171.46 112.42999999999998 170.45000000000002 113.18999999999997C170.45000000000002 113.18999999999997 170.64811000000003 114.33557999999996 170.77253000000002 114.67621999999997C170.68063 114.46210999999997 170.38121 113.75843999999998 170.23000000000002 113.32999999999997C170.23000000000002 113.32999999999997 168.46 115.08999999999997 167.27 115.32999999999997C170.72 118.13999999999997 168.01000000000002 115.86999999999998 166.98000000000002 115.52999999999997C166.98000000000002 115.52999999999997 165.45000000000002 116.70999999999998 164.07000000000002 117.73999999999997C164.07000000000002 117.73999999999997 164.83 120.09999999999997 164.29000000000002 121.08999999999996C164.29000000000002 121.08999999999996 164.32000000000002 119.49999999999996 163.70000000000002 118.15999999999995C163.56000000000003 117.87999999999995 160.92000000000002 120.38999999999996 160.65 121.37999999999995C160.65 121.37999999999995 161.27 123.80999999999996 161.04 124.22999999999995C161.04 124.22999999999995 160.97 122.98999999999995 160.48 122.01999999999995C160.45 122.01999999999995 158.86999999999998 125.53999999999995 159.42 128.47999999999996C160.39 124.30999999999996 163.10999999999999 122.28999999999996 165.80999999999997 120.26999999999995C168.57999999999998 117.98999999999995 171.83999999999997 116.04999999999995 172.78999999999996 109.99999999999996C172.42999999999995 115.32999999999996 169.19999999999996 117.75999999999996 166.39999999999998 120.06999999999996C165.28011999999998 120.97989999999996 160.95094999999998 123.40946999999997 159.78037999999998 128.58829999999998ZM159.42 128.48C159.426 128.51002 159.43286999999998 128.53716 159.44069 128.56131C159.42531 128.51721 159.42 128.48 159.42 128.48ZM159.15 130.64C159.15 130.64 159.14000000000001 130.75 159.14000000000001 130.76C159.12 130.91 159.09 130.98 159.01000000000002 131.04999999999998L159.01000000000002 132.13L159.00000000000003 132.25L159.45000000000002 133C159.45000000000002 133 159.45000000000002 131.02 159.45000000000002 130.93C159.45000000000002 130.64000000000001 159.47000000000003 130.34 159.50000000000003 130.06C159.53802000000002 129.57521 159.61219000000003 129.09945 159.71391000000003 128.6499C159.64661000000004 128.70169 159.59404000000004 128.71175 159.55321000000004 128.69922C159.51040000000003 128.69024 159.47756000000004 128.65445 159.45272000000003 128.59423C159.34764000000004 129.04643000000002 159.27118000000002 129.52058000000002 159.21000000000004 130.01000000000002C159.18000000000004 130.22000000000003 159.16000000000003 130.43 159.15000000000003 130.64000000000001ZM170.64 115.83C171.32 114.76 171.11999999999998 115.07 170.76 115.7C170.54269 116.07508 170.1198 116.56004 169.63164999999998 117.05728C170.08499999999998 116.56880000000001 170.42180999999997 116.1511 170.64 115.83000000000001Z " fill="#007aff" fill-opacity="1" transform="matrix(1,0,0,1,-159,-110)"></path><path id="SvgjsPath1017" d="M192.78414 124.44L189.75 124.44C189.51 125.39 189.12 126.1 188.56 126.55C187.94 127.00999999999999 187.17000000000002 127.25999999999999 186.23 127.25999999999999C184.85999999999999 127.25999999999999 183.85 126.8 183.19 125.88999999999999C182.49 125.00999999999999 182.14 123.73999999999998 182.14 122.08999999999999C182.14 120.35999999999999 182.48999999999998 119.05999999999999 183.19 118.17999999999999C183.92 117.30999999999999 184.93 116.85 186.3 116.85C187.27 116.85 188.04000000000002 117.05999999999999 188.63000000000002 117.52C188.91000000000003 117.8 189.16000000000003 118.14999999999999 189.37000000000003 118.53999999999999C189.68000000000004 119.13 190.17000000000004 119.44999999999999 190.87000000000003 119.44999999999999L192.75000000000003 119.44999999999999C192.61000000000004 117.75999999999999 191.98000000000002 116.42999999999999 190.90000000000003 115.47999999999999C189.79000000000002 114.49 188.21000000000004 113.99999999999999 186.30000000000004 113.99999999999999C183.92000000000004 113.99999999999999 182.11000000000004 114.69999999999999 180.85000000000005 116.06999999999998C179.63000000000005 117.40999999999998 179.00000000000006 119.37999999999998 179.00000000000006 122.04999999999998C179.00000000000006 124.61999999999998 179.63000000000005 126.58999999999999 180.82000000000005 127.92999999999998C182.04000000000005 129.29999999999998 183.78000000000006 129.99999999999997 186.05000000000004 129.99999999999997C188.01000000000005 129.99999999999997 189.58000000000004 129.50999999999996 190.80000000000004 128.51999999999998C191.96431000000004 127.55302999999998 192.63210000000004 126.16740999999998 192.78414000000004 124.43999999999998ZM242.56 129.61L245.63 129.61L245.63 124.27000000000001C245.63 123.74000000000001 245.95 123.35000000000001 246.51 123.18C247.1 123 247.73 123.35000000000001 248.39 124.23L252.23 129.65L256 129.65L249.4 120.58000000000001L255.48000000000002 114.42000000000002L251.57000000000002 114.42000000000002L245.67000000000002 120.68000000000002L245.67000000000002 114.42000000000002L244.13000000000002 114.42000000000002C243.71000000000004 114.42000000000002 243.33 114.56000000000002 243.02 114.88000000000001C242.70000000000002 115.2 242.56 115.55000000000001 242.56 116.00000000000001ZM195.27 129.65L198.34 129.65L198.34 123.71000000000001L201.62 123.71000000000001C202.42000000000002 123.71000000000001 203.01 123.88000000000001 203.33 124.2C203.61 124.58 203.78 125.22 203.85000000000002 126.10000000000001L203.89000000000001 127.75000000000001C203.89000000000001 127.93000000000002 203.89000000000001 128.28 203.96 128.73000000000002C203.99 129.05 204.1 129.37 204.24 129.65L207.66 129.65C207.41 129.51000000000002 207.24 129.16 207.13 128.63C207.1 128.45 207.1 128.28 207.1 128.07C207.1 127.88999999999999 207.1 127.67999999999999 207.1 127.5L207.03 125.67C206.96 124.62 206.82 123.88 206.54 123.42C206.29999999999998 122.97 205.81 122.62 205.14 122.37C205.91 122.09 206.47 121.67 206.82 121.07000000000001C207.23999999999998 120.44000000000001 207.45 119.66000000000001 207.45 118.71000000000001C207.45 117.31 207.06 116.22000000000001 206.23 115.48C205.45999999999998 114.77000000000001 204.23999999999998 114.42 202.6 114.42L196.84 114.42C196.42000000000002 114.42 196.03 114.56 195.72 114.88C195.41 115.19999999999999 195.27 115.55 195.27 116ZM218.97 129.65L222.10999999999999 129.65L222.10999999999999 117.13000000000001L226.54 117.13000000000001L226.54 114.42000000000002L216.07 114.42000000000002C215.62 114.42000000000002 215.26999999999998 114.56000000000002 214.95 114.88000000000001C214.64 115.2 214.5 115.55000000000001 214.5 116.00000000000001L214.5 117.13000000000001L218.97 117.13000000000001ZM209.79 129.65L212.89 129.65L212.89 114.42L211.35999999999999 114.42C210.94 114.42 210.54999999999998 114.56 210.23999999999998 114.88C209.92999999999998 115.19999999999999 209.79 115.55 209.79 116ZM198.37 121.07L198.37 117.02L202.21 117.02C202.91 117.02 203.43 117.2 203.78 117.55C204.17 117.86999999999999 204.34 118.39999999999999 204.34 119.06C204.34 119.73 204.17000000000002 120.26 203.78 120.58C203.4 120.89 202.84 121.07 202.04 121.07ZM192.78414 124.44L192.79000000000002 124.44L192.79000000000002 124.37C192.78814000000003 124.3934 192.78618000000003 124.41673 192.78414 124.44ZM233.49 129.65L233.49 123.99000000000001L228.01000000000002 114.42000000000002L231.85000000000002 114.42000000000002L235.06000000000003 120.96000000000002L237.64000000000004 115.30000000000003C237.92000000000004 114.70000000000003 238.41000000000005 114.42000000000003 239.07000000000005 114.42000000000003L241.58000000000004 114.42000000000003L236.59000000000003 123.99000000000004L236.59000000000003 129.65000000000003Z " fill="#007aff" fill-opacity="1" transform="matrix(1,0,0,1,-159,-110)"></path></svg>