<?xml version="1.0" encoding="UTF-8" standalone="no"?>
<svg width="50px" height="71px" viewBox="0 0 50 71" version="1.1" xmlns="http://www.w3.org/2000/svg" xmlns:xlink="http://www.w3.org/1999/xlink">
    <!-- Generator: Sketch 39.1 (31720) - http://www.bohemiancoding.com/sketch -->
    <title>Group</title>
    <desc>Created with Sketch.</desc>
    <defs>
        <filter x="-50%" y="-50%" width="200%" height="200%" filterUnits="objectBoundingBox" id="filter-1">
            <feOffset dx="0" dy="1" in="SourceAlpha" result="shadowOffsetOuter1"></feOffset>
            <feGaussianBlur stdDeviation="2.5" in="shadowOffsetOuter1" result="shadowBlurOuter1"></feGaussianBlur>
            <feColorMatrix values="0 0 0 0 0   0 0 0 0 0   0 0 0 0 0  0 0 0 0.5 0" type="matrix" in="shadowBlurOuter1" result="shadowMatrixOuter1"></feColorMatrix>
            <feMerge>
                <feMergeNode in="shadowMatrixOuter1"></feMergeNode>
                <feMergeNode in="SourceGraphic"></feMergeNode>
            </feMerge>
        </filter>
    </defs>
    <g id="Page-1" stroke="none" stroke-width="1" fill="none" fill-rule="evenodd">
        <g id="Website-Main-(1440x780)" transform="translate(-141.000000, -16.000000)" fill="#FFFFFF">
            <g id="HEADER-CONTENT" transform="translate(146.000000, 19.000000)">
                <g id="Group" filter="url(#filter-1)">
                    <path d="M1.13358793,50.6223451 C1.13353417,50.6220544 1.13348043,50.6217635 1.13342674,50.6214726 C-0.354385848,42.5601842 3.8795928,32.914032 3.96472747,32.914032 C5.26927846,35.5948129 5.44921653,38.970611 5.44921653,38.970611 C6.07899977,37.8287969 4.41457264,31.1764888 4.41457264,31.1764888 C5.13432491,28.4460638 12.1968941,21.5951794 12.5567702,22.3398407 C14.2211973,26.0135034 14.1312283,30.3821834 14.1312283,30.3821834 C15.5707328,27.6517584 13.5464296,21.1980266 13.5464296,21.1980266 C17.23516,18.3683135 21.328751,15.1414476 21.328751,15.1414476 C24.0728065,16.0846853 31.3153138,22.2901966 22.0934878,14.5953626 C25.2873885,13.9499894 30.0107628,9.13451265 30.0107628,9.13451265 C30.5055925,10.5245472 31.5455056,12.9957012 31.5455056,12.9957012 C31.218456,12.3937047 30.5955615,8.73735992 30.5955615,8.73735992 C33.2946325,6.65230812 36.8484093,0 36.8484093,0 L36.8521825,0.00851736031 C36.852616,0.00567857039 36.8530492,0.00283945031 36.8534823,9.74458609e-14 C36.8532662,0.00332879816 36.8530497,0.0066571837 36.8528328,0.0099851567 L37.8380687,2.23398407 C39.6374494,6.2551554 39.2775733,12.8578194 39.2775733,12.8578194 C35.6788119,13.5528367 32.0463765,16.1387704 32.0463765,16.1387704 C38.3891934,12.5643959 40.0872946,14.4960744 40.0872946,14.4960744 C40.1772636,18.8647544 38.557821,21.396603 38.557821,21.396603 C29.583208,19.9788599 29.365175,18.4136692 37.9280377,22.7866375 C37.9280377,22.7866375 36.4435487,25.9142152 32.7548183,28.3467757 C26.726893,32.3183029 25.0174814,33.4104729 25.0174814,33.4104729 C21.328751,32.8643879 11.8704956,35.1962546 11.8704956,35.1962546 C20.867399,33.7565759 22.543333,34.5026429 22.543333,34.5026429 C16.8302993,37.2330679 13.4564605,40.9067306 13.4564605,40.9067306 C8.77807078,40.9067306 5.44921652,42.7505726 5.44921652,42.7505726 C8.8680398,41.2612499 11.5221263,41.8003242 11.5221263,41.8003242 C7.0182622,43.9089711 3.75661036,48.9339197 2.13683172,50.8522424 C2.11828407,50.8715104 2.10002228,50.8899977 2.08204301,50.9077124 C2.08162812,50.9095956 2.08121338,50.9114788 2.08079879,50.9133622 C2.01648162,50.9813283 1.9563924,51.0365648 1.90026623,51.0806733 C1.63699635,52.3315186 1.44446569,53.6154644 1.3252986,54.9334652 C1.25379303,55.7243245 1.20874843,56.5270132 1.19069311,57.3417074 L1.19065186,57.5626707 L1.19065186,57.7799114 L1.19065186,57.997152 L1.19065186,58.2143926 L1.19065186,58.4316332 L1.19065186,58.7574941 L1.19065186,58.9747347 L1.19065186,59.1919753 L1.19065186,59.409216 L1.19065186,59.6264566 L1.19065186,59.8436972 L1.19065186,60.0609378 L1.19065186,60.4411089 L1.19065186,60.7669698 L1.19065186,61.0928307 L1.19065186,61.3643815 L1.19065186,61.5816221 L1.19065186,61.7988627 L1.19065186,62.0704135 L1.19065186,62.4505846 C1.19065186,62.6851573 1.19065183,63 1.19065183,63 L0,60.9529164 L0.0233632814,60.6040393 L0.0233632814,60.3867987 L0.0233632814,59.6264566 L0.0233632814,59.409216 L0.0233632814,59.1919753 L0.0233632814,58.9747347 L0.0233632814,58.7574941 L0.0233632814,58.5402535 L0.0233632814,58.3230129 L0.0233632814,58.1057723 L0.0233632814,57.8885317 L0.0233632814,57.671291 C0.240980748,57.4762982 0.315476903,57.2704287 0.373795749,56.8745608 C0.38077265,56.8272016 0.391405333,56.5307778 0.391405333,56.5307778 C0.436211773,55.9533369 0.492120044,55.3734791 0.558550785,54.8037682 C0.716401948,53.4500343 0.933640257,52.1536705 1.20924956,50.9103243 C1.15117546,50.7643155 1.13342674,50.6230572 1.13342674,50.6230572 C1.15394579,50.7324405 1.17902466,50.8287586 1.2092725,50.9102209 C1.20955693,50.9110971 1.20986542,50.91187 1.21017505,50.912643 C1.20987369,50.9118371 1.20957284,50.9110297 1.2092725,50.9102209 C1.24705605,50.7397717 1.28593659,50.570319 1.32591151,50.4018514 C2.55079829,45.2397717 4.77611985,41.0436932 8.05824627,37.2698972 C10.5549479,34.3991843 12.8839784,32.4165419 18.153121,28.3834886 C18.232611,28.3226474 18.232611,28.3226474 18.3121034,28.2618052 C20.054642,26.9252696 20.4671748,26.6019211 21.1829942,26.0284966 C21.3385578,25.9151649 29.4817982,19.077559 31.4345523,15.6076154 C32.3972609,13.8969317 32.9235882,13.0384865 31.0990044,15.9572001 C29.6919517,18.1083044 26.4112779,21.7921654 21.3385577,26.0432595 C21.1531333,26.1986507 19.9923144,27.1691698 19.6539793,27.4531445 C19.2401277,27.7964534 16.7154241,29.6497687 16.0487517,30.1625103 C14.1091275,31.6542867 12.4100808,33.1283229 10.788187,34.7991833 C6.39282689,39.3272438 3.31140571,44.5791163 1.9432362,50.8796987 C1.92978786,50.9416299 1.91651358,51.0036426 1.90341366,51.0657368 C1.75091016,51.1836473 1.6228738,51.2342973 1.5164157,51.2246421 C1.61720715,51.2403858 1.74322326,51.2040904 1.90026623,51.0806733 C1.90131426,51.075694 1.9023634,51.0707151 1.90341366,51.0657368 C1.95958884,51.0223041 2.01908383,50.9697452 2.08204301,50.9077124 C5.20819937,36.7185057 16.7903163,30.0851789 19.7681969,27.5933471 C27.269127,21.2580217 35.9021712,14.5966086 36.8528328,0.0099851567 L36.8521825,0.00851736031 C34.3241405,16.5664225 25.60989,21.8918516 18.2040182,28.1364486 C10.9792649,33.6662205 3.72025885,39.1959923 1.13358793,50.6223451 Z M1.5164157,51.2246421 C1.38176229,51.2124297 1.28163068,51.1037385 1.21017505,50.912643 C1.26707332,51.0546955 1.36222993,51.2005581 1.5164157,51.2246421 Z" id="Combined-Shape"></path>
                </g>
            </g>
        </g>
    </g>
</svg>