<?xml version="1.0" encoding="UTF-8" standalone="no"?>
<svg width="263px" height="307px" viewBox="0 0 263 307" version="1.1" xmlns="http://www.w3.org/2000/svg" xmlns:xlink="http://www.w3.org/1999/xlink">
    <!-- Generator: Sketch 39.1 (31720) - http://www.bohemiancoding.com/sketch -->
    <title>Delights</title>
    <desc>Created with Sketch.</desc>
    <defs>
        <rect id="path-1" x="0" y="0" width="263" height="395"></rect>
    </defs>
    <g id="Landing-Page" stroke="none" stroke-width="1" fill="none" fill-rule="evenodd">
        <g id="EDIT-Website-Opening-•-Below-Fold-(1440x780)" transform="translate(0.000000, -285.000000)">
            <g id="Delights" transform="translate(0.000000, 197.000000)">
                <mask id="mask-2" fill="white">
                    <use xlink:href="#path-1"></use>
                </mask>
                <use id="Rectangle" fill-opacity="0" fill="#FFFFFF" xlink:href="#path-1"></use>
                <polygon id="Blue-Shadow" fill="#EFF7FF" mask="url(#mask-2)" transform="translate(98.858974, 205.000000) scale(-1, 1) translate(-98.858974, -205.000000) " points="262.794872 15 262.794872 395 -65.0769231 395"></polygon>
                <g id="Delight-on-Table" mask="url(#mask-2)">
                    <g transform="translate(-226.000000, 88.689623)" id="Page-1">
                        <g stroke-width="1" fill="none" transform="translate(292.000000, 0.087877)">
                            <path d="M32.4932097,61.3890226 L32.4932101,39.6114979 C32.2420504,35.0983663 23.8419015,30.700231 23.8419015,30.700231 C21.5746147,29.2429834 21.6727953,23.7929151 21.6727953,23.7929151 L21.2983391,4.69222606 C21.780109,4.50747798 21.7001946,4.01355965 21.7001946,4.01355965 L21.7001946,2.48278987 C21.7001946,1.64953833 21.3873866,1.62126056 21.3873866,1.62126056 L21.3873866,0.921857127 C21.2640901,-0.00753881514 19.9352271,1.92273028e-06 19.9352271,1.92273028e-06 L11.4620135,1.92273028e-06 C11.4620135,1.92273028e-06 10.1422837,-0.00753881514 10.0075708,0.921857127 L10.0075708,1.62126056 C10.0075708,1.62126056 9.69476285,1.64953833 9.69476285,2.48278987 L9.69476285,4.01355965 C9.69476285,4.01355965 9.61484841,4.49993725 10.0966183,4.69222606 L9.72216208,23.7929151 C9.72216208,23.7929151 9.82034268,29.2429834 7.5553392,30.700231 C7.5553392,30.700231 0.312807939,34.3028185 0.0639315496,38.8159501 L0,96.8004539 C0,96.8004539 1.23068233,100.416238 5.52094596,100.659427 C8.50061283,100.74803 8.46408052,100.732949 13.9233782,100.674508 L13.9599105,88.1474572 C13.9599105,88.1474572 13.0488859,88.1323758 12.567116,88.1399165 C10.0692191,88.1983572 4.63960389,87.4405131 4.63960389,87.4405131 L4.6464537,56.6158618 C4.6464537,56.6158618 10.2929795,57.9336058 15.8047924,58.0297502 C21.7983752,58.1315501 27.9266708,56.6158618 27.9266708,56.6158618 L27.92667,63.5946162 L32.4932097,61.3890226 Z" id="Fill-1" fill="#007AFF"></path>
                            <path d="M126.486389,50.8053038 C127.998681,50.1495232 131.323616,47.646069 131.355231,46.7557392 C131.384213,45.8678027 129.294931,46.7485591 129.294931,46.7485591 C129.985211,45.9443902 130.941591,42.0910811 130.130117,41.6339494 C128.791712,40.8680743 124.818652,44.8601983 124.881884,44.7477104 C124.931942,44.6352225 124.910865,43.2039934 124.26274,43.1489461 C123.614615,43.0915055 119.736402,48.1414944 119.736402,48.1414944 C119.715325,47.6269221 119.528264,47.1219232 119.230548,46.3536547 C118.932832,45.5877796 118.458594,46.0090109 117.647121,47.4761404 C116.843551,48.9456633 115.104678,50.9273651 113.054917,52.5524563 C111.00779,54.1799409 107.930512,55.5345825 107.962128,55.0965977 C107.993744,54.6562195 109.977639,50.5707545 112.583313,48.3545034 C115.186353,46.1406457 118.664097,45.4752917 120.342373,44.6998432 C122.020648,43.9243946 122.668773,43.474443 122.718832,43.0723586 C122.771525,42.6702741 121.032652,42.8306292 121.032652,42.7181413 C121.022114,42.59608 121.514794,42.29691 123.501324,41.4568408 C125.477316,40.6143782 123.008644,40.353502 123.472343,40.0998058 C124.48932,39.5493331 125.561625,37.9218485 125.427257,37.6609723 C125.282351,37.3977027 123.348514,37.5843848 122.102322,38.0534833 C120.856131,38.5201884 117.502215,40.7172926 117.410002,40.5210371 C117.317789,40.3247816 118.624578,39.5756601 121.504256,37.6131051 C124.386569,35.6505502 125.530009,33.3601049 125.487854,32.8168123 C125.437796,32.275913 121.422581,33.1351291 121.525333,33.1255557 C121.628085,33.1159822 125.653838,29.6288572 125.643299,29.068811 C125.63276,28.4991914 123.809579,28.7409207 123.809579,28.7409207 C124.592072,27.6854491 125.045232,24.6458823 124.33651,24.1600303 C123.625153,23.6741782 121.361984,25.3567101 121.361984,25.3567101 C121.361984,25.3567101 121.217078,24.6746026 120.753379,24.684176 C120.292314,24.6937495 118.901216,27.5083405 118.901216,27.5083405 C118.901216,27.5083405 118.840619,27.1708768 118.500749,26.3379876 C118.15034,25.5074918 117.892143,25.4979183 117.049054,26.2350731 C116.205964,26.9746213 115.001927,30.4425995 115.001927,30.4425995 C114.959772,29.6958712 114.98085,27.0488154 113.642445,26.8717068 C112.30404,26.6945982 110.451877,30.4425995 109.761598,33.5276401 C109.063414,36.6126808 109.010721,35.6314033 108.805218,33.0896553 C108.599715,30.5550874 107.632796,29.1525786 107.045268,29.1334317 C106.460375,29.1142848 106.202178,30.0309416 105.862308,31.1821476 C105.646266,31.9384493 105.727941,32.2088989 105.224721,31.4621707 C104.328939,30.1338561 103.741411,30.8734042 103.844162,31.8451082 C103.946914,32.8168123 104.43169,35.1359778 104.43169,35.1359778 C104.43169,35.1359778 103.896855,33.9680183 102.806108,33.1255557 C101.715361,32.275913 101.085678,32.9101533 101.241123,34.4825906 C101.396567,36.0526346 102.055231,42.4189714 102.136906,45.2598893 C102.208041,48.1032007 100.614075,53.2920045 100.614075,53.2920045 C99.9949309,49.3190274 96.6726307,40.0998058 95.7663093,40.0256117 C94.8599879,39.9514175 94.6123304,41.6339494 94.6123304,41.6339494 C94.3462302,40.4827434 93.7191823,38.8193584 93.1421928,38.6422498 C92.8339381,38.5489088 92.1937169,39.295637 92.1937169,39.295637 C91.474456,38.5489088 89.9937798,37.2110207 89.2218259,37.6131051 C88.4498719,38.0151895 88.7581266,39.9418441 88.7581266,39.9418441 C87.6673793,39.5397597 87.5119347,39.8102093 87.9229409,40.6239516 C88.3365817,41.4376939 89.6012162,42.8856765 89.6012162,42.8856765 C89.6012162,42.8856765 89.4167904,42.7085679 88.4683145,42.3902511 C87.5224733,42.0719342 87.1114671,41.7081436 87.348586,42.7564351 C87.5830704,43.8119067 89.6618133,47.0932029 89.6618133,47.0932029 C89.6618133,47.0932029 88.4498719,46.0185844 87.0087155,45.2527093 C85.5675591,44.4940142 84.0552671,43.8956743 83.6021064,44.5035877 C83.1489457,45.111501 84.3424445,47.7298365 84.3424445,47.7298365 L83.0672714,47.8877983 C83.0672714,47.8877983 82.3242986,47.9165186 84.7745279,49.9173673 C85.4753462,50.4869869 86.3605904,51.1499476 86.7505193,51.432364 C86.5555548,51.4036437 86.1735298,51.4036437 85.4648076,51.458691 C83.2411586,51.6645199 83.4782776,52.6936646 85.8547366,53.5169803 C88.0889241,54.2828554 90.0754542,54.8716219 91.948694,55.730838 C93.8219338,56.6020209 94.3962886,57.0136788 96.5171861,59.3136975 C98.7513736,61.7333841 100.511323,64.5025013 99.1096867,67.7550771 C98.0004969,70.3351189 97.1336954,70.5600947 97.1336954,70.5600947 C95.5186517,72.158859 92.2674873,72.158859 92.2674873,72.158859 L91.5271492,74.5426452 C91.5271492,74.5426452 94.1697083,75.160132 95.776848,74.2626221 C98.0004969,73.0180751 101.085678,72.0176508 101.828651,67.195031 C102.763953,61.1254708 111.624299,61.6974837 116.956841,61.5371286 C122.297287,61.3791669 124.22322,60.7999739 124.26274,60.3045484 C124.304894,59.8091229 124.025621,59.423792 124.025621,59.423792 C124.921404,59.0504279 126.805182,58.2199321 126.734046,56.9011909 C126.660276,55.5824497 119.715325,56.788703 119.715325,56.788703 C120.073638,56.6379213 123.171992,55.7978521 126.188673,54.5437316 C129.213257,53.2920045 130.530584,52.011557 130.509507,50.9369385 C130.427833,49.8982204 126.486389,50.8053038 126.486389,50.8053038 L126.486389,50.8053038 Z" id="Fill-2" fill="#007AFF"></path>
                            <path d="M148.604037,96.341432 L18.2039818,96.341432 C16.8085896,96.341432 15.9009326,97.7757508 15.9009326,99.052557 C15.9009326,100.329363 17.0328956,101.355581 18.4282879,101.355581 L148.81791,101.355581 C150.215911,101.355581 151.345266,100.322204 151.345266,99.052557 C151.345266,97.7757508 149.991605,96.341432 148.604037,96.341432 L148.604037,96.341432 Z M183.674026,67.0966033 C183.154992,64.9152933 181.78829,63.1158318 179.832133,62.0251768 C178.955774,61.5311602 178.040293,61.2232948 177.163934,61.0371436 C177.325643,57.6792626 176.224979,53.2617517 171.264164,51.741517 C167.250129,50.5196015 163.08221,51.9563068 160.891313,55.34044 C159.568951,57.3809433 159.52722,59.7579508 159.73066,61.3903535 C155.095871,63.4976804 146.240999,67.1156958 141.890505,66.9939815 C139.292728,66.9176118 136.428914,66.2278978 133.403391,65.4928393 C129.256337,64.4857136 124.571992,63.3473275 119.485983,63.5812098 C111.692653,63.9344197 105.560752,66.5930405 101.259814,71.4592235 C94.4654272,79.1582456 94.6584347,89.7951153 94.6688675,90.2437874 C94.6975578,91.491955 95.819088,91.6876524 97.1936146,91.6876524 L144.284842,91.6876524 C145.140335,91.6876524 145.935839,92.0981396 146.405316,91.4466105 C146.454872,91.3726273 152.018184,83.6067816 156.978999,80.2775393 C160.667007,77.8074562 164.621053,76.2681291 166.444192,75.6356924 C167.625711,76.2132384 169.634033,77.043759 172.038802,77.4542463 C176.144124,78.1535065 180.210323,76.6881626 182.398611,73.7240629 C183.744447,71.905509 184.224358,69.4258797 183.674026,67.0966033 L183.674026,67.0966033 Z M121.645581,73.1847018 C111.763074,72.3899794 109.034887,79.1319935 109.003588,79.1964305 C108.635831,80.1391192 107.657752,80.7262114 106.630118,80.7262114 C106.343214,80.7262114 106.05892,80.6784803 105.782449,80.5854047 C104.47052,80.155825 103.787169,78.8336743 104.256647,77.6308513 C105.631173,74.1059115 111.131888,67.6836955 122.094193,68.569107 C123.481761,68.681275 124.509395,69.8005687 124.38681,71.0773749 C124.264224,72.3541811 123.054014,73.2944832 121.645581,73.1847018 L121.645581,73.1847018 Z M180.301611,72.883996 C178.345453,75.3469194 174.962605,75.26339 172.842131,74.8982473 C170.082645,74.4328693 167.839584,72.2229206 167.829151,72.2133744 C167.187532,71.8124334 166.618942,72.3255424 165.872994,72.5498785 C165.753016,72.5880633 164.021165,73.4901806 161.718116,74.4519618 C161.718116,74.4519618 158.78388,73.6691722 157.56063,71.2444336 C156.214793,68.5786532 156.705137,65.1849739 156.705137,65.1849739 C159.169895,64.1492096 160.108851,63.7124702 161.767672,62.9201344 C162.81878,62.4070254 163.348247,61.2877317 163.011788,60.2448078 C162.837038,59.6839676 162.370168,58.2019178 163.275217,56.8033974 C164.039423,55.6292129 165.497412,54.4908268 167.698741,54.3142219 C173.322041,53.8679363 174.759165,59.6386231 174.626146,61.232841 C173.434194,61.6051433 170.184365,62.5549917 170.447794,63.7124702 C170.74513,64.9606378 172.445683,64.1873944 173.809776,63.9344197 C174.258389,63.8413441 177.38824,63.9439659 178.70017,64.7195959 C180.413764,65.724335 180.992786,67.4307209 181.146671,68.0941828 C181.412708,69.1848378 181.370977,71.5427528 180.301611,72.883996 L180.301611,72.883996 Z" id="Fill-3" fill="#007AFF"></path>
                            <path d="M40.6420529,66.0125031 C39.8569347,65.8172431 39.2857025,65.4457729 39.0718164,64.8957112 C38.5423181,63.5765157 40.2847067,61.7977449 42.9452402,60.9047876 C45.6135988,60.0213552 48.1906646,60.366632 48.7201629,61.6786839 C49.2001023,62.8788185 47.7941929,64.4766166 45.5118725,65.4171983 C50.0869468,64.859993 87.2144308,60.6833342 90.5661813,60.2094716 C80.9700022,48.9986908 62.4245187,47.5104287 62.4245187,47.5104287 L20.3854812,68.1794127 C20.3854812,68.1794127 17.6153963,68.7389993 40.6420529,66.0125031 L40.6420529,66.0125031 Z M65.7788776,49.4939845 C68.4472362,48.6081709 72.8579834,49.8273552 74.0500068,50.7107876 C76.2123423,52.3204918 77.7304114,54.525501 72.9518846,56.0423377 C69.2010541,57.2329474 65.909296,55.2589165 64.4016603,53.9301961 C63.3009298,52.9538962 63.1183442,50.3774168 65.7788776,49.4939845 L65.7788776,49.4939845 Z M20.049002,75.3516454 C20.5498083,75.2397281 21.0793066,75.1921037 21.6192384,75.2302032 C24.3397643,75.444513 26.3351644,77.7519145 26.0821529,80.3736371 C25.826533,82.9977408 24.9709889,84.9503407 22.250463,84.726506 C21.9139838,84.7003126 20.711527,84.6431634 20.3959147,84.5598207 L20.3854812,91.8534956 L46.6517285,91.8344458 C47.4577137,89.6103869 51.2476697,85.6289882 55.2228198,85.9456903 C58.7988898,86.2338179 60.4499856,89.6484864 61.2637958,91.6653792 L87.4804842,91.7225285 L88.1012753,85.638513 C87.6630698,85.6956623 87.2248643,85.7051872 86.7657918,85.6670877 C83.2105887,85.3789601 80.5917891,82.3643364 80.9282683,78.9329993 C81.2543141,75.499281 84.4026121,72.9418514 87.9682486,73.229979 C88.4273211,73.2680785 88.8655266,73.3514212 89.2828652,73.4728634 L90.4044626,61.7620266 L20.234196,69.7248241 L20.049002,75.3516454 Z M67.0830607,74.9420757 C71.4833745,74.9420757 73.9482805,79.0258669 73.6039761,81.6404457 C73.1136033,85.3599104 69.8531456,87.5934941 66.2666421,87.5934941 C62.5184199,87.5934941 59.5813996,83.9740407 59.5813996,81.3404121 C59.5813996,75.9826686 64.3521013,74.9420757 67.0830607,74.9420757 L67.0830607,74.9420757 Z M39.5830562,69.6676748 C42.3035821,69.8819846 44.2989822,72.1893861 44.0433624,74.8111086 C43.7903508,77.4352124 41.3854372,79.3878122 38.6649113,79.1639776 C35.9443854,78.9520491 33.9463769,76.6446475 34.2019968,74.0205438 C34.4576167,71.3988213 36.8625303,69.4533651 39.5830562,69.6676748 L39.5830562,69.6676748 Z" id="Fill-4" fill="#007AFF"></path>
                        </g>
                        <path d="M280.152386,102.826229 L209.848362,102.826229 L6.30352384,102.826229 C2.98791652,102.826229 0.300085726,105.518672 0.300085726,108.82658 L0.300085726,160.912932 C0.300085726,164.226834 2.9934922,166.913283 6.29233716,166.913283 L8.45676201,166.913283 L8.45676201,306.739584 L49.2401434,306.739584 L49.2401434,166.913283 L51.4045683,166.913283 C54.7139973,166.913283 57.3968197,164.224972 57.3968197,160.91275 L57.3968197,137.782804 L106.186795,137.782804 C121.756258,143.13349 138.8135,149.03416 155.864216,154.860256 C214.996856,175.195661 272.541449,194.919248 272.541449,194.919248 C275.674511,195.993347 280.666557,195.749605 283.675866,194.381938 L408.212204,137.782804 L432.603929,137.782804 L432.603929,160.91275 C432.603929,164.226753 435.297335,166.913283 438.59618,166.913283 L440.760605,166.913283 L440.760605,306.739584 L481.543986,306.739584 L481.543986,166.913283 L483.708411,166.913283 C487.01784,166.913283 489.700663,164.22084 489.700663,160.912932 L489.700663,108.82658 C489.700663,105.512677 487.013008,102.826229 483.697225,102.826229 L280.152386,102.826229 Z M364.98182,114.47842 L282.507739,151.956052 C279.487879,153.328328 274.503342,153.570977 271.354988,152.491237 C271.354988,152.491237 211.303513,131.900777 160.653816,114.47842 L364.98182,114.47842 Z M32.9267909,295.087392 L24.7701146,295.087392 L24.7701146,166.913283 L32.9267909,166.913283 L32.9267909,295.087392 Z M41.0834671,155.261091 L16.6134383,155.261091 L16.6134383,137.782804 L41.0834671,137.782804 L41.0834671,155.261091 Z M16.6134383,126.130612 L16.6134383,114.47842 L39.7849243,114.47842 C45.1618053,116.701659 54.9498168,120.066812 72.4116294,126.130612 L16.6134383,126.130612 Z M282.53564,181.0851 C279.514786,182.458166 274.518981,182.697449 271.38223,181.621184 C271.38223,181.621184 127.139665,132.138482 76.1571751,114.47842 L123.054801,114.47842 C190.76174,137.782804 272.441839,165.78975 272.441839,165.78975 C275.572253,166.863307 280.558423,166.621287 283.567859,165.254136 L395.337706,114.47842 L429.034567,114.47842 L389.399646,132.483387 L377.804115,137.782804 L282.53564,181.0851 Z M465.230634,295.087392 L457.073958,295.087392 L457.073958,166.913283 L465.230634,166.913283 L465.230634,295.087392 Z M473.38731,155.261091 L448.917281,155.261091 L448.917281,137.782804 L473.38731,137.782804 L473.38731,155.261091 Z M433.830693,126.130612 L446.21579,120.48629 L459.442656,114.47842 L473.38731,114.47842 L473.38731,126.130612 L433.830693,126.130612 Z" fill="#007AFF"></path>
                    </g>
                </g>
            </g>
        </g>
    </g>
</svg>