<svg id="SvgjsSvg1000" xmlns="http://www.w3.org/2000/svg" version="1.1" xmlns:xlink="http://www.w3.org/1999/xlink" xmlns:svgjs="http://svgjs.com/svgjs" width="471" height="355"><defs id="SvgjsDefs1001"></defs><path id="SvgjsPath1007" d="M125 356C125 352.68629 127.68629 350 131 350L332 350C335.31371 350 338 352.68629 338 356L338 514C338 517.31371 335.31371 520 332 520L131 520C127.68629 520 125 517.31371 125 514Z " fill="#007aff" fill-opacity="1" transform="matrix(1,0,0,1,-125,-350)"></path><path id="SvgjsPath1008" d="M208 388.89C208 402.64 234.09 434 234.09 434C234.09 434 258.64 402.64 258.64 388.89C258.64 375.14 247.29999999999998 364 233.32 364C219.32999999999998 364 208 375.14 208 388.89ZM253.5 388.89C253.5 399.84999999999997 244.46 408.72999999999996 233.32 408.72999999999996C222.17 408.72999999999996 213.14 399.84999999999997 213.14 388.89C213.14 377.94 222.17 369.05 233.32 369.05C244.45999999999998 369.05 253.5 377.94 253.5 388.89Z " fill="#ffffff" fill-opacity="1" transform="matrix(1,0,0,1,-125,-350)"></path><path id="SvgjsPath1009" d="M224 386.52C224 391.21 227.92 395.03999999999996 232.71 395.03999999999996C234.67000000000002 395.03999999999996 236.48000000000002 394.4 237.94 393.31999999999994L242.95 398.2199999999999L244.57 396.62999999999994L239.57999999999998 391.74999999999994C240.73 390.29999999999995 241.42 388.48999999999995 241.42 386.5199999999999C241.42 381.81999999999994 237.51 377.99999999999994 232.70999999999998 377.99999999999994C227.92 377.99999999999994 223.99999999999997 381.81999999999994 223.99999999999997 386.5199999999999ZM239.13 386.51C239.13 389.98 236.26999999999998 392.78 232.71 392.78C229.15 392.78 226.29000000000002 389.97999999999996 226.29000000000002 386.51C226.29000000000002 383.05 229.15000000000003 380.25 232.71 380.25C236.27 380.25 239.13 383.05 239.13 386.51Z " fill="#ffffff" fill-opacity="1" transform="matrix(1,0,0,1,-125,-350)"></path><path id="SvgjsPath1010" d="M279.95 463.13L278.08 461.08C276.5 462.59999999999997 274.63 463.13 272.7 463.13C269.17 463.13 266.84999999999997 460.95 266.84999999999997 458.23C266.84999999999997 455.73 268.54999999999995 454.58000000000004 270.59999999999997 453.45000000000005L270.91999999999996 453.28000000000003C269.79999999999995 452.03000000000003 268.69999999999993 450.6 268.69999999999993 448.88000000000005C268.69999999999993 446.70000000000005 270.2299999999999 445.00000000000006 273.1499999999999 445.00000000000006C275.9199999999999 445.00000000000006 277.44999999999993 446.70000000000005 277.44999999999993 448.88000000000005C277.44999999999993 450.88000000000005 276.2299999999999 452.33000000000004 273.69999999999993 453.70000000000005L273.66999999999996 453.73L277.94999999999993 458.38C278.5799999999999 457.4 279.0799999999999 456.15 279.41999999999996 454.6L281.24999999999994 454.6C280.74999999999994 456.78000000000003 280.04999999999995 458.45000000000005 279.19999999999993 459.70000000000005L281.2699999999999 461.95000000000005ZM188.8 453.23C192.05 453.93 194.08 455.25 194.08 458.25C194.08 461.35 191.58 463.1 187.55 463.1C183.38000000000002 463.1 181.33 461.03000000000003 181 457.98L183.1 457.98C183.4 459.85 184.45 461.33000000000004 187.54999999999998 461.33000000000004C190.64999999999998 461.33000000000004 191.98 460.15000000000003 191.98 458.25000000000006C191.98 456.20000000000005 190.53 455.3500000000001 188.63 454.95000000000005L186.1 454.43000000000006C183.18 453.80000000000007 181.45 452.38000000000005 181.45 449.7800000000001C181.45 447.1300000000001 183.48 445.2000000000001 187.39999999999998 445.2000000000001C191.14999999999998 445.2000000000001 193.12999999999997 446.9000000000001 193.48 449.6800000000001L191.39999999999998 449.6800000000001C191.14999999999998 448.0800000000001 190.14999999999998 446.98000000000013 187.39999999999998 446.98000000000013C184.54999999999998 446.98000000000013 183.54999999999998 448.3000000000001 183.54999999999998 449.8000000000001C183.54999999999998 451.2500000000001 184.38 452.3000000000001 186.48 452.73000000000013ZM224.45 477.75C227.17999999999998 477.75 230.1 479.78 230.1 484.4C230.1 489.08 227.2 491.08 224.45 491.08C222.25 491.08 220.78 489.95 220.13 488.33L220.13 495.65L218.2 495.65L218.2 477.9L220.13 477.9L220.13 480.34999999999997C220.93 478.7 222.35 477.74999999999994 224.45 477.74999999999994ZM202.7 489.05L202.7 490.90000000000003L191.39999999999998 490.90000000000003L191.39999999999998 473.40000000000003L202.45 473.40000000000003L202.45 475.25000000000006L193.42999999999998 475.25000000000006L193.42999999999998 481.03000000000003L200.95 481.03000000000003L200.95 482.78000000000003L193.42999999999998 482.78000000000003L193.42999999999998 489.05ZM252 449.78C254.6 449.78 256.65 451.04999999999995 256.65 454.95L256.65 462.9L254.73 462.9L254.73 455.08C254.73 452.33 253.32999999999998 451.47999999999996 251.53 451.47999999999996C248.98 451.47999999999996 247.63 453.59999999999997 247.38 454.84999999999997L247.38 462.9L245.45 462.9L245.45 445.4L247.38 445.4L247.38 452.9C247.68 451.95 249.18 449.78 252 449.78ZM242.53 477.75C245.38 477.75 248.55 479.8 248.55 484.43C248.55 489.08 245.38000000000002 491.13 242.53 491.13C239.68 491.13 236.53 489.08 236.53 484.43C236.53 479.8 239.68 477.75 242.53 477.75ZM220.38 460.6C220.38 461.33000000000004 220.65 461.6 221.4 461.58000000000004L221.4 462.90000000000003C221.08 463.00000000000006 220.88 463.03000000000003 220.55 463.03000000000003C219.33 463.03000000000003 218.63000000000002 462.53000000000003 218.63000000000002 461.15000000000003L218.63000000000002 460.25000000000006C218.28000000000003 460.9800000000001 216.88000000000002 463.13000000000005 213.73000000000002 463.13000000000005C211.25000000000003 463.13000000000005 209.4 461.8500000000001 209.4 459.33000000000004C209.4 456.98 211.05 455.80000000000007 213.9 455.43000000000006C215.4 455.2300000000001 217.53 455.0300000000001 218.45000000000002 454.5300000000001L218.45000000000002 454.2500000000001C218.45000000000002 451.9300000000001 217.38000000000002 451.2800000000001 215.23000000000002 451.2800000000001C213.25000000000003 451.2800000000001 212.25000000000003 451.93000000000006 212.05 453.1000000000001L210.20000000000002 453.1000000000001C210.48000000000002 450.88000000000005 212.33 449.75000000000006 215.25000000000003 449.75000000000006C218.70000000000002 449.75000000000006 220.38000000000002 451.05000000000007 220.38000000000002 454.70000000000005ZM207.75 457.1L197.85 457.1C198.1 460.18 200 461.53000000000003 202.15 461.53000000000003C203.55 461.53000000000003 204.65 461.15000000000003 205.48000000000002 460.05L207.35000000000002 460.05C206.25000000000003 462.28000000000003 204.53000000000003 463.13 202.00000000000003 463.13C199.05000000000004 463.13 195.95000000000002 461.1 195.95000000000002 456.43C195.95000000000002 451.83 199.00000000000003 449.75 201.95000000000002 449.75C204.98000000000002 449.75 207.75000000000003 451.78 207.75000000000003 456.5ZM271.25 485.1L261.35 485.1C261.6 488.18 263.5 489.53000000000003 265.65000000000003 489.53000000000003C267.05 489.53000000000003 268.15000000000003 489.15000000000003 268.98 488.05L270.85 488.05C269.75 490.28000000000003 268.02000000000004 491.13 265.5 491.13C262.55 491.13 259.45 489.1 259.45 484.43C259.45 479.83 262.5 477.75 265.45 477.75C268.47999999999996 477.75 271.25 479.78 271.25 484.5ZM213.95 490.9L210.25 485.72999999999996L206.53 490.9L204.4 490.9L209.18 484.22999999999996L204.63 477.9L206.78 477.9L210.25 482.72999999999996L213.73 477.9L215.85 477.9L211.32999999999998 484.22999999999996L216.1 490.9ZM238.15 461.53C240.05 461.53 241.08 460.72999999999996 241.65 459.25L243.43 459.25C242.63 462.13 240.55 463.13 238.13 463.13C235.18 463.13 232.18 461.13 232.18 456.43C232.18 451.73 235.18 449.75 238.13 449.75C240.51999999999998 449.75 242.54999999999998 450.73 243.38 453.53L241.6 453.53C241.01999999999998 452.13 240 451.34999999999997 238.15 451.34999999999997C235.95000000000002 451.34999999999997 234.08 452.92999999999995 234.08 456.42999999999995C234.08 459.92999999999995 235.95000000000002 461.53 238.15 461.53ZM229.83 449.78C230.15 449.78 230.43 449.79999999999995 230.78 449.83L230.78 451.53C230.45 451.5 230.2 451.5 229.9 451.5C227.35 451.53 225.8 452.98 225.33 455.3L225.33 462.90000000000003L223.4 462.90000000000003L223.4 449.90000000000003L225.33 449.90000000000003L225.33 453.13000000000005C225.73000000000002 451.3500000000001 227.35000000000002 449.78000000000003 229.83 449.78000000000003ZM257.1 477.78C257.42 477.78 257.70000000000005 477.79999999999995 258.05 477.83L258.05 479.53C257.73 479.5 257.48 479.5 257.17 479.5C254.63000000000002 479.53 253.08 480.98 252.60000000000002 483.3L252.60000000000002 490.90000000000003L250.68000000000004 490.90000000000003L250.68000000000004 477.90000000000003L252.60000000000002 477.90000000000003L252.60000000000002 481.13000000000005C253.00000000000003 479.3500000000001 254.63000000000002 477.78000000000003 257.1 477.78000000000003ZM246.65 484.43C246.65 480.90000000000003 244.65 479.35 242.53 479.35C240.43 479.35 238.43 480.90000000000003 238.43 484.43C238.43 487.95 240.43 489.53000000000003 242.53 489.53000000000003C244.65 489.53000000000003 246.65 487.95000000000005 246.65 484.43ZM224.15 489.43C226.3 489.43 228.20000000000002 487.98 228.20000000000002 484.40000000000003C228.20000000000002 480.85 226.3 479.40000000000003 224.15 479.40000000000003C221.98000000000002 479.40000000000003 220.03 480.83000000000004 220.03 484.40000000000003C220.03 487.93 221.95 489.43 224.15 489.43ZM272.8 461.33C274.27000000000004 461.33 275.67 460.84999999999997 276.85 459.75L272.1 454.55L271.42 454.93C269.85 455.75 268.92 456.75 268.92 458.13C268.92 459.9 270.42 461.33 272.8 461.33ZM218.45 455.9C217.73 456.29999999999995 215.98 456.53 213.88 456.83C212.04999999999998 457.09999999999997 211.35 457.88 211.35 459.25C211.35 460.68 212.29999999999998 461.6 214.03 461.6C216.83 461.6 218.13 459.5 218.45 458.8ZM201.95 451.35C199.92999999999998 451.35 198.1 452.75 197.85 455.75L205.85 455.75C205.7 452.75 204.03 451.35 201.95 451.35ZM234.25 473.4L234.25 490.9L232.33 490.9L232.33 473.4ZM270.4 448.85C270.4 450.15000000000003 271.34999999999997 451.23 272.5 452.45000000000005L272.85 452.25000000000006C274.65000000000003 451.33000000000004 275.77000000000004 450.33000000000004 275.77000000000004 448.8500000000001C275.77000000000004 447.43000000000006 274.8 446.4800000000001 273.15000000000003 446.4800000000001C271.45000000000005 446.4800000000001 270.40000000000003 447.43000000000006 270.40000000000003 448.8500000000001ZM265.45 479.35C263.43 479.35 261.59999999999997 480.75 261.34999999999997 483.75L269.34999999999997 483.75C269.2 480.75 267.52 479.35 265.45 479.35Z " fill="#ffffff" fill-opacity="1" transform="matrix(1,0,0,1,-125,-350)"></path><path id="SvgjsPath1011" d="M125 541C125 537.68629 127.68629 535 131 535L332 535C335.31371 535 338 537.68629 338 541L338 699C338 702.31371 335.31371 705 332 705L131 705C127.68629 705 125 702.31371 125 699Z " fill="#007aff" fill-opacity="1" transform="matrix(1,0,0,1,-125,-350)"></path><path id="SvgjsPath1012" d="M213.76 550.54C213.76 549.6999999999999 213.07 549 212.20999999999998 549C211.35999999999999 549 210.65999999999997 549.7 210.65999999999997 550.54L210.65999999999997 558.9599999999999C206.86999999999998 559.66 203.99999999999997 562.9799999999999 203.99999999999997 566.9899999999999C203.99999999999997 571.0099999999999 206.86999999999998 574.2499999999999 210.65999999999997 575.0299999999999L210.65999999999997 616.9599999999998C210.65999999999997 617.7999999999998 211.35999999999996 618.4999999999998 212.20999999999998 618.4999999999998C213.07 618.4999999999998 213.76 617.7999999999997 213.76 616.9599999999998L213.76 574.9499999999998C217.56 574.2499999999998 220.42999999999998 570.9299999999998 220.42999999999998 566.9099999999999C220.42999999999998 562.8999999999999 217.55999999999997 559.6599999999999 213.76 558.9599999999998ZM207.1 566.92C207.1 564.14 209.43 561.8199999999999 212.21 561.8199999999999C215 561.8199999999999 217.33 564.14 217.33 566.92C217.33 569.6999999999999 215 572.01 212.21 572.01C209.43 572.01 207.1 569.7 207.1 566.92Z " fill="#ffffff" fill-opacity="1" transform="matrix(1,0,0,1,-125,-350)"></path><path id="SvgjsPath1013" d="M232.76 550.54C232.76 549.6999999999999 232.07 549 231.20999999999998 549C230.35999999999999 549 229.65999999999997 549.7 229.65999999999997 550.54L229.65999999999997 594.49C225.86999999999998 595.1800000000001 222.99999999999997 598.5 222.99999999999997 602.52C222.99999999999997 606.53 225.86999999999998 609.78 229.65999999999997 610.55L229.65999999999997 616.9599999999999C229.65999999999997 617.8 230.35999999999996 618.4999999999999 231.20999999999998 618.4999999999999C232.07 618.4999999999999 232.76 617.7999999999998 232.76 616.9599999999999L232.76 610.4699999999999C236.56 609.7699999999999 239.42999999999998 606.4499999999999 239.42999999999998 602.4399999999999C239.42999999999998 598.42 236.55999999999997 595.18 232.76 594.4899999999999ZM226.1 602.44C226.1 599.6600000000001 228.43 597.34 231.21 597.34C234 597.34 236.33 599.6600000000001 236.33 602.44C236.33 605.22 234 607.5400000000001 231.21 607.5400000000001C228.43 607.5400000000001 226.1 605.22 226.1 602.44Z " fill="#ffffff" fill-opacity="1" transform="matrix(1,0,0,1,-125,-350)"></path><path id="SvgjsPath1014" d="M252.76 574.33L252.76 550.5400000000001C252.76 549.7 252.07 549.0000000000001 251.20999999999998 549.0000000000001C250.35999999999999 549.0000000000001 249.65999999999997 549.7000000000002 249.65999999999997 550.5400000000001L249.65999999999997 574.4100000000001C245.86999999999998 575.1000000000001 242.99999999999997 578.4200000000001 242.99999999999997 582.44C242.99999999999997 586.3800000000001 245.86999999999998 589.7 249.65999999999997 590.47L249.65999999999997 616.96C249.65999999999997 617.8000000000001 250.35999999999996 618.5 251.20999999999998 618.5C252.07 618.5 252.76 617.8 252.76 616.96L252.76 590.39C256.56 589.6899999999999 259.43 586.38 259.43 582.36C259.43 578.42 256.56 575.1 252.76000000000002 574.33ZM246.1 582.36C246.1 579.58 248.43 577.27 251.21 577.27C254 577.27 256.33 579.5799999999999 256.33 582.36C256.33 585.14 253.99999999999997 587.46 251.20999999999998 587.46C248.42999999999998 587.46 246.09999999999997 585.14 246.09999999999997 582.36Z " fill="#ffffff" fill-opacity="1" transform="matrix(1,0,0,1,-125,-350)"></path><path id="SvgjsPath1015" d="M249.53 652.03C252.78 652.73 254.8 654.05 254.8 657.05C254.8 660.15 252.3 661.9 248.28 661.9C244.1 661.9 242.05 659.8299999999999 241.73 656.78L243.82999999999998 656.78C244.13 658.65 245.17999999999998 660.13 248.27999999999997 660.13C251.37999999999997 660.13 252.69999999999996 658.95 252.69999999999996 657.05C252.69999999999996 655 251.24999999999997 654.15 249.34999999999997 653.75L246.82999999999996 653.23C243.89999999999995 652.6 242.17999999999995 651.1700000000001 242.17999999999995 648.58C242.17999999999995 645.9200000000001 244.19999999999996 644 248.12999999999994 644C251.87999999999994 644 253.84999999999994 645.7 254.19999999999993 648.48L252.12999999999994 648.48C251.87999999999994 646.88 250.87999999999994 645.78 248.12999999999994 645.78C245.27999999999994 645.78 244.27999999999994 647.1 244.27999999999994 648.6C244.27999999999994 650.0500000000001 245.09999999999994 651.1 247.19999999999993 651.53ZM180.03 646.05L180.03 652.13L187.25 652.13L187.25 653.88L180.03 653.88L180.03 661.7L178 661.7L178 644.2L188.9 644.2L188.9 646.0500000000001ZM262.67 648.55C265.52000000000004 648.55 268.7 650.5999999999999 268.7 655.2299999999999C268.7 659.8799999999999 265.52 661.93 262.67 661.93C259.83000000000004 661.93 256.67 659.88 256.67 655.2299999999999C256.67 650.5999999999999 259.83000000000004 648.55 262.67 648.55ZM219.85 655.9L209.95 655.9C210.2 658.98 212.1 660.3299999999999 214.25 660.3299999999999C215.65 660.3299999999999 216.75 659.9499999999999 217.58 658.8499999999999L219.45000000000002 658.8499999999999C218.35000000000002 661.0799999999999 216.63000000000002 661.93 214.10000000000002 661.93C211.15000000000003 661.93 208.05 659.9 208.05 655.2299999999999C208.05 650.6299999999999 211.10000000000002 648.55 214.05 648.55C217.08 648.55 219.85000000000002 650.5799999999999 219.85000000000002 655.3ZM232.85 661.7L230.95 661.7L237.73 644.2L239.64999999999998 644.2ZM204.78 660.2C205.4 660.2 205.85 660.13 206.4 660.0300000000001L206.4 661.58C205.85 661.7800000000001 205.13 661.85 204.3 661.85C202.9 661.85 201.75 661.35 201.75 659.25L201.75 650.3L199.88 650.3L199.88 648.6999999999999L201.75 648.6999999999999L201.75 645.4499999999999L203.68 645.4499999999999L203.68 648.6999999999999L206.18 648.6999999999999L206.18 650.3L203.68 650.3L203.68 659.18C203.68 659.9 203.98000000000002 660.1999999999999 204.78 660.1999999999999ZM228.43 648.58C228.75 648.58 229.02 648.6 229.38 648.63L229.38 650.33C229.04999999999998 650.3000000000001 228.79999999999998 650.3000000000001 228.5 650.3000000000001C225.95 650.33 224.4 651.7800000000001 223.93 654.1L223.93 661.7L222 661.7L222 648.7L223.93 648.7L223.93 651.9200000000001C224.33 650.1500000000001 225.95000000000002 648.58 228.43 648.58ZM277.25 648.58C277.58 648.58 277.85 648.6 278.2 648.63L278.2 650.33C277.88 650.3000000000001 277.63 650.3000000000001 277.33 650.3000000000001C274.77 650.33 273.22999999999996 651.7800000000001 272.75 654.1L272.75 661.7L270.83 661.7L270.83 648.7L272.75 648.7L272.75 651.9200000000001C273.15 650.1500000000001 274.77 648.58 277.25 648.58ZM266.8 655.23C266.8 651.7 264.8 650.15 262.67 650.15C260.58000000000004 650.15 258.58000000000004 651.6999999999999 258.58000000000004 655.23C258.58000000000004 658.75 260.58000000000004 660.33 262.67 660.33C264.8 660.33 266.8 658.75 266.8 655.23ZM214.05 650.15C212.02 650.15 210.20000000000002 651.55 209.95000000000002 654.55L217.95000000000002 654.55C217.8 651.55 216.13000000000002 650.15 214.05 650.15ZM197.93 644.2L197.93 661.7L196 661.7L196 644.2ZM193.1 648.7L193.1 661.7L191.18 661.7L191.18 648.7ZM193.1 644.2L193.1 646.08L191.18 646.08L191.18 644.2ZM283.08 659.18L283.08 650.3L285.58 650.3L285.58 648.6999999999999L283.08 648.6999999999999L283.08 645.4499999999999L281.15 645.4499999999999L281.15 648.6999999999999L279.27 648.6999999999999L279.27 650.3L281.15 650.3L281.15 659.25C281.15 661.35 282.29999999999995 661.85 283.7 661.85C284.52 661.85 285.25 661.78 285.8 661.58L285.8 660.0300000000001C285.25 660.1300000000001 284.8 660.2 284.18 660.2C283.38 660.2 283.08 659.9000000000001 283.08 659.1800000000001Z " fill="#ffffff" fill-opacity="1" transform="matrix(1,0,0,1,-125,-350)"></path><path id="SvgjsPath1016" d="M383 541C383 537.68629 385.68629 535 389 535L590 535C593.31371 535 596 537.68629 596 541L596 699C596 702.31371 593.31371 705 590 705L389 705C385.68629 705 383 702.31371 383 699Z " fill="#007aff" fill-opacity="1" transform="matrix(1,0,0,1,-125,-350)"></path><path id="SvgjsPath1017" d="M453.98 645L451.93 645L444.98 659.98L438.03000000000003 645L436.00000000000006 645L436.00000000000006 662.5L438.03000000000003 662.5L438.03000000000003 649.23L444.18 662.5L445.78000000000003 662.5L451.93 649.23L451.93 662.5L453.98 662.5ZM477.38 645L477.38 662.5L479.4 662.5L479.4 656.25L483.72999999999996 656.25C487.83 656.25 489.72999999999996 654.13 489.72999999999996 650.65C489.72999999999996 647.13 487.83 645 483.72999999999996 645ZM466.13 649.5L461.95 660.35L457.88 649.5L455.98 649.5L461.05 662.68L460.75 663.4799999999999C460.18 664.9499999999999 458.88 665.5299999999999 457.45 665.5999999999999L457.45 667.2799999999999C459.63 667.1999999999998 461.38 666.5499999999998 462.55 663.5799999999998L468.05 649.4999999999998ZM502.58 654.3C502.58 650.65 500.9 649.3499999999999 497.45 649.3499999999999C494.53 649.3499999999999 492.68 650.4799999999999 492.4 652.6999999999999L494.25 652.6999999999999C494.45 651.53 495.45 650.8799999999999 497.43 650.8799999999999C499.58 650.8799999999999 500.65000000000003 651.5299999999999 500.65000000000003 653.8499999999999L500.65000000000003 654.1299999999999C499.73 654.6299999999999 497.6 654.8299999999999 496.1 655.0299999999999C493.25 655.3999999999999 491.6 656.5799999999998 491.6 658.9299999999998C491.6 661.4499999999998 493.45000000000005 662.7299999999998 495.93 662.7299999999998C499.08 662.7299999999998 500.48 660.5799999999998 500.83 659.8499999999998L500.83 660.7499999999998C500.83 662.1299999999998 501.53 662.6299999999998 502.75 662.6299999999998C503.08 662.6299999999998 503.28 662.5999999999998 503.6 662.4999999999998L503.6 661.1799999999997C502.85 661.1999999999997 502.58000000000004 660.9299999999997 502.58000000000004 660.1999999999997ZM520.9 654.3C520.9 650.65 519.23 649.3499999999999 515.78 649.3499999999999C512.85 649.3499999999999 511 650.4799999999999 510.72999999999996 652.6999999999999L512.5799999999999 652.6999999999999C512.78 651.53 513.78 650.8799999999999 515.7499999999999 650.8799999999999C517.8999999999999 650.8799999999999 518.9799999999999 651.5299999999999 518.9799999999999 653.8499999999999L518.9799999999999 654.1299999999999C518.05 654.6299999999999 515.92 654.8299999999999 514.42 655.0299999999999C511.58 655.3999999999999 509.92999999999995 656.5799999999998 509.92999999999995 658.9299999999998C509.92999999999995 661.4499999999998 511.78 662.7299999999998 514.25 662.7299999999998C517.4 662.7299999999998 518.8 660.5799999999998 519.15 659.8499999999998L519.15 660.7499999999998C519.15 662.1299999999998 519.85 662.6299999999998 521.0799999999999 662.6299999999998C521.4 662.6299999999998 521.5999999999999 662.5999999999998 521.92 662.4999999999998L521.92 661.1799999999997C521.17 661.1999999999997 520.9 660.9299999999997 520.9 660.1999999999997ZM543.08 656.1C543.08 651.38 540.3000000000001 649.35 537.2800000000001 649.35C534.33 649.35 531.2800000000001 651.4200000000001 531.2800000000001 656.03C531.2800000000001 660.6999999999999 534.3800000000001 662.73 537.33 662.73C539.85 662.73 541.58 661.88 542.6700000000001 659.65L540.8000000000001 659.65C539.98 660.75 538.8800000000001 661.13 537.48 661.13C535.33 661.13 533.4200000000001 659.78 533.1700000000001 656.7L543.08 656.7ZM526.9 659.98L526.9 651.1L529.4 651.1L529.4 649.5L526.9 649.5L526.9 646.25L524.98 646.25L524.98 649.5L523.1 649.5L523.1 651.1L524.98 651.1L524.98 660.0500000000001C524.98 662.1500000000001 526.13 662.6500000000001 527.53 662.6500000000001C528.35 662.6500000000001 529.0799999999999 662.58 529.63 662.3800000000001L529.63 660.8300000000002C529.08 660.9300000000002 528.63 661.0000000000001 528 661.0000000000001C527.2 661.0000000000001 526.9 660.7000000000002 526.9 659.9800000000001ZM479.4 654.42L479.4 646.8299999999999L483.75 646.8299999999999C486.4 646.8299999999999 487.58 648.15 487.58 650.65C487.58 653.1 486.4 654.42 483.75 654.42ZM518.98 658.4C518.65 659.1 517.35 661.1999999999999 514.5500000000001 661.1999999999999C512.83 661.1999999999999 511.88000000000005 660.28 511.88000000000005 658.8499999999999C511.88000000000005 657.4799999999999 512.58 656.6999999999999 514.4000000000001 656.43C516.5000000000001 656.13 518.2500000000001 655.9 518.9800000000001 655.5ZM500.65 658.4C500.33 659.1 499.03 661.1999999999999 496.22999999999996 661.1999999999999C494.49999999999994 661.1999999999999 493.54999999999995 660.28 493.54999999999995 658.8499999999999C493.54999999999995 657.4799999999999 494.24999999999994 656.6999999999999 496.0799999999999 656.43C498.17999999999995 656.13 499.92999999999995 655.9 500.6499999999999 655.5ZM505.73 645L505.73 662.5L507.65000000000003 662.5L507.65000000000003 645ZM541.17 655.35L533.17 655.35C533.42 652.35 535.25 650.95 537.28 650.95C539.35 650.95 541.03 652.35 541.17 655.35Z " fill="#ffffff" fill-opacity="1" transform="matrix(1,0,0,1,-125,-350)"></path><path id="SvgjsPath1018" d="M450.82 573.17C450.82 575.28 448.9 577.53 446.42 577.53L446.42 613.11C446.42 618.15 439.54 618.15 439.54 613.11L439.54 577.53C437.11 577.53 435 575.66 435 572.87L435 553.29C435 551.5899999999999 437.47 551.53 437.47 553.36L437.47 567.83L439.53000000000003 567.83L439.53000000000003 553.23C439.53000000000003 551.6700000000001 441.89000000000004 551.5600000000001 441.89000000000004 553.3000000000001L441.89000000000004 567.84L444.02000000000004 567.84L444.02000000000004 553.25C444.02000000000004 551.61 446.32000000000005 551.55 446.32000000000005 553.31L446.32000000000005 567.8299999999999L448.4200000000001 567.8299999999999L448.4200000000001 553.2499999999999C448.4200000000001 551.6299999999999 450.82000000000005 551.5599999999998 450.82000000000005 553.3099999999998Z " fill="#ffffff" fill-opacity="1" transform="matrix(1,0,0,1,-125,-350)"></path><path id="SvgjsPath1019" d="M544.57 557.81L544.57 613.05C544.57 617.99 537.6700000000001 617.92 537.6700000000001 613.05L537.6700000000001 591.13L534.0000000000001 591.13L534.0000000000001 557.81C534.0100000000001 550.06 544.5700000000002 550.06 544.5700000000002 557.81Z " fill="#ffffff" fill-opacity="1" transform="matrix(1,0,0,1,-125,-350)"></path><path id="SvgjsPath1020" d="M467 584.39C467 597.28 477.49 607.78 490.38 607.78C503.28 607.78 513.77 597.28 513.77 584.39C513.77 571.49 503.28 561 490.38 561C477.49 561 467 571.49 467 584.39ZM502.44 575.58C503.6 576.75 503.6 578.63 502.44 579.8000000000001L487.1 595.1700000000001L479.35 597.2900000000001C479.35 597.2900000000001 477.61 598.0000000000001 477.41 597.7900000000001C477.03000000000003 597.3900000000001 477.94 595.8700000000001 477.94 595.8700000000001L480.05 588.1000000000001L495.40000000000003 572.7300000000001C496.53000000000003 571.6100000000001 498.48 571.6100000000001 499.61 572.7300000000001ZM486.59 592.86L496.78 582.63L492.55999999999995 578.39L482.34999999999997 588.62ZM480.25 594.97L484.67 593.76L481.46000000000004 590.54ZM498.2 581.22L493.97999999999996 576.99L496.80999999999995 574.15C497.16999999999996 573.78 497.81999999999994 573.78 498.18999999999994 574.15L501.0299999999999 577C501.4199999999999 577.37 501.4199999999999 578.01 501.0299999999999 578.38Z " fill="#ffffff" fill-opacity="1" transform="matrix(1,0,0,1,-125,-350)"></path><path id="SvgjsPath1021" d="M456 583.99C456 603.32 471.66 618.99 490.99 618.99C510.31 618.99 525.97 603.32 525.97 583.99C525.97 564.67 510.31 549 490.99 549C471.66 549 456 564.67 456 583.99ZM465.28 583.99C465.28 569.8100000000001 476.80999999999995 558.28 490.98999999999995 558.28C505.15999999999997 558.28 516.6999999999999 569.81 516.6999999999999 583.99C516.6999999999999 598.17 505.1599999999999 609.71 490.98999999999995 609.71C476.80999999999995 609.71 465.28 598.1700000000001 465.28 583.99Z " fill="#ffffff" fill-opacity="1" transform="matrix(1,0,0,1,-125,-350)"></path><path id="SvgjsPath1022" d="M383 356C383 352.68629 385.68629 350 389 350L590 350C593.31371 350 596 352.68629 596 356L596 514C596 517.31371 593.31371 520 590 520L389 520C385.68629 520 383 517.31371 383 514Z " fill="#007aff" fill-opacity="1" transform="matrix(1,0,0,1,-125,-350)"></path><path id="SvgjsPath1023" d="M443 460L443 477.5L448.5 477.5C453.95 477.5 456.8 474.3 456.8 468.75C456.8 463.2 453.95 460 448.5 460ZM509.38 477.5L514.55 464.5L512.5999999999999 464.5L508.2799999999999 475.53L503.9799999999999 464.5L502.0299999999999 464.5L507.19999999999993 477.5ZM488.63 471.03C488.63 475.67999999999995 491.78 477.72999999999996 494.63 477.72999999999996C497.48 477.72999999999996 500.65 475.67999999999995 500.65 471.03C500.65 466.4 497.47999999999996 464.34999999999997 494.63 464.34999999999997C491.78 464.34999999999997 488.63 466.4 488.63 471.03ZM527.75 471.1C527.75 466.38 524.98 464.35 521.95 464.35C519 464.35 515.95 466.43 515.95 471.03000000000003C515.95 475.70000000000005 519.0500000000001 477.73 522 477.73C524.53 477.73 526.25 476.88 527.35 474.65000000000003L525.48 474.65000000000003C524.65 475.75000000000006 523.5500000000001 476.13000000000005 522.15 476.13000000000005C520 476.13000000000005 518.1 474.78000000000003 517.85 471.70000000000005L527.75 471.70000000000005ZM477.75 471.03C477.75 467.53 479.63 465.95 481.83 465.95C483.68 465.95 484.7 466.72999999999996 485.28 468.13L487.04999999999995 468.13C486.22999999999996 465.33 484.19999999999993 464.35 481.79999999999995 464.35C478.84999999999997 464.35 475.84999999999997 466.33000000000004 475.84999999999997 471.03000000000003C475.84999999999997 475.73 478.84999999999997 477.73 481.79999999999995 477.73C484.22999999999996 477.73 486.29999999999995 476.73 487.09999999999997 473.85L485.33 473.85C484.75 475.33000000000004 483.72999999999996 476.13 481.83 476.13C479.63 476.13 477.75 474.53 477.75 471.03ZM473.8 467.75C473.23 465.43 471.53000000000003 464.35 468.85 464.35C465.90000000000003 464.35 464.05 465.58000000000004 464.05 467.85C464.05 469.75 465.23 470.75 467.65000000000003 471.33000000000004L469.95000000000005 471.88000000000005C471.45000000000005 472.2300000000001 472.25000000000006 472.63000000000005 472.25000000000006 473.9800000000001C472.25000000000006 475.5800000000001 470.80000000000007 476.2000000000001 468.9800000000001 476.2000000000001C467.2800000000001 476.2000000000001 465.80000000000007 475.6500000000001 465.43000000000006 473.8500000000001L463.6500000000001 473.8500000000001C464.0000000000001 476.55000000000007 466.1300000000001 477.68000000000006 468.9800000000001 477.68000000000006C471.7800000000001 477.68000000000006 474.2300000000001 476.70000000000005 474.2300000000001 473.9800000000001C474.2300000000001 471.6000000000001 472.7300000000001 471.05000000000007 470.30000000000007 470.4800000000001L468.25000000000006 469.9800000000001C466.6000000000001 469.5800000000001 466.00000000000006 469.00000000000006 466.00000000000006 467.8500000000001C466.00000000000006 466.6000000000001 466.93000000000006 465.8300000000001 468.88000000000005 465.8300000000001C470.4800000000001 465.8300000000001 471.50000000000006 466.3000000000001 472.03000000000003 467.7500000000001ZM445.03 475.65L445.03 461.84999999999997L448.33 461.84999999999997C452.7 461.84999999999997 454.68 464.09999999999997 454.68 468.74999999999994C454.68 473.3999999999999 452.7 475.6499999999999 448.33 475.6499999999999ZM494.63 476.13C492.53 476.13 490.53 474.55 490.53 471.03C490.53 467.5 492.53 465.95 494.63 465.95C496.75 465.95 498.75 467.5 498.75 471.03C498.75 474.54999999999995 496.75 476.13 494.63 476.13ZM525.85 470.35L517.85 470.35C518.1 467.35 519.9300000000001 465.95000000000005 521.95 465.95000000000005C524.0300000000001 465.95000000000005 525.7 467.35 525.85 470.35ZM459.45 464.5L459.45 477.5L461.38 477.5L461.38 464.5ZM459.45 460L459.45 461.88L461.38 461.88L461.38 460ZM536.33 464.38C536.6500000000001 464.38 536.9200000000001 464.4 537.2800000000001 464.43L537.2800000000001 466.13C536.95 466.1 536.7 466.1 536.4000000000001 466.1C533.8500000000001 466.13 532.3000000000001 467.58000000000004 531.83 469.90000000000003L531.83 477.50000000000006L529.9000000000001 477.50000000000006L529.9000000000001 464.50000000000006L531.83 464.50000000000006L531.83 467.7300000000001C532.23 465.9500000000001 533.85 464.38000000000005 536.33 464.38000000000005Z " fill="#ffffff" fill-opacity="1" transform="matrix(1,0,0,1,-125,-350)"></path><path id="SvgjsPath1024" d="M455 399C455 379.67003 470.67003 364 490 364C509.32997 364 525 379.67003 525 399C525 418.32997 509.32997 434 490 434C470.67003 434 455 418.32997 455 399Z " fill-opacity="0" fill="#ffffff" stroke-dasharray="0" stroke-linejoin="miter" stroke-linecap="butt" stroke-opacity="1" stroke="#ffffff" stroke-miterlimit="50" stroke-width="2.5" transform="matrix(1,0,0,1,-125,-350)"></path><path id="SvgjsPath1025" d="M518.11 398.55C518.11 382.78000000000003 505.32 370 489.55 370C473.78000000000003 370 461 382.78 461 398.55C461 414.32 473.78 427.11 489.55 427.11C505.32 427.11 518.11 414.32 518.11 398.55ZM463.2 398.55C463.2 384 475 372.2 489.55 372.2C504.11 372.2 515.91 384 515.91 398.55C515.91 413.11 504.10999999999996 424.91 489.54999999999995 424.91C474.99999999999994 424.91 463.19999999999993 413.11 463.19999999999993 398.55Z " fill="#ffffff" fill-opacity="1" transform="matrix(1,0,0,1,-125,-350)"></path><path id="SvgjsPath1026" d="M477.14 387.75L485.01 402.36C485.01 402.36 485.01 402.36 485.09 402.44C485.09 402.52 485.16999999999996 402.52 485.16999999999996 402.52C485.16999999999996 402.52 485.40999999999997 402.76 485.48999999999995 402.84L500.10999999999996 410.71C500.27 410.78999999999996 500.50999999999993 410.87 500.67999999999995 410.87C500.99999999999994 410.87 501.3299999999999 410.71 501.48999999999995 410.55C501.88999999999993 410.14 501.96999999999997 409.58 501.72999999999996 409.1L493.93999999999994 394.49C493.93999999999994 394.49 493.93999999999994 394.49 493.85999999999996 394.41C493.85999999999996 394.41 493.53999999999996 394.09000000000003 493.46 394.01000000000005L478.84999999999997 386.14000000000004C478.35999999999996 385.90000000000003 477.78999999999996 385.98 477.37999999999994 386.30000000000007C476.9699999999999 386.70000000000005 476.88999999999993 387.26000000000005 477.13999999999993 387.75000000000006ZM488.1 401.48L492.57000000000005 397.06L497.76000000000005 406.7Z " fill="#ffffff" fill-opacity="1" transform="matrix(1,0,0,1,-125,-350)"></path></svg>