<svg id="SvgjsSvg1044" xmlns="http://www.w3.org/2000/svg" version="1.1" xmlns:xlink="http://www.w3.org/1999/xlink" xmlns:svgjs="http://svgjs.com/svgjs" width="26" height="26"><defs id="SvgjsDefs1045"></defs><path id="SvgjsPath1046" d="M740 138L740 112L766 112L766 138Z " fill="#ffffff" fill-opacity="1" transform="matrix(1,0,0,1,-740,-112)"></path><path id="SvgjsPath1047" d="M754.42 136L754.42 125.96000000000001L757.78 125.96000000000001L758.29 122.05000000000001L754.42 122.05000000000001L754.42 119.56000000000002C754.42 118.42000000000002 754.7299999999999 117.65000000000002 756.3499999999999 117.65000000000002L758.43 117.65000000000002L758.43 114.15000000000002C758.0699999999999 114.11000000000001 756.8399999999999 114.00000000000001 755.41 114.00000000000001C752.42 114.00000000000001 750.38 115.82000000000001 750.38 119.17000000000002L750.38 122.05000000000001L747 122.05000000000001L747 125.96000000000001L750.38 125.96000000000001L750.38 136L754.42 136Z " fill="#007aff" fill-opacity="1" transform="matrix(1,0,0,1,-740,-112)"></path></svg>