<svg id="SvgjsSvg1023" xmlns="http://www.w3.org/2000/svg" version="1.1" xmlns:xlink="http://www.w3.org/1999/xlink" xmlns:svgjs="http://svgjs.com/svgjs" width="26" height="26"><defs id="SvgjsDefs1024"></defs><path id="SvgjsPath1025" d="M779 138L779 112L805 112L805 138Z " fill="#ffffff" fill-opacity="1" transform="matrix(1,0,0,1,-779,-112)"></path><path id="SvgjsPath1026" d="M783.54 136C782.14 136 781 134.86 781 133.46L781 116.54C781 115.14 782.14 114 783.54 114L800.4599999999999 114C801.8599999999999 114 802.9999999999999 115.14 802.9999999999999 116.54L802.9999999999999 133.46C802.9999999999999 134.86 801.8599999999999 136 800.4599999999999 136ZM787.77 125C787.77 127.34 789.66 129.23 792 129.23C794.34 129.23 796.23 127.33999999999999 796.23 124.99999999999999C796.23 122.65999999999998 794.34 120.76999999999998 792 120.76999999999998C789.66 120.76999999999998 787.77 122.65999999999998 787.77 124.99999999999999ZM799.62 116.54L797.08 116.54C796.61 116.54 796.23 116.92 796.23 117.38000000000001L796.23 119.92000000000002C796.23 120.39000000000001 796.61 120.77000000000001 797.08 120.77000000000001L799.62 120.77000000000001C800.08 120.77000000000001 800.46 120.39000000000001 800.46 119.92000000000002L800.46 117.38000000000001C800.46 116.92000000000002 800.08 116.54 799.62 116.54ZM798.55 123.31C798.6899999999999 123.85000000000001 798.77 124.41 798.77 125C798.77 128.74 795.74 131.77 792 131.77C788.26 131.77 785.23 128.74 785.23 125.00000000000001C785.23 124.41000000000001 785.3100000000001 123.85000000000001 785.45 123.31000000000002L783.5400000000001 123.31000000000002L783.5400000000001 132.62C783.5400000000001 133.08 783.9200000000001 133.46 784.3800000000001 133.46L799.6200000000001 133.46C800.0800000000002 133.46 800.4600000000002 133.08 800.4600000000002 132.62L800.4600000000002 123.31Z " fill="#007aff" fill-opacity="1" transform="matrix(1,0,0,1,-779,-112)"></path></svg>