<svg id="SvgjsSvg1013" xmlns="http://www.w3.org/2000/svg" version="1.1" xmlns:xlink="http://www.w3.org/1999/xlink" xmlns:svgjs="http://svgjs.com/svgjs" width="874" height="51"><defs id="SvgjsDefs1014"></defs><path id="SvgjsPath1015" d="M1032.95 138.16C1032.95 129.25 1036.91 125.38 1042.9 125.38C1047.4 125.38 1049.8700000000001 127 1050.99 130.15L1054.59 130.15C1053.47 124.84 1048.97 122.05000000000001 1042.85 122.05000000000001C1034.84 122.05000000000001 1029.1699999999998 127.13000000000001 1029.1699999999998 138.16000000000003C1029.1699999999998 149.18000000000004 1034.84 154.26000000000002 1042.85 154.26000000000002C1049.02 154.26000000000002 1053.56 151.48000000000002 1054.6899999999998 146.12L1051.09 146.12C1049.9599999999998 149.32 1047.4399999999998 150.94 1042.8999999999999 150.94C1036.9099999999999 150.94 1032.9499999999998 147.07 1032.9499999999998 138.16ZM1114.98 130.51L1107.47 150.04L1100.13 130.51L1096.71 130.51L1105.8500000000001 154.22L1105.3100000000002 155.66C1104.2700000000002 158.32 1101.9400000000003 159.35 1099.3700000000001 159.49L1099.3700000000001 162.5C1103.2800000000002 162.37 1106.44 161.2 1108.5500000000002 155.84L1118.4500000000003 130.51ZM911.14 142.2C911.14 150.67 916.4 154.31 921.26 154.31C925.22 154.31 927.88 152.2 929.09 149.32L929.09 153.91L932.5600000000001 153.91L932.5600000000001 122.41L929.09 122.41L929.09 134.87C927.6 131.95000000000002 925.0400000000001 130.23000000000002 921.26 130.23000000000002C916.4 130.23000000000002 911.14 133.84000000000003 911.14 142.20000000000002ZM984.94 153.91L989.08 153.91L977.33 141.04L987.59 130.51L983.4100000000001 130.51L971.57 142.79L971.57 122.41L968.11 122.41L968.11 153.91L971.57 153.91L971.57 147.02L975.0400000000001 143.42000000000002ZM1138.79 153.91L1142.93 153.91L1131.19 141.04L1141.45 130.51L1137.26 130.51L1125.43 142.79L1125.43 122.41L1121.96 122.41L1121.96 153.91L1125.43 153.91L1125.43 147.02L1128.89 143.42000000000002ZM794 142.25C794 150.62 799.67 154.31 804.8 154.31C809.93 154.31 815.65 150.62 815.65 142.25C815.65 133.93 809.93 130.24 804.8 130.24C799.67 130.24 794 133.93 794 142.25ZM886.57 142.25C886.57 150.62 892.24 154.31 897.37 154.31C902.5 154.31 908.21 150.62 908.21 142.25C908.21 133.93 902.5 130.24 897.37 130.24C892.24 130.24 886.57 133.93 886.57 142.25ZM862 142.25C862 150.62 867.67 154.31 872.8 154.31C877.93 154.31 883.64 150.62 883.64 142.25C883.64 133.93 877.93 130.24 872.8 130.24C867.67 130.24 862 133.93 862 142.25ZM1012.79 142.39C1012.79 133.88 1007.8 130.23999999999998 1002.3499999999999 130.23999999999998C997.04 130.23999999999998 991.55 133.96999999999997 991.55 142.24999999999997C991.55 150.66999999999996 997.13 154.30999999999997 1002.4399999999999 154.30999999999997C1006.9899999999999 154.30999999999997 1010.0899999999999 152.77999999999997 1012.0699999999999 148.77999999999997L1008.6999999999999 148.77999999999997C1007.2099999999999 150.75999999999996 1005.2299999999999 151.42999999999998 1002.7099999999999 151.42999999999998C998.8399999999999 151.42999999999998 995.42 148.99999999999997 994.9699999999999 143.46999999999997L1012.79 143.46999999999997ZM859.07 125.15L859.07 122.41000000000001C858.0400000000001 122.18 856.96 122.00000000000001 855.74 122.00000000000001C852.6800000000001 122.05000000000001 849.53 122.86000000000001 849.53 128.21L849.53 130.51000000000002L846.1999999999999 130.51000000000002L846.1999999999999 133.39000000000001L849.53 133.39000000000001L849.53 153.91000000000003L853 153.91000000000003L853 133.39000000000001L858.76 133.39000000000001L858.76 130.51000000000002L853 130.51000000000002L853 128.26000000000002C853 125.69000000000003 854.03 124.88000000000002 856.24 124.88000000000002C857.14 124.88000000000002 858.17 125.02000000000002 859.07 125.15000000000002ZM830.77 125.15L830.77 122.41000000000001C829.73 122.18 828.65 122.00000000000001 827.4399999999999 122.00000000000001C824.38 122.05000000000001 821.2299999999999 122.86000000000001 821.2299999999999 128.21L821.2299999999999 130.51000000000002L817.8999999999999 130.51000000000002L817.8999999999999 133.39000000000001L821.2299999999999 133.39000000000001L821.2299999999999 153.91000000000003L824.6899999999999 153.91000000000003L824.6899999999999 133.39000000000001L830.4499999999999 133.39000000000001L830.4499999999999 130.51000000000002L824.6899999999999 130.51000000000002L824.6899999999999 128.26000000000002C824.6899999999999 125.69000000000003 825.7299999999999 124.88000000000002 827.93 124.88000000000002C828.8299999999999 124.88000000000002 829.87 125.02000000000002 830.77 125.15000000000002ZM1089.29 149.36L1089.29 133.39000000000001L1093.79 133.39000000000001L1093.79 130.51000000000002L1089.29 130.51000000000002L1089.29 124.66000000000003L1085.82 124.66000000000003L1085.82 130.51000000000002L1082.45 130.51000000000002L1082.45 133.39000000000001L1085.82 133.39000000000001L1085.82 149.5C1085.82 153.28 1087.8999999999999 154.18 1090.4199999999998 154.18C1091.8999999999999 154.18 1093.2099999999998 154.04000000000002 1094.1999999999998 153.68L1094.1999999999998 150.89000000000001C1093.2099999999998 151.07000000000002 1092.3999999999999 151.21 1091.2699999999998 151.21C1089.8299999999997 151.21 1089.2899999999997 150.67000000000002 1089.2899999999997 149.36ZM1062.02 136.31L1062.02 130.51L1058.55 130.51L1058.55 153.91L1062.02 153.91L1062.02 140.23C1062.87 136.04 1065.67 133.42999999999998 1070.25 133.39C1070.79 133.39 1071.24 133.39 1071.83 133.42999999999998L1071.83 130.36999999999998C1071.1999999999998 130.31999999999996 1070.71 130.27999999999997 1070.12 130.27999999999997C1065.6699999999998 130.27999999999997 1062.7399999999998 133.11999999999998 1062.02 136.30999999999997ZM804.8 151.43C801.02 151.43 797.42 148.6 797.42 142.25C797.42 135.91 801.02 133.12 804.8 133.12C808.63 133.12 812.2299999999999 135.91 812.2299999999999 142.25C812.2299999999999 148.6 808.6299999999999 151.43 804.8 151.43ZM872.8 151.43C869.02 151.43 865.42 148.6 865.42 142.25C865.42 135.91 869.02 133.12 872.8 133.12C876.62 133.12 880.2199999999999 135.91 880.2199999999999 142.25C880.2199999999999 148.6 876.6199999999999 151.43 872.8 151.43ZM897.37 151.43C893.58 151.43 889.99 148.6 889.99 142.25C889.99 135.91 893.58 133.12 897.37 133.12C901.19 133.12 904.79 135.91 904.79 142.25C904.79 148.6 901.1899999999999 151.43 897.37 151.43ZM914.55 142.2C914.55 135.82 917.9699999999999 133.11999999999998 921.8 133.11999999999998C925.7099999999999 133.11999999999998 929.27 135.81999999999996 929.27 142.2C929.27 148.51 925.71 151.42999999999998 921.8 151.42999999999998C917.9699999999999 151.42999999999998 914.55 148.64 914.55 142.2ZM1009.37 141.04L994.97 141.04C995.4200000000001 135.64 998.71 133.12 1002.35 133.12C1006.08 133.12 1009.1 135.64000000000001 1009.37 141.04ZM950.83 122.41L950.83 153.91L954.2900000000001 153.91L954.2900000000001 122.41ZM959.51 130.51L959.51 153.91L962.98 153.91L962.98 130.51ZM1075.47 130.51L1075.47 153.91L1078.94 153.91L1078.94 130.51ZM959.51 122.41L959.51 125.78L962.98 125.78L962.98 122.41ZM1075.47 122.41L1075.47 125.78L1078.94 125.78L1078.94 122.41ZM1150.22 149.41L1150.22 153.91L1146.17 153.91L1146.17 149.41Z " fill="#007aff" fill-opacity="1" transform="matrix(1,0,0,1,-277,-114)"></path><path id="SvgjsPath1016" d="M300.99 123L297.3 123L297.3 148.65L280.83000000000004 123L277.00000000000006 123L277.00000000000006 154.5L280.65000000000003 154.5L280.65000000000003 128.89L297.07000000000005 154.5L300.99000000000007 154.5ZM420.6 131.1L420.6 135.47C419.11 132.54 416.54 130.83 412.77000000000004 130.83C407.91 130.83 402.64000000000004 134.43 402.64000000000004 142.8C402.64000000000004 151.04000000000002 407.91 154.59 412.77000000000004 154.59C416.73 154.59 419.38000000000005 152.57 420.6 149.91L420.6 154.23C420.6 159.72 417.76000000000005 161.48 412.99 161.48C409.66 161.48 407.23 160.31 406.02 158.51L403.71999999999997 159.89999999999998C405.24999999999994 162.64 408.80999999999995 164.39999999999998 412.98999999999995 164.39999999999998C418.21 164.39999999999998 423.92999999999995 162.68999999999997 424.05999999999995 154.49999999999997L424.05999999999995 131.09999999999997ZM467.53 135.51L467.53 131.1L464.07 131.1L464.07 163.04999999999998L467.53 163.04999999999998L467.53 149.86999999999998C468.7 152.78999999999996 471.35999999999996 154.81999999999996 475.32 154.81999999999996C480.27 154.81999999999996 485.49 151.21999999999997 485.49 142.79999999999995C485.49 134.47999999999996 480.22 130.82999999999996 475.32 130.82999999999996C471.54 130.82999999999996 468.96999999999997 132.53999999999996 467.53 135.50999999999996ZM554.74 154.5L558.88 154.5L547.14 141.63L557.4 131.1L553.2099999999999 131.1L541.3799999999999 143.39L541.3799999999999 122.99999999999999L537.9099999999999 122.99999999999999L537.9099999999999 154.5L541.3799999999999 154.5L541.3799999999999 147.62L544.8399999999999 144.01ZM666.88 136.5L666.88 123L663.42 123L663.42 154.5L666.88 154.5L666.88 140.01C667.33 137.76 669.76 133.94 674.35 133.94C677.59 133.94 680.11 135.47 680.11 140.42L680.11 154.5L683.58 154.5L683.58 140.19C683.58 133.17 679.89 130.88 675.21 130.88C670.12 130.88 667.4200000000001 134.79 666.88 136.5ZM348.15 136.5L348.15 123L344.67999999999995 123L344.67999999999995 154.5L348.15 154.5L348.15 140.01C348.59999999999997 137.76 351.03 133.94 355.62 133.94C358.86 133.94 361.38 135.47 361.38 140.42L361.38 154.5L364.84 154.5L364.84 140.19C364.84 133.17 361.15 130.88 356.46999999999997 130.88C351.39 130.88 348.69 134.79 348.15 136.5ZM305.08 142.85C305.08 151.22 310.75 154.91 315.88 154.91C321.01 154.91 326.73 151.22 326.73 142.85C326.73 134.51999999999998 321.01 130.82999999999998 315.88 130.82999999999998C310.75 130.82999999999998 305.08 134.51999999999998 305.08 142.85ZM610.63 142.85C610.63 151.22 616.3 154.91 621.43 154.91C626.56 154.91 632.28 151.22 632.28 142.85C632.28 134.51999999999998 626.56 130.82999999999998 621.43 130.82999999999998C616.3 130.82999999999998 610.63 134.51999999999998 610.63 142.85ZM532.33 139.74C532.33 133.17000000000002 529.32 130.83 523.11 130.83C517.84 130.83 514.51 132.85000000000002 514.02 136.86L517.35 136.86C517.7 134.75 519.51 133.57000000000002 523.0600000000001 133.57000000000002C526.9300000000001 133.57000000000002 528.87 134.75000000000003 528.87 138.93000000000004L528.87 139.43000000000004C527.2 140.32000000000002 523.38 140.69000000000003 520.67 141.04000000000005C515.55 141.72000000000006 512.5799999999999 143.84000000000006 512.5799999999999 148.07000000000005C512.5799999999999 152.61000000000004 515.91 154.91000000000005 520.3599999999999 154.91000000000005C526.0299999999999 154.91000000000005 528.55 151.04000000000005 529.18 149.73000000000005L529.18 151.35000000000005C529.18 153.82000000000005 530.4399999999999 154.73000000000005 532.65 154.73000000000005C533.23 154.73000000000005 533.59 154.68000000000004 534.17 154.50000000000006L534.17 152.12000000000006C532.8299999999999 152.16000000000005 532.3299999999999 151.67000000000007 532.3299999999999 150.36000000000007ZM708.78 142.98C708.78 134.48 703.78 130.82999999999998 698.3399999999999 130.82999999999998C693.03 130.82999999999998 687.54 134.57 687.54 142.85C687.54 151.26 693.12 154.91 698.43 154.91C702.9699999999999 154.91 706.0799999999999 153.38 708.06 149.37L704.68 149.37C703.1999999999999 151.35 701.2199999999999 152.03 698.6999999999999 152.03C694.8299999999999 152.03 691.41 149.6 690.9599999999999 144.06L708.78 144.06ZM509.6 142.98C509.6 134.48 504.61 130.82999999999998 499.17 130.82999999999998C493.85 130.82999999999998 488.37 134.57 488.37 142.85C488.37 151.26 493.95 154.91 499.26 154.91C503.8 154.91 506.90999999999997 153.38 508.89 149.37L505.51 149.37C504.03 151.35 502.03999999999996 152.03 499.53 152.03C495.65999999999997 152.03 492.22999999999996 149.6 491.78999999999996 144.06L509.59999999999997 144.06ZM381.99 136.5L381.99 131.1L378.52 131.1L378.52 154.5L381.99 154.5L381.99 140.01C382.44 137.76 384.87 133.89 389.41 133.89C392.70000000000005 133.89 395.17 135.47 395.17 140.42L395.17 154.5L398.64000000000004 154.5L398.64000000000004 140.19C398.64000000000004 133.17 394.99000000000007 130.88 390.31000000000006 130.88C385.2300000000001 130.88 382.4800000000001 134.79 381.99000000000007 136.5ZM459.48 136.95C458.44 132.76 455.38 130.82999999999998 450.57 130.82999999999998C445.26 130.82999999999998 441.93 133.04 441.93 137.13C441.93 140.54999999999998 444.04 142.35 448.41 143.39L452.54 144.38C455.25 145.01 456.69 145.73 456.69 148.16C456.69 151.04 454.08 152.16 450.79 152.16C447.73 152.16 445.08000000000004 151.17 444.40000000000003 147.93L441.21000000000004 147.93C441.84000000000003 152.79000000000002 445.66 154.82 450.79 154.82C455.83000000000004 154.82 460.24 153.06 460.24 148.16C460.24 143.88 457.54 142.89 453.18 141.85L449.49 140.95C446.52 140.23999999999998 445.44 139.2 445.44 137.13C445.44 134.88 447.1 133.49 450.61 133.49C453.49 133.49 455.34000000000003 134.34 456.28000000000003 136.95000000000002ZM579.63 136.95C578.59 132.76 575.53 130.82999999999998 570.71 130.82999999999998C565.4100000000001 130.82999999999998 562.08 133.04 562.08 137.13C562.08 140.54999999999998 564.19 142.35 568.5600000000001 143.39L572.69 144.38C575.4000000000001 145.01 576.84 145.73 576.84 148.16C576.84 151.04 574.23 152.16 570.94 152.16C567.8800000000001 152.16 565.23 151.17 564.5500000000001 147.93L561.36 147.93C561.99 152.79000000000002 565.8100000000001 154.82 570.94 154.82C575.98 154.82 580.3900000000001 153.06 580.3900000000001 148.16C580.3900000000001 143.88 577.69 142.89 573.3300000000002 141.85L569.6400000000001 140.95C566.6700000000001 140.23999999999998 565.5900000000001 139.2 565.5900000000001 137.13C565.5900000000001 134.88 567.2500000000001 133.49 570.7600000000001 133.49C573.6400000000001 133.49 575.4900000000001 134.34 576.4300000000001 136.95000000000002ZM654.64 149.96L654.64 133.98000000000002L659.14 133.98000000000002L659.14 131.10000000000002L654.64 131.10000000000002L654.64 125.25000000000003L651.17 125.25000000000003L651.17 131.10000000000002L647.8 131.10000000000002L647.8 133.98000000000002L651.17 133.98000000000002L651.17 150.09000000000003C651.17 153.87000000000003 653.25 154.77000000000004 655.77 154.77000000000004C657.25 154.77000000000004 658.56 154.64000000000004 659.55 154.28000000000003L659.55 151.49000000000004C658.56 151.67000000000004 657.75 151.80000000000004 656.62 151.80000000000004C655.18 151.80000000000004 654.64 151.26000000000005 654.64 149.96000000000004ZM602.76 149.96L602.76 133.98000000000002L607.26 133.98000000000002L607.26 131.10000000000002L602.76 131.10000000000002L602.76 125.25000000000003L599.29 125.25000000000003L599.29 131.10000000000002L595.92 131.10000000000002L595.92 133.98000000000002L599.29 133.98000000000002L599.29 150.09000000000003C599.29 153.87000000000003 601.36 154.77000000000004 603.88 154.77000000000004C605.37 154.77000000000004 606.67 154.64000000000004 607.66 154.28000000000003L607.66 151.49000000000004C606.67 151.67000000000004 605.86 151.80000000000004 604.74 151.80000000000004C603.3 151.80000000000004 602.76 151.26000000000005 602.76 149.96000000000004ZM335.91 149.96L335.91 133.98000000000002L340.41 133.98000000000002L340.41 131.10000000000002L335.91 131.10000000000002L335.91 125.25000000000003L332.44 125.25000000000003L332.44 131.10000000000002L329.07 131.10000000000002L329.07 133.98000000000002L332.44 133.98000000000002L332.44 150.09000000000003C332.44 153.87000000000003 334.51 154.77000000000004 337.03 154.77000000000004C338.52 154.77000000000004 339.82 154.64000000000004 340.80999999999995 154.28000000000003L340.80999999999995 151.49000000000004C339.81999999999994 151.67000000000004 339.00999999999993 151.80000000000004 337.88999999999993 151.80000000000004C336.44999999999993 151.80000000000004 335.9099999999999 151.26000000000005 335.9099999999999 149.96000000000004ZM621.43 152.03C617.65 152.03 614.05 149.19 614.05 142.85C614.05 136.5 617.65 133.70999999999998 621.43 133.70999999999998C625.26 133.70999999999998 628.8599999999999 136.49999999999997 628.8599999999999 142.84999999999997C628.8599999999999 149.18999999999997 625.2599999999999 152.02999999999997 621.43 152.02999999999997ZM315.88 152.03C312.1 152.03 308.5 149.19 308.5 142.85C308.5 136.5 312.1 133.70999999999998 315.88 133.70999999999998C319.71 133.70999999999998 323.31 136.49999999999997 323.31 142.84999999999997C323.31 149.18999999999997 319.71 152.02999999999997 315.88 152.02999999999997ZM467.35 142.8C467.35 136.37 470.86 133.8 474.78000000000003 133.8C478.65000000000003 133.8 482.07000000000005 136.41000000000003 482.07000000000005 142.8C482.07000000000005 149.24 478.65000000000003 151.85000000000002 474.78000000000003 151.85000000000002C470.82000000000005 151.85000000000002 467.35 149.15000000000003 467.35 142.8ZM406.06 142.8C406.06 136.41000000000003 409.48 133.8 413.31 133.8C417.22 133.8 420.78000000000003 136.41000000000003 420.78000000000003 142.8C420.78000000000003 149.10000000000002 417.22 151.62 413.31 151.62C409.48 151.62 406.06 149.01 406.06 142.8ZM528.87 147.12C528.28 148.38 525.94 152.16 520.9 152.16C517.8 152.16 516.09 150.5 516.09 147.93C516.09 145.45000000000002 517.35 144.06 520.63 143.57C524.41 143.03 527.56 142.62 528.87 141.9ZM506.19 141.63L491.79 141.63C492.24 136.23 495.52000000000004 133.71 499.17 133.71C502.90000000000003 133.71 505.92 136.23000000000002 506.19 141.63ZM369.93 131.1L369.93 154.5L373.39 154.5L373.39 131.1ZM369.93 123L369.93 126.38L373.39 126.38L373.39 123ZM705.36 141.63L690.96 141.63C691.4100000000001 136.23 694.69 133.71 698.34 133.71C702.07 133.71 705.09 136.23000000000002 705.36 141.63Z " fill="#007aff" fill-opacity="1" transform="matrix(1,0,0,1,-277,-114)"></path><path id="SvgjsPath1017" d="M739.54 114C730.73 114 725.03 122.85 725 130.12C724.94 143.49 751.5 160 751.5 160C751.5 160 778.06 143.49 778 130.12C777.97 122.85000000000001 772.26 114 763.45 114C759.4100000000001 114 754.3100000000001 116.66 751.5 119.16C748.68 116.66 743.59 114 739.54 114Z " fill="#ff6b6b" fill-opacity="1" transform="matrix(1,0,0,1,-277,-114)"></path></svg>
