<svg id="SvgjsSvg1000" xmlns="http://www.w3.org/2000/svg" version="1.1" xmlns:xlink="http://www.w3.org/1999/xlink" xmlns:svgjs="http://svgjs.com/svgjs" width="47" height="68"><defs id="SvgjsDefs1001"></defs><path id="SvgjsPath1007" d="M697.32 84.67C697.3100000000001 84.7 697.3000000000001 84.75 697.3100000000001 84.78C697.11 85.44 697.0200000000001 86.14 697.0200000000001 86.9C697.0200000000001 89.06 697.8100000000001 90.89 699.4000000000001 92.4C699.8400000000001 92.82000000000001 700.2900000000001 93.17 700.7700000000001 93.47C700.9600000000002 94.47 701.4600000000002 95.36 702.2700000000001 96.12C703.2200000000001 97.04 704.3700000000001 97.55000000000001 705.69 97.64C706.12 98.65 706.7700000000001 99.56 707.6400000000001 100.39C709.3600000000001 102.03 711.4300000000001 102.85 713.8600000000001 102.85C716.2800000000001 102.85 718.3500000000001 102.03 720.0600000000002 100.39C720.2500000000002 100.2 720.4300000000002 100.02 720.6000000000001 99.84C721.6900000000002 100.84 722.9400000000002 101.53 724.3100000000002 101.89C725.6200000000001 102.63 727.1000000000001 103 728.7300000000001 103C731.1600000000001 103 733.2200000000001 102.18 734.9300000000002 100.54C736.2100000000002 99.33000000000001 737.0200000000002 97.93 737.3500000000001 96.33000000000001C738.1000000000001 95.49000000000001 738.5800000000002 94.53000000000002 738.7700000000001 93.45000000000002C739.7300000000001 93.07000000000002 740.6000000000001 92.50000000000001 741.3900000000001 91.74000000000002C742.7100000000002 90.48000000000002 743.5000000000001 89.00000000000003 743.7200000000001 87.31000000000003C743.7300000000001 87.23000000000003 743.7400000000001 87.15000000000003 743.7500000000001 87.08000000000003C743.7700000000001 86.79000000000002 743.7800000000001 86.51000000000003 743.7800000000001 86.23000000000003C743.7800000000001 84.08000000000003 742.9800000000001 82.25000000000003 741.3900000000001 80.71000000000004C739.8000000000001 79.20000000000003 737.8700000000001 78.44000000000004 735.6200000000001 78.44000000000004C733.9200000000001 78.44000000000004 732.4100000000001 78.86000000000004 731.1000000000001 79.71000000000004C730.7000000000002 79.96000000000004 730.3200000000002 80.26000000000003 729.9600000000002 80.59000000000003C729.4700000000001 81.06000000000003 729.1200000000001 81.45000000000003 728.9100000000002 81.75000000000003C728.8900000000002 81.78000000000003 728.8600000000002 81.80000000000003 728.8500000000003 81.84000000000003C728.6100000000002 82.14000000000003 728.4100000000002 82.48000000000003 728.2300000000002 82.82000000000004C728.1000000000003 83.08000000000004 727.9900000000002 83.37000000000003 727.9000000000002 83.70000000000003C727.7600000000002 84.21000000000004 727.6800000000002 84.81000000000003 727.6600000000002 85.49000000000004C727.6600000000002 85.49000000000004 727.6900000000002 85.49000000000004 727.7000000000002 85.49000000000004C728.1400000000002 85.53000000000004 728.5800000000002 85.61000000000004 729.0100000000001 85.71000000000004C729.0500000000001 85.73000000000003 729.0900000000001 85.74000000000004 729.1400000000001 85.75000000000004C729.5200000000001 85.85000000000004 729.8900000000001 85.98000000000005 730.2500000000001 86.13000000000004C730.3500000000001 86.18000000000004 730.4400000000002 86.22000000000004 730.5400000000001 86.26000000000003C730.7400000000001 86.35000000000004 730.9300000000001 86.45000000000003 731.1200000000001 86.56000000000003C730.8100000000002 86.48000000000003 730.4900000000001 86.42000000000003 730.1600000000001 86.37000000000003C729.69 86.30000000000004 729.21 86.26000000000003 728.72 86.26000000000003C728.6 86.26000000000003 728.49 86.27000000000004 728.37 86.28000000000003C728.32 86.28000000000003 728.27 86.28000000000003 728.21 86.28000000000003C728.07 86.29000000000003 727.9300000000001 86.30000000000003 727.8000000000001 86.31000000000003L727.7800000000001 86.31000000000003C727.6700000000001 86.32000000000004 727.5600000000001 86.34000000000003 727.45 86.35000000000004C727.44 86.35000000000004 727.44 86.35000000000004 727.4300000000001 86.35000000000004C726.8900000000001 86.42000000000003 726.3700000000001 86.54000000000003 725.8700000000001 86.70000000000003C725.7900000000001 86.72000000000003 725.7200000000001 86.75000000000003 725.6400000000001 86.77000000000002C724.4900000000001 87.16000000000003 723.44 87.81000000000003 722.5000000000001 88.70000000000003C722.3200000000002 88.87000000000003 722.1500000000001 89.06000000000003 721.9900000000001 89.24000000000004C721.9800000000001 89.24000000000004 721.9800000000001 89.24000000000004 721.9700000000001 89.25000000000004C721.9500000000002 89.28000000000004 721.9300000000002 89.30000000000004 721.9200000000002 89.32000000000004C721.9000000000002 89.33000000000004 721.8900000000002 89.35000000000004 721.8800000000002 89.37000000000003C721.7600000000002 89.51000000000003 721.6400000000002 89.64000000000003 721.5300000000002 89.78000000000003C721.6500000000002 90.14000000000003 721.7400000000002 90.50000000000003 721.8100000000002 90.87000000000003C721.6700000000002 90.60000000000004 721.5100000000002 90.33000000000003 721.3300000000002 90.07000000000004C721.3000000000002 90.03000000000003 721.2800000000002 90.00000000000004 721.2500000000001 89.96000000000004C721.1900000000002 89.88000000000004 721.1400000000001 89.80000000000004 721.0800000000002 89.72000000000004C721.0700000000002 89.70000000000005 721.0600000000002 89.68000000000004 721.0500000000002 89.67000000000004C720.7500000000002 89.28000000000004 720.4200000000002 88.91000000000004 720.0500000000002 88.56000000000004C720.0100000000002 88.52000000000004 719.9800000000001 88.49000000000005 719.9400000000002 88.45000000000005C719.8100000000002 88.33000000000004 719.6800000000002 88.22000000000004 719.5500000000002 88.11000000000004C719.5300000000002 88.09000000000005 719.5100000000002 88.08000000000004 719.5000000000002 88.06000000000004C718.7800000000002 87.48000000000005 718.0000000000002 87.02000000000004 717.1600000000002 86.70000000000005C717.1100000000002 86.68000000000005 717.0600000000002 86.66000000000004 717.0000000000002 86.64000000000004C716.9900000000002 86.64000000000004 716.9800000000002 86.64000000000004 716.9800000000002 86.63000000000004C716.1900000000003 86.35000000000004 715.3700000000002 86.19000000000004 714.4900000000002 86.14000000000004C714.4800000000002 86.13000000000004 714.4800000000002 86.13000000000004 714.4700000000003 86.14000000000004C714.2700000000002 86.12000000000005 714.0600000000003 86.11000000000004 713.8500000000003 86.11000000000004C713.7700000000002 86.11000000000004 713.6800000000003 86.12000000000005 713.6000000000003 86.13000000000004C713.5100000000002 86.13000000000004 713.4100000000002 86.13000000000004 713.3200000000003 86.13000000000004C712.0300000000003 86.19000000000004 710.8500000000003 86.50000000000004 709.7700000000003 87.04000000000003C709.7400000000004 87.06000000000003 709.7100000000004 87.07000000000004 709.6900000000003 87.09000000000003C709.3100000000003 87.28000000000003 708.9500000000003 87.51000000000003 708.6000000000003 87.76000000000003C708.2700000000002 88.00000000000003 707.9400000000003 88.26000000000003 707.6300000000002 88.55000000000004C706.8500000000003 89.31000000000004 706.2400000000002 90.14000000000004 705.8100000000002 91.04000000000003C705.7300000000001 91.22000000000004 705.6600000000002 91.40000000000003 705.5900000000001 91.58000000000004C705.6000000000001 91.39000000000004 705.6100000000001 91.20000000000005 705.6400000000001 91.02000000000004C705.6400000000001 91.01000000000003 705.6500000000001 90.99000000000004 705.6500000000001 90.98000000000003C705.6600000000001 90.87000000000003 705.69 90.77000000000004 705.71 90.66000000000004C705.75 90.44000000000004 705.8000000000001 90.23000000000003 705.86 90.03000000000004C705.87 90.01000000000005 705.87 89.98000000000005 705.88 89.96000000000005C706.17 89.01000000000005 706.65 88.13000000000005 707.32 87.34000000000005C707.5100000000001 87.10000000000005 707.71 86.87000000000005 707.94 86.66000000000004C708.0500000000001 86.55000000000004 708.1600000000001 86.45000000000005 708.2800000000001 86.35000000000004C708.3100000000001 86.33000000000004 708.34 86.30000000000004 708.3700000000001 86.27000000000004C709.0300000000001 85.72000000000004 709.7400000000001 85.30000000000004 710.4900000000001 84.99000000000004C710.8500000000001 84.85000000000004 711.2200000000001 84.73000000000003 711.6000000000001 84.64000000000004C712.0300000000001 84.53000000000004 712.4800000000001 84.46000000000004 712.9400000000002 84.42000000000004C712.8200000000002 84.05000000000004 712.6600000000002 83.69000000000004 712.4700000000001 83.34000000000005C712.4500000000002 83.30000000000004 712.4300000000002 83.26000000000005 712.4100000000002 83.23000000000005C712.1800000000002 82.83000000000004 711.9100000000002 82.44000000000004 711.6000000000003 82.07000000000005C711.4200000000003 81.85000000000005 711.2200000000003 81.64000000000004 711.0000000000002 81.43000000000005C710.9800000000002 81.41000000000005 710.9600000000003 81.40000000000005 710.9400000000003 81.38000000000005C710.7700000000003 81.21000000000005 710.5800000000003 81.05000000000005 710.3900000000003 80.89000000000006L709.6000000000004 80.33000000000006C709.2600000000003 80.11000000000006 708.9000000000003 79.92000000000006 708.5300000000003 79.77000000000005C707.5100000000003 79.33000000000006 706.3900000000003 79.11000000000006 705.1800000000003 79.11000000000006C704.4600000000003 79.11000000000006 703.7800000000003 79.19000000000005 703.1300000000003 79.35000000000005C702.0100000000003 79.61000000000006 700.9900000000004 80.09000000000005 700.0700000000004 80.80000000000005C699.8400000000004 80.98000000000006 699.6000000000004 81.17000000000006 699.3800000000003 81.38000000000005C698.3700000000003 82.36000000000006 697.6900000000003 83.45000000000005 697.3200000000004 84.67000000000006ZM712.74 35L697 45.82L699.41 78.78999999999999L702.48 77.33L702.16 73.25999999999999L708.12 76.66L707.49 73.7L704.09 71.57000000000001L706.52 67.54L708.49 68.79L712.07 65.19000000000001L707.32 45.06000000000002C713.07 42.000000000000014 717.25 39.88000000000002 719.85 38.710000000000015L720.37 35.250000000000014ZM719.31 40C715.93 43.93 713.8699999999999 48.83 713.1099999999999 54.69C712.6699999999998 57.21 712.6299999999999 59.699999999999996 712.9999999999999 62.16C713.0699999999999 63.669999999999995 713.2199999999999 65.25999999999999 713.4299999999998 66.91L714.0899999999998 66.56C714.0899999999998 66.58 714.1099999999998 66.61 714.1199999999998 66.65L715.8199999999998 65.73L713.6599999999999 67.21000000000001L708.3499999999999 72.72000000000001L709.8399999999999 79.54000000000002L711.7099999999999 79.54000000000002L711.7099999999999 75.15000000000002L714.9699999999999 73.56000000000002C715.2699999999999 73.47000000000001 715.81 73.35000000000002 716.5999999999999 73.22000000000001L716.5999999999999 74.71000000000001C716.6099999999999 74.69000000000001 716.6399999999999 74.68 716.6599999999999 74.67C716.6699999999998 74.65 716.6799999999998 74.65 716.6999999999998 74.65C716.9999999999998 74.41000000000001 717.3299999999998 74.21000000000001 717.6999999999998 74.06C717.9299999999998 73.95 718.1799999999998 73.86 718.4499999999998 73.79C718.7299999999998 73.7 719.0199999999999 73.65 719.3199999999998 73.61C719.4499999999998 73.59 719.5899999999998 73.57 719.7299999999998 73.56C719.7899999999997 73.56 719.8599999999998 73.57000000000001 719.9199999999998 73.57000000000001C719.9899999999999 73.57000000000001 720.0499999999998 73.56 720.1199999999999 73.56C720.1799999999998 73.57000000000001 720.2299999999999 73.57000000000001 720.2999999999998 73.57000000000001C720.4699999999998 73.59 720.6499999999999 73.62 720.8199999999998 73.65C721.1799999999998 73.71000000000001 721.5199999999999 73.81 721.8499999999998 73.93C722.2999999999998 74.09 722.7199999999998 74.31 723.0899999999998 74.59C723.1399999999998 74.63000000000001 723.1899999999998 74.66 723.2399999999998 74.71000000000001L723.2399999999998 73.22000000000001C723.2699999999998 73.22000000000001 723.2899999999997 73.23000000000002 723.2999999999997 73.24000000000001C723.3099999999997 73.24000000000001 723.3199999999997 73.24000000000001 723.3399999999997 73.25000000000001C724.0699999999997 73.36000000000001 724.5699999999997 73.47000000000001 724.8599999999997 73.57000000000001L728.1299999999997 75.15L728.1299999999997 79.54L729.9999999999997 79.54L731.4799999999997 72.73L726.1699999999997 67.22L724.0599999999997 65.66L725.8899999999998 66.64999999999999L726.4099999999997 66.91999999999999C726.6499999999997 64.96999999999998 726.8099999999997 63.12999999999999 726.8799999999998 61.37999999999999C727.1199999999998 58.80999999999999 727.0199999999998 56.319999999999986 726.5599999999997 53.91999999999999C725.7299999999997 48.39999999999999 723.6999999999997 43.749999999999986 720.4799999999997 39.999999999999986C720.3699999999997 39.889999999999986 720.2499999999997 39.80999999999999 720.1099999999997 39.759999999999984C719.9599999999997 39.719999999999985 719.8199999999997 39.719999999999985 719.6799999999997 39.759999999999984C719.5299999999997 39.80999999999998 719.4099999999997 39.889999999999986 719.3099999999997 39.999999999999986ZM717.1 82.41L717.47 77.07C717.07 77.19999999999999 716.6700000000001 77.38 716.26 77.61L714.84 84.75C715.7800000000001 84.86 716.6600000000001 85.14 717.49 85.56C717.51 85.57000000000001 717.53 85.58 717.54 85.60000000000001C717.66 85.66000000000001 717.78 85.72000000000001 717.9 85.80000000000001C718.34 86.07000000000001 718.77 86.38000000000001 719.16 86.75000000000001C719.28 86.85000000000001 719.39 86.96000000000001 719.5 87.07000000000001C719.59 87.16000000000001 719.68 87.27000000000001 719.78 87.36000000000001C719.88 87.48000000000002 719.98 87.60000000000001 720.0899999999999 87.72000000000001C720.0999999999999 87.73000000000002 720.1199999999999 87.76000000000002 720.1399999999999 87.78000000000002C720.2699999999999 87.94000000000001 720.3999999999999 88.11000000000001 720.5199999999999 88.30000000000001C720.5499999999998 88.27000000000001 720.5899999999999 88.23000000000002 720.6299999999999 88.20000000000002C720.6599999999999 88.17000000000002 720.6799999999998 88.15000000000002 720.6899999999998 88.14000000000001C720.8499999999998 87.99000000000001 721.0099999999999 87.85000000000001 721.1699999999998 87.71000000000001C721.1899999999998 87.71000000000001 721.2099999999998 87.69000000000001 721.2199999999998 87.68C722.4399999999998 86.7 723.7999999999998 86.11000000000001 725.3299999999998 85.89C725.3899999999998 85.89 725.4399999999998 85.88 725.4999999999998 85.87L723.5099999999998 78.34C722.9999999999998 77.84 722.4699999999998 77.45 721.9099999999997 77.18L722.6999999999997 84.93L721.0499999999997 76.83000000000001C720.7499999999998 76.74000000000001 720.4399999999997 76.68 720.1299999999998 76.66000000000001L719.8699999999998 85.78000000000002L719.2999999999997 76.65000000000002C718.8899999999998 76.68000000000002 718.4699999999997 76.75000000000001 718.0499999999997 76.87000000000002ZM702.84 62.62L704.72 58.83L707.4100000000001 61.26L705.84 64.58ZM719.87 63.8C720.41 63.8 720.87 63.94 721.28 64.23C721.39 64.31 721.5 64.41000000000001 721.6 64.51C722.07 64.98 722.3100000000001 65.55000000000001 722.3100000000001 66.23C722.3100000000001 66.9 722.07 67.47 721.6 67.95C721.13 68.43 720.5600000000001 68.67 719.87 68.67C719.2 68.67 718.63 68.43 718.15 67.95C717.68 67.47 717.4399999999999 66.9 717.4399999999999 66.23C717.4399999999999 65.55 717.68 64.98 718.15 64.51C718.27 64.4 718.39 64.29 718.52 64.21000000000001C718.91 63.93000000000001 719.37 63.80000000000001 719.87 63.80000000000001ZM717.99 52.1C718.04 52.04 718.1 51.980000000000004 718.15 51.92C718.62 51.440000000000005 719.1999999999999 51.21 719.87 51.21C720.55 51.21 721.12 51.44 721.59 51.92C721.73 52.06 721.85 52.2 721.95 52.36C722.19 52.73 722.3100000000001 53.15 722.3100000000001 53.63C722.3100000000001 54.300000000000004 722.07 54.88 721.6 55.36C721.13 55.83 720.5600000000001 56.07 719.87 56.07C719.2 56.07 718.63 55.83 718.15 55.36C717.68 54.88 717.4399999999999 54.3 717.4399999999999 53.63C717.4399999999999 53.04 717.6199999999999 52.53 717.9899999999999 52.1ZM717.67 58.75C717.78 58.5 717.9499999999999 58.28 718.15 58.07C718.63 57.6 719.1999999999999 57.36 719.88 57.36C720.56 57.36 721.13 57.6 721.6 58.07C721.76 58.24 721.9 58.4 722 58.59C722.21 58.940000000000005 722.31 59.34 722.31 59.790000000000006C722.31 60.220000000000006 722.2099999999999 60.61000000000001 722.02 60.96000000000001C721.91 61.150000000000006 721.77 61.34000000000001 721.6 61.50000000000001C721.13 61.980000000000004 720.5600000000001 62.220000000000006 719.88 62.220000000000006C719.2 62.220000000000006 718.63 61.980000000000004 718.15 61.50000000000001C718.02 61.38000000000001 717.91 61.25000000000001 717.8199999999999 61.11000000000001C717.5699999999999 60.720000000000006 717.4399999999999 60.290000000000006 717.4399999999999 59.800000000000004C717.4399999999999 59.410000000000004 717.52 59.07000000000001 717.67 58.75000000000001ZM701.93 70.53L701.4499999999999 64.31L704.67 66.36ZM704.45 55.53L702.1600000000001 53.410000000000004L703.8800000000001 50.84L706.0200000000001 52.68000000000001ZM701.21 61.44L700.6500000000001 55.19L703.2500000000001 57.46ZM718.34 53.64C718.34 54.06 718.48 54.43 718.7800000000001 54.730000000000004C719.09 55.03 719.45 55.190000000000005 719.8800000000001 55.190000000000005C720.2200000000001 55.190000000000005 720.5300000000001 55.080000000000005 720.8000000000001 54.88C720.86 54.84 720.9100000000001 54.78 720.97 54.730000000000004C721.26 54.43000000000001 721.4100000000001 54.06 721.4100000000001 53.64C721.4100000000001 53.22 721.2700000000001 52.86 720.97 52.54C720.6700000000001 52.25 720.3000000000001 52.1 719.88 52.1C719.45 52.1 719.09 52.25 718.78 52.54C718.49 52.86 718.3399999999999 53.22 718.3399999999999 53.64ZM701.36 46.14L705.15 45.39L705.1 45.410000000000004L703.34 47.89ZM719.88 58.26C719.45 58.26 719.09 58.41 718.78 58.699999999999996C718.49 58.99999999999999 718.3399999999999 59.37 718.3399999999999 59.8C718.3399999999999 60.22 718.4799999999999 60.58 718.78 60.89C719.0899999999999 61.19 719.4499999999999 61.34 719.88 61.34C720.3 61.34 720.66 61.2 720.97 60.89C721.26 60.58 721.4100000000001 60.22 721.4100000000001 59.8C721.4100000000001 59.76 721.4100000000001 59.73 721.4100000000001 59.699999999999996C721.3900000000001 59.31999999999999 721.2400000000001 58.989999999999995 720.97 58.699999999999996C720.6700000000001 58.41 720.3000000000001 58.26 719.88 58.26ZM719.88 64.69C719.45 64.69 719.09 64.84 718.78 65.13C718.49 65.42999999999999 718.3399999999999 65.8 718.3399999999999 66.22999999999999C718.3399999999999 66.64999999999999 718.4799999999999 67.02 718.78 67.32C719.0899999999999 67.63 719.4499999999999 67.77 719.88 67.77C720.3 67.77 720.66 67.63 720.97 67.32C721.26 67.02 721.4100000000001 66.64999999999999 721.4100000000001 66.22999999999999C721.4100000000001 65.79999999999998 721.2700000000001 65.43999999999998 720.97 65.13C720.6700000000001 64.83999999999999 720.3000000000001 64.69 719.88 64.69ZM700.48 51.95L700.15 47.660000000000004L702.24 49.45ZM725.61 83.43C725.53 83.42 725.46 83.41000000000001 725.38 83.41000000000001C725.34 83.41000000000001 725.3 83.41000000000001 725.27 83.41000000000001L725.9 85.57000000000001C725.97 85.57000000000001 726.04 85.56 726.11 85.55000000000001C726.12 85.55000000000001 726.12 85.55000000000001 726.13 85.55000000000001C726.23 85.54 726.32 85.54 726.4 85.54C726.47 85.54 726.53 85.54 726.6 85.54C726.76 85.54 726.9200000000001 85.54 727.07 85.55000000000001C727.1 85.55000000000001 727.1400000000001 85.55000000000001 727.1800000000001 85.56000000000002C727.2 84.87000000000002 727.32 84.30000000000001 727.5200000000001 83.88000000000001C727.4800000000001 83.86000000000001 727.44 83.85000000000001 727.4000000000001 83.84L727.4000000000001 83.83L727.3900000000001 83.83C726.8400000000001 83.59 726.2500000000001 83.45 725.6200000000001 83.42999999999999C725.6100000000001 83.41999999999999 725.6100000000001 83.41999999999999 725.6100000000001 83.42999999999999ZM705.9 56.87L706.78 55.239999999999995L707.27 58.129999999999995ZM707.6 65.73L708.35 64.47L708.7 66.44ZM704.91 49.29L705.5799999999999 48.25L705.91 50.17ZM714.22 83.93L713.4300000000001 83.92C713.1300000000001 82.8 712.6400000000001 81.88 711.97 81.15C712.98 80.81 713.9100000000001 80.82000000000001 714.76 81.18Z " fill="#007aff" fill-opacity="1" transform="matrix(1,0,0,1,-697,-35)"></path></svg>