<svg id="SvgjsSvg1000" xmlns="http://www.w3.org/2000/svg" version="1.1" xmlns:xlink="http://www.w3.org/1999/xlink" xmlns:svgjs="http://svgjs.com/svgjs" width="70" height="70"><defs id="SvgjsDefs1001"><filter id="SvgjsFilter1008" width="200%" height="200%" x="-50%" y="-50%"><feGaussianBlur id="SvgjsFeGaussianBlur1009" stdDeviation="10 " result="SvgjsFeGaussianBlur1009Out" in="SourceGraphic"></feGaussianBlur></filter></defs><path id="SvgjsPath1007" d="M705 553C705 544.71573 711.71573 538 720 538C728.28427 538 735 544.71573 735 553C735 561.28427 728.28427 568 720 568C711.71573 568 705 561.28427 705 553Z " fill="#000000" fill-opacity="0.5" filter="url(#SvgjsFilter1008)" transform="matrix(1,0,0,1,-685,-518)"></path><path id="SvgjsPath1010" d="M720.5 568C732.93 568 743 557.93 743 545.5C743 533.07 732.93 523 720.5 523C708.07 523 698 533.07 698 545.5C698 557.93 708.07 568 720.5 568ZM710.25875 541.23875C710.59875 540.9187499999999 711.14875 540.9187499999999 711.48875 541.23875L719.99875 549.05875L728.50875 541.23875C728.84875 540.9187499999999 729.39875 540.9187499999999 729.73875 541.23875C730.08875 541.5487499999999 730.08875 542.05875 729.73875 542.36875C728.7987499999999 543.23875 727.84875 544.11875 726.89875 544.98875C724.8087499999999 546.9087499999999 722.7087499999999 548.83875 720.61875 550.75875C720.27875 551.07875 719.72875 551.07875 719.38875 550.75875L710.25875 542.36875C710.07875 542.20875 709.99875 542.00875 709.99875 541.7987499999999C709.99875 541.5987499999999 710.08875 541.38875 710.25875 541.23875Z " fill="#eeeeee" fill-opacity="1" transform="matrix(1,0,0,1,-685,-518)"></path></svg>