<?xml version="1.0" encoding="UTF-8" standalone="no"?>
<svg width="259px" height="374px" viewBox="0 0 259 374" version="1.1" xmlns="http://www.w3.org/2000/svg" xmlns:xlink="http://www.w3.org/1999/xlink">
    <!-- Generator: Sketch 39.1 (31720) - http://www.bohemiancoding.com/sketch -->
    <title>Spots</title>
    <desc>Created with Sketch.</desc>
    <defs>
        <rect id="path-1" x="0" y="0" width="263" height="395"></rect>
    </defs>
    <g id="Landing-Page" stroke="none" stroke-width="1" fill="none" fill-rule="evenodd">
        <g id="EDIT-Website-Opening-•-Below-Fold-(1440x780)" transform="translate(-1181.000000, -218.000000)">
            <g id="Spots" transform="translate(1177.000000, 197.000000)">
                <mask id="mask-2" fill="white">
                    <use xlink:href="#path-1"></use>
                </mask>
                <use id="Rectangle" fill-opacity="0" fill="#FFFFFF" xlink:href="#path-1"></use>
                <polygon id="Blue-Shadow" fill="#EFF7FF" mask="url(#mask-2)" points="276.551346 79.1132614 276.551346 400.315116 -0.58820275 400.315116"></polygon>
                <g mask="url(#mask-2)" id="Spot" fill="#007AFF">
                    <g transform="translate(5.000000, 21.000000)">
                        <path d="M365.797383,102.364811 C371.180594,95.045923 374.373549,86.0320168 374.373549,76.2772415 C374.373549,75.7272024 374.328736,75.1378748 374.199897,74.5878357 L374.155084,74.4138437 L365.797383,32.4930057 C365.007546,28.5473169 361.551312,25.7185444 357.56852,25.7185444 L21.4679331,25.7185444 C17.7708266,25.7185444 14.4882442,28.1544319 13.3959173,31.746524 L0.831357036,73.7571643 L0.792145301,73.841354 C0.551273214,74.6327368 0.461646391,75.4409575 0.461646391,76.2323403 C0.461646391,88.2714617 5.29589316,99.1656037 13.0654184,107.124333 L13.0654184,347.390397 C13.0654184,352.020828 16.8521517,355.809363 21.4679331,355.809363 C26.0837145,355.809363 29.8704477,352.020828 29.8704477,347.390397 L29.8704477,117.911835 C34.4414157,119.556339 39.4101027,120.431912 44.5748484,120.431912 C59.2792491,120.431912 72.2975451,113.197214 80.2855357,102.123467 C88.2735264,113.197214 101.291822,120.431912 115.996223,120.431912 C130.700624,120.431912 143.71892,113.197214 151.70691,102.123467 C159.694901,113.197214 172.713197,120.431912 187.417598,120.431912 C202.121998,120.431912 215.140295,113.197214 223.128285,102.123467 C231.116276,113.197214 244.134572,120.431912 258.838972,120.431912 C273.543373,120.431912 286.561669,113.197214 294.54966,102.123467 C302.53765,113.197214 315.555946,120.431912 330.260347,120.431912 C337.021571,120.431912 343.452295,118.916498 349.166005,116.132627 L349.166005,347.390397 C349.166005,352.020828 352.952738,355.809363 357.56852,355.809363 C362.184301,355.809363 365.971034,352.020828 365.971034,347.390397 L365.971034,104.076667 C365.971034,103.481727 365.926221,102.9373 365.797383,102.387261 L365.797383,102.364811 L365.797383,102.364811 Z M330.260347,103.59398 C315.225448,103.59398 302.952174,91.2966768 302.952174,76.2323403 C302.952174,71.6075217 299.165441,67.8133743 294.54966,67.8133743 C289.933878,67.8133743 286.147145,71.6075217 286.147145,76.2323403 C286.147145,91.2966768 273.873872,103.59398 258.838972,103.59398 C243.804073,103.59398 231.5308,91.2966768 231.5308,76.2323403 C231.5308,71.6075217 227.744067,67.8133743 223.128285,67.8133743 C218.512504,67.8133743 214.72577,71.6075217 214.72577,76.2323403 C214.72577,91.2966768 202.452497,103.59398 187.417598,103.59398 C172.382698,103.59398 160.109425,91.2966768 160.109425,76.2323403 C160.109425,71.6075217 156.322692,67.8133743 151.70691,67.8133743 C147.091129,67.8133743 143.304396,71.6075217 143.304396,76.2323403 C143.304396,91.2966768 131.031123,103.59398 115.996223,103.59398 C100.961324,103.59398 88.6880504,91.2966768 88.6880504,76.2323403 C88.6880504,71.6075217 84.9013171,67.8133743 80.2855357,67.8133743 C75.6697544,67.8133743 71.8830211,71.6075217 71.8830211,76.2323403 C71.8830211,91.2966768 59.609748,103.59398 44.5748484,103.59398 C29.9152611,103.59398 17.8548518,91.8860044 17.3114891,77.3268059 L27.7250057,42.5564764 L350.678458,42.5564764 L357.523706,76.9114703 C357.198809,91.6895619 345.093586,103.59398 330.260347,103.59398 L330.260347,103.59398 Z M349.166005,17.2995784 L29.8704477,17.2995784 C25.2322596,17.2995784 21.4679331,13.5278816 21.4679331,8.88061239 C21.4679331,4.23334316 25.2322596,0.46164639 29.8704477,0.46164639 L349.166005,0.46164639 C353.804193,0.46164639 357.56852,4.23334316 357.56852,8.88061239 C357.56852,13.5278816 353.804193,17.2995784 349.166005,17.2995784 L349.166005,17.2995784 Z M365.971034,379.315116 L8.86416106,379.315116 C4.22597296,379.315116 0.461646391,375.543419 0.461646391,370.89615 C0.461646391,366.248881 4.22597296,362.477184 8.86416106,362.477184 L365.971034,362.477184 C370.609223,362.477184 374.373549,366.248881 374.373549,370.89615 C374.373549,375.543419 370.609223,379.315116 365.971034,379.315116 L365.971034,379.315116 Z M139.103138,346.514825 L55.0779917,346.514825 C50.4398036,346.514825 46.6754771,342.743128 46.6754771,338.095859 L46.6754771,161.297573 C46.6754771,156.650304 50.4398036,152.878607 55.0779917,152.878607 L139.103138,152.878607 C143.741327,152.878607 147.505653,156.650304 147.505653,161.297573 L147.505653,338.095859 C147.505653,342.743128 143.741327,346.514825 139.103138,346.514825 L139.103138,346.514825 Z M63.4805064,329.676893 L130.700624,329.676893 L130.700624,169.716539 L63.4805064,169.716539 L63.4805064,329.676893 Z M323.958461,346.514825 L172.713197,346.514825 C168.075009,346.514825 164.310682,342.743128 164.310682,338.095859 L164.310682,161.297573 C164.310682,156.650304 168.075009,152.878607 172.713197,152.878607 L323.958461,152.878607 C328.596649,152.878607 332.360976,156.650304 332.360976,161.297573 L332.360976,338.095859 C332.360976,342.743128 328.596649,346.514825 323.958461,346.514825 L323.958461,346.514825 Z M181.115712,329.676893 L315.555946,329.676893 L315.555946,169.716539 L181.115712,169.716539 L181.115712,329.676893 Z M119.144365,258.115682 C119.144365,262.762951 115.38564,266.534648 110.741851,266.534648 C106.103662,266.534648 102.339336,262.762951 102.339336,258.115682 C102.339336,253.468412 106.103662,249.696716 110.741851,249.696716 C115.38564,249.696716 119.144365,253.468412 119.144365,258.115682 L119.144365,258.115682 Z M223.27953,268.465397 C221.13969,268.465397 218.994248,267.651564 217.352957,265.990221 C214.070374,262.701212 214.070374,257.3692 217.352957,254.085803 L238.028744,233.363922 C241.311327,230.074912 246.627318,230.074912 249.9099,233.363922 C253.192483,236.652931 253.192483,241.97933 249.9099,245.26834 L229.234112,265.990221 C227.592821,267.651564 225.447379,268.465397 223.27953,268.465397 L223.27953,268.465397 Z M252.688332,268.465397 C250.548491,268.465397 248.403049,267.651564 246.761758,265.990221 C243.479176,262.701212 243.479176,257.3692 246.761758,254.085803 L267.437546,233.363922 C270.720128,230.074912 276.036119,230.074912 279.318702,233.363922 C282.601284,236.652931 282.601284,241.97933 279.318702,245.26834 L258.642914,265.990221 C257.001623,267.651564 254.856181,268.465397 252.688332,268.465397 L252.688332,268.465397 Z"></path>
                    </g>
                </g>
            </g>
        </g>
    </g>
</svg>