<?xml version="1.0" encoding="UTF-8" standalone="no"?>
<svg width="471px" height="355px" viewBox="0 0 471 355" version="1.1" xmlns="http://www.w3.org/2000/svg" xmlns:xlink="http://www.w3.org/1999/xlink">
    <!-- Generator: Sketch 39.1 (31720) - http://www.bohemiancoding.com/sketch -->
    <title>Features</title>
    <desc>Created with Sketch.</desc>
    <defs></defs>
    <g id="Landing-Page" stroke="none" stroke-width="1" fill="none" fill-rule="evenodd">
        <g id="Vector---Website-3-Body-(1440x780)" transform="translate(-125.000000, -350.000000)">
            <g id="Features" transform="translate(125.000000, 350.000000)">
                <g id="Follow-Friends">
                    <rect id="ECH" fill="#007AFF" x="0" y="0" width="213" height="170" rx="6"></rect>
                    <path d="M83.75,97.35 L83.75,95.5 L72.85,95.5 L72.85,113 L74.875,113 L74.875,105.175 L82.1,105.175 L82.1,103.425 L74.875,103.425 L74.875,97.35 L83.75,97.35 Z M91.4,99.85 C88.55,99.85 85.4,101.9 85.4,106.525 C85.4,111.175 88.55,113.225 91.4,113.225 C94.25,113.225 97.425,111.175 97.425,106.525 C97.425,101.9 94.25,99.85 91.4,99.85 L91.4,99.85 Z M95.525,106.525 C95.525,110.05 93.525,111.625 91.4,111.625 C89.3,111.625 87.3,110.05 87.3,106.525 C87.3,103 89.3,101.45 91.4,101.45 C93.525,101.45 95.525,103 95.525,106.525 L95.525,106.525 Z M99.675,95.5 L99.675,113 L101.6,113 L101.6,95.5 L99.675,95.5 Z M104.5,95.5 L104.5,113 L106.425,113 L106.425,95.5 L104.5,95.5 Z M114.7,99.85 C111.85,99.85 108.7,101.9 108.7,106.525 C108.7,111.175 111.85,113.225 114.7,113.225 C117.55,113.225 120.725,111.175 120.725,106.525 C120.725,101.9 117.55,99.85 114.7,99.85 L114.7,99.85 Z M118.825,106.525 C118.825,110.05 116.825,111.625 114.7,111.625 C112.6,111.625 110.6,110.05 110.6,106.525 C110.6,103 112.6,101.45 114.7,101.45 C116.825,101.45 118.825,103 118.825,106.525 L118.825,106.525 Z M141.025,100 L139.075,100 L136.05,110.625 L132.35,100 L130.775,100 L127.05,110.625 L124.05,100 L122.1,100 L125.975,113 L127.75,113 L131.55,102.375 L135.35,113 L137.15,113 L141.025,100 Z M78.35,125.35 L78.35,123.5 L67.45,123.5 L67.45,141 L69.475,141 L69.475,133.175 L76.7,133.175 L76.7,131.425 L69.475,131.425 L69.475,125.35 L78.35,125.35 Z M86.925,127.875 C84.45,127.875 82.825,129.45 82.425,131.225 L82.425,128 L80.5,128 L80.5,141 L82.425,141 L82.425,133.4 C82.9,131.075 84.45,129.625 87,129.6 C87.3,129.6 87.55,129.6 87.875,129.625 L87.875,127.925 C87.525,127.9 87.25,127.875 86.925,127.875 L86.925,127.875 Z M89.9,123.5 L89.9,125.375 L91.825,125.375 L91.825,123.5 L89.9,123.5 Z M89.9,128 L89.9,141 L91.825,141 L91.825,128 L89.9,128 Z M105.9,134.6 C105.9,129.875 103.125,127.85 100.1,127.85 C97.15,127.85 94.1,129.925 94.1,134.525 C94.1,139.2 97.2,141.225 100.15,141.225 C102.675,141.225 104.4,140.375 105.5,138.15 L103.625,138.15 C102.8,139.25 101.7,139.625 100.3,139.625 C98.15,139.625 96.25,138.275 96,135.2 L105.9,135.2 L105.9,134.6 Z M100.1,129.45 C102.175,129.45 103.85,130.85 104,133.85 L96,133.85 C96.25,130.85 98.075,129.45 100.1,129.45 L100.1,129.45 Z M114.675,127.875 C111.85,127.875 110.325,130.05 110.05,131 L110.05,128 L108.125,128 L108.125,141 L110.05,141 L110.05,132.95 C110.3,131.7 111.65,129.55 114.175,129.55 C116,129.55 117.375,130.425 117.375,133.175 L117.375,141 L119.3,141 L119.3,133.05 C119.3,129.15 117.275,127.875 114.675,127.875 L114.675,127.875 Z M127.15,127.85 C124.45,127.85 121.525,129.85 121.525,134.5 C121.525,139.2 124.45,141.225 127.15,141.225 C129.35,141.225 130.825,140.05 131.5,138.45 L131.5,141 L133.425,141 L133.425,123.5 L131.5,123.5 L131.5,130.425 C130.675,128.8 129.25,127.85 127.15,127.85 L127.15,127.85 Z M127.45,139.625 C125.325,139.625 123.425,138.075 123.425,134.5 C123.425,130.95 125.325,129.45 127.45,129.45 C129.625,129.45 131.6,130.95 131.6,134.5 C131.6,138 129.625,139.625 127.45,139.625 L127.45,139.625 Z M144,131.25 L145.775,131.25 C145.2,128.925 143.5,127.85 140.825,127.85 C137.875,127.85 136.025,129.075 136.025,131.35 C136.025,133.25 137.2,134.25 139.625,134.825 L141.925,135.375 C143.425,135.725 144.225,136.125 144.225,137.475 C144.225,139.075 142.775,139.7 140.95,139.7 C139.25,139.7 137.775,139.15 137.4,137.35 L135.625,137.35 C135.975,140.05 138.1,141.175 140.95,141.175 C143.75,141.175 146.2,140.2 146.2,137.475 C146.2,135.1 144.7,134.55 142.275,133.975 L140.225,133.475 C138.575,133.075 137.975,132.5 137.975,131.35 C137.975,130.1 138.9,129.325 140.85,129.325 C142.45,129.325 143.475,129.8 144,131.25 L144,131.25 Z" fill="#FFFFFF"></path>
                    <g id="Group" transform="translate(69.000000, 13.000000)" fill="#FFFFFF">
                        <path d="M56.5231969,17.7406452 C56.5231969,16.8370968 57.2541646,16.1074194 58.1564227,16.1074194 C59.0586807,16.1074194 59.7893259,16.8383871 59.7893259,17.7406452 C59.7893259,18.6429032 59.0573904,19.3735484 58.1564227,19.3735484 C57.2541646,19.3735484 56.5231969,18.6429032 56.5231969,17.7406452 L56.5231969,17.7406452 Z M72.0825517,32.5806452 L70.681584,27.1935484 C70.681584,27.1935484 69.431584,22.9409677 64.121584,22.5767742 L63.8883582,22.5793548 L63.8883582,21.9693548 C64.0851323,21.9025806 64.2751323,21.8258065 64.4593259,21.7374194 C64.6783582,21.6406452 64.901584,21.5283871 65.1257775,21.3974194 L65.0941646,21.3758065 C66.3393259,20.5429032 67.1496485,19.1935484 67.1496485,17.6674194 C67.1496485,15.1383871 64.9241646,13.0883871 62.1783582,13.0883871 C60.9790033,13.0883871 59.8799711,13.4790323 59.0219065,14.1303226 C60.687713,14.5322581 61.927713,16.0319355 61.927713,17.8212903 C61.927713,19.0219355 61.3683582,20.0906452 60.4973904,20.786129 C60.1283582,21.0709677 59.7061001,21.2903226 59.2486807,21.426129 C59.3799711,21.5270968 59.9141646,21.8445161 60.7080356,22.05 L60.7080356,22.5945161 L60.2606162,22.5967742 C56.5370678,22.6409677 54.5964227,24.9003226 54.5964227,24.9003226 L56.0909388,20.9348387 C55.7496485,20.7141935 55.4444872,20.4722581 55.1899711,20.2025806 L56.1325517,19.5790323 C56.6341646,20.1309677 57.3548098,20.4787097 58.1564227,20.4787097 C59.6670678,20.4787097 60.8957775,19.25 60.8957775,17.7393548 C60.8957775,16.2283871 59.6670678,15 58.1564227,15 C56.6454549,15 55.4167452,16.2283871 55.4167452,17.7393548 C55.4167452,18.0519355 55.4709388,18.3490323 55.5680356,18.6290323 L54.7706162,19.1567742 C54.3899711,18.773871 53.5028743,18.8670968 52.7025517,19.3974194 C51.9012614,19.9280645 51.467713,20.7080645 51.6731969,21.2083871 L50.8728743,21.7387097 L50.8754549,21.743871 C50.6586807,21.9203226 50.6057775,22.233871 50.7635194,22.4722581 C50.9209388,22.7103226 51.2309388,22.7832258 51.4790033,22.6535484 L51.4828743,22.6574194 L52.7441646,21.8232258 L50.3083582,28.9490323 C49.9431969,29.7593548 49.8348098,30.81 50.3602936,31.5335484 C50.7609388,32.0841935 51.3935194,32.4041935 52.0499711,32.393871 C52.6270678,32.383871 53.3251323,31.9654839 53.6680356,31.4629032 L56.2473904,27.1648387 L55.8086807,32.5806452 L67.6219065,32.5806452 L67.8286807,29.1203226 L68.5470678,32.5806452 L72.0825517,32.5806452 Z" id="Page-1"></path>
                        <path d="M6.52319686,24.8374194 C6.52319686,23.933871 7.2541646,23.2041935 8.15642267,23.2041935 C9.05868073,23.2041935 9.78932589,23.9351613 9.78932589,24.8374194 C9.78932589,25.7396774 9.05739041,26.4703226 8.15642267,26.4703226 C7.2541646,26.4703226 6.52319686,25.7396774 6.52319686,24.8374194 L6.52319686,24.8374194 Z M22.0825517,39.6774194 L20.681584,34.2903226 C20.681584,34.2903226 19.431584,30.0377419 14.121584,29.6735484 L13.8883582,29.676129 L13.8883582,29.066129 C14.0851323,28.9993548 14.2751323,28.9225806 14.4593259,28.8341935 C14.6783582,28.7374194 14.901584,28.6251613 15.1257775,28.4941935 L15.0941646,28.4725806 C16.3393259,27.6396774 17.1496485,26.2903226 17.1496485,24.7641935 C17.1496485,22.2351613 14.9241646,20.1851613 12.1783582,20.1851613 C10.9790033,20.1851613 9.87997105,20.5758065 9.02190654,21.2270968 C10.687713,21.6290323 11.927713,23.1287097 11.927713,24.9180645 C11.927713,26.1187097 11.3683582,27.1874194 10.4973904,27.8829032 C10.1283582,28.1677419 9.70610009,28.3870968 9.24868073,28.5229032 C9.37997105,28.623871 9.9141646,28.9412903 10.7080356,29.1467742 L10.7080356,29.6912903 L10.2606162,29.6935484 C6.53706783,29.7377419 4.59642267,31.9970968 4.59642267,31.9970968 L6.0909388,28.0316129 C5.74964847,27.8109677 5.44448718,27.5690323 5.18997105,27.2993548 L6.1325517,26.6758065 C6.6341646,27.2277419 7.35480976,27.5754839 8.15642267,27.5754839 C9.66706783,27.5754839 10.8957775,26.3467742 10.8957775,24.836129 C10.8957775,23.3251613 9.66706783,22.0967742 8.15642267,22.0967742 C6.64545493,22.0967742 5.41674525,23.3251613 5.41674525,24.836129 C5.41674525,25.1487097 5.4709388,25.4458065 5.56803557,25.7258065 L4.77061622,26.2535484 C4.38997105,25.8706452 3.50287428,25.963871 2.7025517,26.4941935 C1.90126138,27.0248387 1.46771299,27.8048387 1.67319686,28.3051613 L0.872874281,28.8354839 L0.875454926,28.8406452 C0.658680732,29.0170968 0.605777506,29.3306452 0.763519442,29.5690323 C0.920938797,29.8070968 1.2309388,29.88 1.47900331,29.7503226 L1.48287428,29.7541935 L2.7441646,28.92 L0.308358152,36.0458065 C-0.0568031388,36.856129 -0.165190236,37.9067742 0.360293635,38.6303226 C0.760938797,39.1809677 1.39351944,39.5009677 2.04997105,39.4906452 C2.62706783,39.4806452 3.32513235,39.0622581 3.66803557,38.5596774 L6.24739041,34.2616129 L5.80868073,39.6774194 L17.6219065,39.6774194 L17.8286807,36.2170968 L18.5470678,39.6774194 L22.0825517,39.6774194 Z" id="Page-1" transform="translate(12.096774, 27.580645) scale(-1, 1) translate(-12.096774, -27.580645) "></path>
                        <path d="M28.7812614,9.35354839 C28.7812614,8.45 29.5122291,7.72032258 30.4144872,7.72032258 C31.3167452,7.72032258 32.0473904,8.45129032 32.0473904,9.35354839 C32.0473904,10.2558065 31.3154549,10.9864516 30.4144872,10.9864516 C29.5122291,10.9864516 28.7812614,10.2558065 28.7812614,9.35354839 L28.7812614,9.35354839 Z M44.3406162,24.1935484 L42.9396485,18.8064516 C42.9396485,18.8064516 41.6896485,14.553871 36.3796485,14.1896774 L36.1464227,14.1922581 L36.1464227,13.5822581 C36.3431969,13.5154839 36.5331969,13.4387097 36.7173904,13.3503226 C36.9364227,13.2535484 37.1596485,13.1412903 37.383842,13.0103226 L37.3522291,12.9887097 C38.5973904,12.1558065 39.407713,10.8064516 39.407713,9.28032258 C39.407713,6.75129032 37.1822291,4.70129032 34.4364227,4.70129032 C33.2370678,4.70129032 32.1380356,5.09193548 31.2799711,5.74322581 C32.9457775,6.14516129 34.1857775,7.64483871 34.1857775,9.43419355 C34.1857775,10.6348387 33.6264227,11.7035484 32.7554549,12.3990323 C32.3864227,12.683871 31.9641646,12.9032258 31.5067452,13.0390323 C31.6380356,13.14 32.1722291,13.4574194 32.9661001,13.6629032 L32.9661001,14.2074194 L32.5186807,14.2096774 C28.7951323,14.253871 26.8544872,16.5132258 26.8544872,16.5132258 L28.3490033,12.5477419 C28.007713,12.3270968 27.7025517,12.0851613 27.4480356,11.8154839 L28.3906162,11.1919355 C28.8922291,11.743871 29.6128743,12.0916129 30.4144872,12.0916129 C31.9251323,12.0916129 33.153842,10.8629032 33.153842,9.35225806 C33.153842,7.84129032 31.9251323,6.61290323 30.4144872,6.61290323 C28.9035194,6.61290323 27.6748098,7.84129032 27.6748098,9.35225806 C27.6748098,9.66483871 27.7290033,9.96193548 27.8261001,10.2419355 L27.0286807,10.7696774 C26.6480356,10.3867742 25.7609388,10.48 24.9606162,11.0103226 C24.1593259,11.5409677 23.7257775,12.3209677 23.9312614,12.8212903 L23.1309388,13.3516129 L23.1335194,13.3567742 C22.9167452,13.5332258 22.863842,13.8467742 23.021584,14.0851613 C23.1790033,14.3232258 23.4890033,14.396129 23.7370678,14.2664516 L23.7409388,14.2703226 L25.0022291,13.436129 L22.5664227,20.5619355 C22.2012614,21.3722581 22.0928743,22.4229032 22.6183582,23.1464516 C23.0190033,23.6970968 23.651584,24.0170968 24.3080356,24.0067742 C24.8851323,23.9967742 25.5831969,23.5783871 25.9261001,23.0758065 L28.5054549,18.7777419 L28.0667452,24.1935484 L39.8799711,24.1935484 L40.0867452,20.7332258 L40.8051323,24.1935484 L44.3406162,24.1935484 Z" id="Page-1"></path>
                        <g id="Page-1" transform="translate(16.774194, 23.870968)">
                            <path d="M23.8431291,20.1356887 C23.6830872,20.1356887 23.5204431,20.075803 23.3903277,19.9532463 C22.0566454,18.7046996 20.0411588,18.7046996 18.7120305,19.9532463 C18.4277285,20.2199464 17.990541,20.1900036 17.7439724,19.8857008 C17.4921992,19.5807017 17.5227763,19.1155432 17.8070783,18.8488431 C19.6195851,17.1490648 22.4808215,17.1462795 24.2952799,18.8488431 C24.5802325,19.1155432 24.6082073,19.5807017 24.3590364,19.8857008 C24.2243671,20.0514309 24.0363504,20.1356887 23.8431291,20.1356887 L23.8431291,20.1356887 Z" id="Fill-3" transform="translate(21.050947, 18.854327) scale(1, -1) translate(-21.050947, -18.854327) "></path>
                            <path d="M41.2891717,31.6985398 L35.048484,31.6985398 C34.4343169,28.7180954 33.4642272,25.9440973 32.1629689,23.5870007 C34.4316408,20.9933927 35.6726866,17.7076214 35.6726866,14.2361152 C35.6726866,6.38580763 29.2754466,0 21.4143746,0 C13.5533026,0 7.15806963,6.38580763 7.15806963,14.2361152 C7.15806963,17.7076214 8.3997845,20.9933927 10.6677874,23.5870007 C9.36652909,25.9467698 8.39710839,28.7180954 7.78294123,31.6985398 L1.54225361,31.6985398 C0.891289943,31.6985398 0.366103431,32.2256796 0.366103431,32.8730794 C0.366103431,33.5204792 0.893966052,34.047619 1.54225361,34.047619 L41.2891717,34.047619 C41.9394663,34.047619 42.467998,33.5204792 42.467998,32.8730794 C42.467998,32.2256796 41.9394663,31.6985398 41.2891717,31.6985398 L41.2891717,31.6985398 Z M13.1271321,24.0306266 L13.6001345,23.2482683 L12.9571992,22.598196 C10.7360282,20.3560145 9.51036999,17.3862599 9.51036999,14.2387876 C9.51036999,7.68327974 14.8518848,2.3510836 21.4143746,2.3510836 C27.9788715,2.3510836 33.3210553,7.68327974 33.3210553,14.2387876 C33.3210553,17.3889323 32.0980732,20.3560145 29.8762332,22.598196 L29.2332978,23.2482683 L29.7089763,24.0306266 C31.0236152,26.2046607 32.0090925,28.8356829 32.6439996,31.6985398 L10.1921089,31.6985398 C10.8276849,28.8356829 11.8124933,26.2046607 13.1271321,24.0306266 L13.1271321,24.0306266 Z" id="Fill-4" stroke="#007AFF"></path>
                            <path d="M24.7119816,11.7928011 C25.8240449,11.7928011 26.7255504,12.4421784 26.7255504,11.7928011 C26.7255504,11.1434238 25.8240449,10.6169995 24.7119816,10.6169995 C23.5999182,10.6169995 22.6984127,11.1434238 22.6984127,11.7928011 C22.6984127,12.4421784 23.5999182,11.7928011 24.7119816,11.7928011 Z" id="Oval-2"></path>
                            <path d="M17.389913,11.7928011 C18.5019763,11.7928011 19.4034818,12.4421784 19.4034818,11.7928011 C19.4034818,11.1434238 18.5019763,10.6169995 17.389913,10.6169995 C16.2778496,10.6169995 15.3763441,11.1434238 15.3763441,11.7928011 C15.3763441,12.4421784 16.2778496,11.7928011 17.389913,11.7928011 Z" id="Oval-2"></path>
                            <path d="M21.0512807,39.1730671 C15.800204,39.1730671 12.4475166,40.2564344 12.4475166,41.0035842 C12.4475166,41.7513895 15.7975368,42.8341014 21.0512807,42.8341014 C26.3050245,42.8341014 29.6543779,41.7513895 29.6543779,41.0035842 C29.6543779,40.2564344 26.3050245,39.1730671 21.0512807,39.1730671 L21.0512807,39.1730671 Z" id="Fill-5"></path>
                            <path d="M21.0509473,36.9764465 C13.8731162,36.9764465 8.05427547,38.8617889 8.05427547,41.1862955 C8.05427547,43.5108021 13.8731162,45.3968254 21.0509473,45.3968254 C28.2281147,45.3968254 34.047619,43.5108021 34.047619,41.1862955 C34.047619,38.8617889 28.230769,36.9764465 21.0509473,36.9764465 L21.0509473,36.9764465 Z M21.0509473,43.8410264 C16.4318401,43.8410264 11.7583203,42.9286542 11.7583203,41.1862955 C11.7583203,39.4446177 16.4344944,38.5322455 21.0509473,38.5322455 C25.6700544,38.5322455 30.3462285,39.4446177 30.3462285,41.1862955 C30.3462285,42.9259307 25.6700544,43.8410264 21.0509473,43.8410264 L21.0509473,43.8410264 Z" id="Fill-6"></path>
                            <path d="M44.312876,45.445608 C44.0400333,45.498018 43.7385754,45.4294818 43.6394203,45.2930814 L42.7709819,44.0728685 L42.4176173,43.5743013 C42.3424192,43.4667936 42.1008536,43.411024 41.8845758,43.4533551 C41.6663016,43.4956863 41.5545026,43.6159606 41.6303662,43.7207806 L42.0875442,44.366499 L42.8521693,45.4402326 C42.9479969,45.576633 42.802259,45.726472 42.5267544,45.778882 C42.2512498,45.831292 41.9524537,45.7627558 41.8539642,45.6263554 L41.0893391,44.5532937 L40.6321611,43.9075753 C40.5536357,43.8000676 40.3147319,43.7469857 40.0991196,43.7866291 C39.8835073,43.8262726 39.7690464,43.9492346 39.8469064,44.0547266 L40.200271,44.5532937 L41.0687095,45.7735066 C41.1645372,45.909907 41.0168028,46.0624336 40.7439601,46.112156 C40.4704519,46.1618783 40.1663321,46.0987175 40.0705044,45.9623171 L38.5758586,43.8598688 L38.499995,43.7550487 L38.4587359,43.699951 C38.1053713,43.2040716 38.5186282,42.6557821 39.3864012,42.3722304 L34.9230934,36.8335659 C34.7826793,36.6366924 34.5071746,36.1119202 35.5160273,35.920422 C36.5248799,35.7316116 36.9767341,36.2248033 37.1144864,36.4216769 L40.6474669,42.1330257 C41.6663016,42.059786 42.6671686,42.3433377 43.0205332,42.8392172 L43.0597959,42.8943149 L43.134994,42.9991349 L44.6296398,45.1015832 C44.7367805,45.2406713 44.5883807,45.393198 44.312876,45.445608 L44.312876,45.445608 Z" id="Fill-7"></path>
                            <path d="M3.35394081,42.6467455 L1.71136558,45.4414648 C1.58501364,45.6551243 1.19937699,45.7889912 0.832166663,45.7586569 C-1.58957887,45.3280406 2.04501368,40.0656858 2.04501368,40.0656858 C2.17663028,39.8414752 2.59056451,39.6996949 2.97093649,39.7484937 L3.672453,39.8361996 L5.37952037,36.4769972 C5.49271065,36.281802 5.86255331,35.7872198 6.70555766,35.8927307 C7.54658777,35.9982416 7.32020721,36.5132665 7.20701693,36.7091211 L3.35394081,42.6467455 Z" id="Fill-8"></path>
                        </g>
                    </g>
                </g>
                <g id="Sharing" transform="translate(0.000000, 185.000000)">
                    <rect id="ECH" fill="#007AFF" x="0" y="0" width="213" height="170" rx="6"></rect>
                    <path d="M72.9875,117.325 L70.6625,116.825 C68.5625,116.4 67.7375,115.35 67.7375,113.9 C67.7375,112.4 68.7375,111.075 71.5875,111.075 C74.3375,111.075 75.3375,112.175 75.5875,113.775 L77.6625,113.775 C77.3125,111 75.3375,109.3 71.5875,109.3 C67.6625,109.3 65.6375,111.225 65.6375,113.875 C65.6375,116.475 67.3625,117.9 70.2875,118.525 L72.8125,119.05 C74.7125,119.45 76.1625,120.3 76.1625,122.35 C76.1625,124.25 74.8375,125.425 71.7375,125.425 C68.6375,125.425 67.5875,123.95 67.2875,122.075 L65.1875,122.075 C65.5125,125.125 67.5625,127.2 71.7375,127.2 C75.7625,127.2 78.2625,125.45 78.2625,122.35 C78.2625,119.35 76.2375,118.025 72.9875,117.325 L72.9875,117.325 Z M87.1875,113.875 C84.3625,113.875 82.8625,116.05 82.5625,117 L82.5625,114 L82.5625,109.5 L80.6375,109.5 L80.6375,127 L82.5625,127 L82.5625,118.95 C82.8125,117.7 84.1625,115.575 86.7125,115.575 C88.5125,115.575 89.9125,116.425 89.9125,119.175 L89.9125,127 L91.8375,127 L91.8375,119.05 C91.8375,115.15 89.7875,113.875 87.1875,113.875 L87.1875,113.875 Z M105.0125,124.7 L105.0125,118.8 C105.0125,115.15 103.3375,113.85 99.8875,113.85 C96.9625,113.85 95.1125,114.975 94.8375,117.2 L96.6875,117.2 C96.8875,116.025 97.8875,115.375 99.8625,115.375 C102.0125,115.375 103.0875,116.025 103.0875,118.35 L103.0875,118.625 C102.1625,119.125 100.0375,119.325 98.5375,119.525 C95.6875,119.9 94.0375,121.075 94.0375,123.425 C94.0375,125.95 95.8875,127.225 98.3625,127.225 C101.5125,127.225 102.9125,125.075 103.2625,124.35 L103.2625,125.25 C103.2625,126.625 103.9625,127.125 105.1875,127.125 C105.5125,127.125 105.7125,127.1 106.0375,127 L106.0375,125.675 C105.2875,125.7 105.0125,125.425 105.0125,124.7 L105.0125,124.7 Z M103.0875,122.9 C102.7625,123.6 101.4625,125.7 98.6625,125.7 C96.9375,125.7 95.9875,124.775 95.9875,123.35 C95.9875,121.975 96.6875,121.2 98.5125,120.925 C100.6125,120.625 102.3625,120.4 103.0875,120 L103.0875,122.9 Z M114.4625,113.875 C111.9875,113.875 110.3625,115.45 109.9625,117.225 L109.9625,114 L108.0375,114 L108.0375,127 L109.9625,127 L109.9625,119.4 C110.4375,117.075 111.9875,115.625 114.5375,115.6 C114.8375,115.6 115.0875,115.6 115.4125,115.625 L115.4125,113.925 C115.0625,113.9 114.7875,113.875 114.4625,113.875 L114.4625,113.875 Z M117.4375,109.5 L117.4375,111.375 L119.3625,111.375 L119.3625,109.5 L117.4375,109.5 Z M117.4375,114 L117.4375,127 L119.3625,127 L119.3625,114 L117.4375,114 Z M128.7625,113.875 C125.9375,113.875 124.4125,116.05 124.1375,117 L124.1375,114 L122.2125,114 L122.2125,127 L124.1375,127 L124.1375,118.95 C124.3875,117.7 125.7375,115.55 128.2625,115.55 C130.0875,115.55 131.4625,116.425 131.4625,119.175 L131.4625,127 L133.3875,127 L133.3875,119.05 C133.3875,115.15 131.3625,113.875 128.7625,113.875 L128.7625,113.875 Z M145.5875,114 L145.5875,116.425 C144.7625,114.8 143.3375,113.85 141.2375,113.85 C138.5375,113.85 135.6125,115.85 135.6125,120.5 C135.6125,125.075 138.5375,127.05 141.2375,127.05 C143.4375,127.05 144.9125,125.925 145.5875,124.45 L145.5875,126.85 C145.5875,129.9 144.0125,130.875 141.3625,130.875 C139.5125,130.875 138.1625,130.225 137.4875,129.225 L136.2125,130 C137.0625,131.525 139.0375,132.5 141.3625,132.5 C144.2625,132.5 147.4375,131.55 147.5125,127 L147.5125,126.85 L147.5125,114 L145.5875,114 Z M141.5375,125.4 C139.4125,125.4 137.5125,123.95 137.5125,120.5 C137.5125,116.95 139.4125,115.5 141.5375,115.5 C143.7125,115.5 145.6875,116.95 145.6875,120.5 C145.6875,124 143.7125,125.4 141.5375,125.4 L141.5375,125.4 Z" fill="#FFFFFF"></path>
                    <g id="Share-Icon" transform="translate(106.000000, 49.400000) rotate(-90.000000) translate(-106.000000, -49.400000) translate(75.600000, 21.400000)" fill="#FFFFFF">
                        <path d="M59.898,26.344 C59.871,26.258 59.848,26.168 59.812,26.086 C59.668,25.719 59.449,25.371 59.148,25.074 L51.414,17.34 C50.254,16.18 48.375,16.18 47.215,17.34 C46.055,18.5 46.055,20.457 47.215,21.617 L50.02,24.5 L23.73,24.5 C22.129,24.5 20.832,25.898 20.832,27.5 C20.832,29.102 22.129,30.5 23.73,30.5 L50.406,30.5 L47.359,33.371 C46.199,34.531 46.199,36.324 47.359,37.48 C48.52,38.641 50.398,38.594 51.559,37.434 L59.293,29.676 C60.191,28.781 60.387,27.438 59.898,26.344 L59.898,26.344 Z" id="Fill-1"></path>
                        <path d="M34.25,37.895 L34.25,45.578 C34.25,47.391 33.031,49.25 31.219,49.25 L10.258,49.25 C8.445,49.25 6.5,47.391 6.5,45.578 L6.5,9.152 C6.5,7.34 8.445,6.5 10.258,6.5 L31.215,6.5 C33.031,6.5 34.25,7.34 34.25,9.152 L34.25,16.836 C34.25,18.438 35.273,19.734 36.875,19.734 C38.477,19.734 39.5,18.438 39.5,16.836 L39.5,9.152 C39.5,4.148 36.223,0.5 31.219,0.5 L10.258,0.5 C5.254,0.5 0.5,4.148 0.5,9.152 L0.5,45.578 C0.5,50.582 5.254,55.25 10.258,55.25 L31.215,55.25 C36.223,55.25 39.5,50.582 39.5,45.578 L39.5,37.895 C39.5,36.297 38.477,34.996 36.875,34.996 C35.273,34.996 34.25,36.293 34.25,37.895 Z" id="Fill-2"></path>
                    </g>
                </g>
                <g id="Local-User-Activity" transform="translate(258.000000, 185.000000)">
                    <text id="Five-Star-System" font-family="ArticulatCF-Medium, Articulat CF" font-size="25" font-weight="400" line-spacing="28" fill="#FFFFFF">
                        <tspan x="53.2375" y="114">Five Star</tspan>
                        <tspan x="60.2" y="142">System</tspan>
                    </text>
                    <rect id="ECH" fill="#007AFF" x="0" y="0" width="213" height="170" rx="6"></rect>
                    <path d="M52.0875,111.15 L52.0875,95.5 L50.0625,95.5 L50.0625,113 L60.2625,113 L60.2625,111.15 L52.0875,111.15 Z M68.1625,99.85 C65.3125,99.85 62.1625,101.9 62.1625,106.525 C62.1625,111.175 65.3125,113.225 68.1625,113.225 C71.0125,113.225 74.1875,111.175 74.1875,106.525 C74.1875,101.9 71.0125,99.85 68.1625,99.85 L68.1625,99.85 Z M72.2875,106.525 C72.2875,110.05 70.2875,111.625 68.1625,111.625 C66.0625,111.625 64.0625,110.05 64.0625,106.525 C64.0625,103 66.0625,101.45 68.1625,101.45 C70.2875,101.45 72.2875,103 72.2875,106.525 L72.2875,106.525 Z M81.7875,111.625 C79.5875,111.625 77.7125,110.025 77.7125,106.525 C77.7125,103.025 79.5875,101.45 81.7875,101.45 C83.6375,101.45 84.6625,102.225 85.2375,103.625 L87.0125,103.625 C86.1875,100.825 84.1625,99.85 81.7625,99.85 C78.8125,99.85 75.8125,101.825 75.8125,106.525 C75.8125,111.225 78.8125,113.225 81.7625,113.225 C84.1875,113.225 86.2625,112.225 87.0625,109.35 L85.2875,109.35 C84.7125,110.825 83.6875,111.625 81.7875,111.625 L81.7875,111.625 Z M99.5625,110.7 L99.5625,104.8 C99.5625,101.15 97.8875,99.85 94.4375,99.85 C91.5125,99.85 89.6625,100.975 89.3875,103.2 L91.2375,103.2 C91.4375,102.025 92.4375,101.375 94.4125,101.375 C96.5625,101.375 97.6375,102.025 97.6375,104.35 L97.6375,104.625 C96.7125,105.125 94.5875,105.325 93.0875,105.525 C90.2375,105.9 88.5875,107.075 88.5875,109.425 C88.5875,111.95 90.4375,113.225 92.9125,113.225 C96.0625,113.225 97.4625,111.075 97.8125,110.35 L97.8125,111.25 C97.8125,112.625 98.5125,113.125 99.7375,113.125 C100.0625,113.125 100.2625,113.1 100.5875,113 L100.5875,111.675 C99.8375,111.7 99.5625,111.425 99.5625,110.7 L99.5625,110.7 Z M97.6375,108.9 C97.3125,109.6 96.0125,111.7 93.2125,111.7 C91.4875,111.7 90.5375,110.775 90.5375,109.35 C90.5375,107.975 91.2375,107.2 93.0625,106.925 C95.1625,106.625 96.9125,106.4 97.6375,106 L97.6375,108.9 Z M102.7125,95.5 L102.7125,113 L104.6375,113 L104.6375,95.5 L102.7125,95.5 Z M128.1375,106.4 L128.1375,95.5 L126.1125,95.5 L126.1125,106.225 C126.1125,109.65 124.4375,111.325 121.4875,111.325 C118.5375,111.325 116.8875,109.65 116.8875,106.225 L116.8875,95.5 L114.8625,95.5 L114.8625,106.4 C114.8625,110.7 117.4625,113.175 121.4875,113.175 C125.5375,113.175 128.1375,110.7 128.1375,106.4 L128.1375,106.4 Z M138.7875,103.25 L140.5625,103.25 C139.9875,100.925 138.2875,99.85 135.6125,99.85 C132.6625,99.85 130.8125,101.075 130.8125,103.35 C130.8125,105.25 131.9875,106.25 134.4125,106.825 L136.7125,107.375 C138.2125,107.725 139.0125,108.125 139.0125,109.475 C139.0125,111.075 137.5625,111.7 135.7375,111.7 C134.0375,111.7 132.5625,111.15 132.1875,109.35 L130.4125,109.35 C130.7625,112.05 132.8875,113.175 135.7375,113.175 C138.5375,113.175 140.9875,112.2 140.9875,109.475 C140.9875,107.1 139.4875,106.55 137.0625,105.975 L135.0125,105.475 C133.3625,105.075 132.7625,104.5 132.7625,103.35 C132.7625,102.1 133.6875,101.325 135.6375,101.325 C137.2375,101.325 138.2625,101.8 138.7875,103.25 L138.7875,103.25 Z M154.4125,106.6 C154.4125,101.875 151.6375,99.85 148.6125,99.85 C145.6625,99.85 142.6125,101.925 142.6125,106.525 C142.6125,111.2 145.7125,113.225 148.6625,113.225 C151.1875,113.225 152.9125,112.375 154.0125,110.15 L152.1375,110.15 C151.3125,111.25 150.2125,111.625 148.8125,111.625 C146.6625,111.625 144.7625,110.275 144.5125,107.2 L154.4125,107.2 L154.4125,106.6 Z M148.6125,101.45 C150.6875,101.45 152.3625,102.85 152.5125,105.85 L144.5125,105.85 C144.7625,102.85 146.5875,101.45 148.6125,101.45 L148.6125,101.45 Z M162.9875,99.875 C160.5125,99.875 158.8875,101.45 158.4875,103.225 L158.4875,100 L156.5625,100 L156.5625,113 L158.4875,113 L158.4875,105.4 C158.9625,103.075 160.5125,101.625 163.0625,101.6 C163.3625,101.6 163.6125,101.6 163.9375,101.625 L163.9375,99.925 C163.5875,99.9 163.3125,99.875 162.9875,99.875 L162.9875,99.875 Z M79.8375,141 L82.0625,141 L74.8875,123.5 L73.1125,123.5 L65.9625,141 L68.1625,141 L69.9625,136.475 L78.0625,136.475 L79.8375,141 Z M70.5875,134.9 L74.0125,126.175 L77.4375,134.9 L70.5875,134.9 Z M89.4875,139.625 C87.2875,139.625 85.4125,138.025 85.4125,134.525 C85.4125,131.025 87.2875,129.45 89.4875,129.45 C91.3375,129.45 92.3625,130.225 92.9375,131.625 L94.7125,131.625 C93.8875,128.825 91.8625,127.85 89.4625,127.85 C86.5125,127.85 83.5125,129.825 83.5125,134.525 C83.5125,139.225 86.5125,141.225 89.4625,141.225 C91.8875,141.225 93.9625,140.225 94.7625,137.35 L92.9875,137.35 C92.4125,138.825 91.3875,139.625 89.4875,139.625 L89.4875,139.625 Z M100.8625,139.5 C100.0625,139.5 99.7625,139.2 99.7625,138.475 L99.7625,129.6 L102.2625,129.6 L102.2625,128 L99.7625,128 L99.7625,124.75 L97.8375,124.75 L97.8375,128 L95.9625,128 L95.9625,129.6 L97.8375,129.6 L97.8375,138.55 C97.8375,140.65 98.9875,141.15 100.3875,141.15 C101.2125,141.15 101.9375,141.075 102.4875,140.875 L102.4875,139.325 C101.9375,139.425 101.4875,139.5 100.8625,139.5 L100.8625,139.5 Z M104.7625,123.5 L104.7625,125.375 L106.6875,125.375 L106.6875,123.5 L104.7625,123.5 Z M104.7625,128 L104.7625,141 L106.6875,141 L106.6875,128 L104.7625,128 Z M116.0625,141 L121.2375,128 L119.2875,128 L114.9625,139.025 L110.6625,128 L108.7125,128 L113.8875,141 L116.0625,141 Z M123.2625,123.5 L123.2625,125.375 L125.1875,125.375 L125.1875,123.5 L123.2625,123.5 Z M123.2625,128 L123.2625,141 L125.1875,141 L125.1875,128 L123.2625,128 Z M132.0375,139.5 C131.2375,139.5 130.9375,139.2 130.9375,138.475 L130.9375,129.6 L133.4375,129.6 L133.4375,128 L130.9375,128 L130.9375,124.75 L129.0125,124.75 L129.0125,128 L127.1375,128 L127.1375,129.6 L129.0125,129.6 L129.0125,138.55 C129.0125,140.65 130.1625,141.15 131.5625,141.15 C132.3875,141.15 133.1125,141.075 133.6625,140.875 L133.6625,139.325 C133.1125,139.425 132.6625,139.5 132.0375,139.5 L132.0375,139.5 Z M145.2125,128 L141.0375,138.85 L136.9625,128 L135.0625,128 L140.1375,141.175 L139.8375,141.975 C139.2625,143.45 137.9625,144.025 136.5375,144.1 L136.5375,145.775 C138.7125,145.7 140.4625,145.05 141.6375,142.075 L147.1375,128 L145.2125,128 Z" fill="#FFFFFF"></path>
                    <g id="Home-Feed-Icon" transform="translate(73.000000, 14.000000)" fill="#FFFFFF">
                        <g id="Blue-Home">
                            <path d="M34.1863661,20.868601 C33.733942,20.5489685 33.0080657,20.5435653 32.5479937,20.868601 L16.2085254,32.4122538 C15.7561014,32.7318864 15.8377108,32.9909997 16.3960328,32.9909997 L20.247884,32.9909997 L20.247884,44.5660657 C20.247884,46.2871443 21.641899,47.6811594 23.3629776,47.6811594 L29.627789,47.6811594 C29.626191,47.6268264 29.6197989,47.5751567 29.6197989,47.518693 L29.6197989,40.3275567 C29.6197989,38.2591729 31.2966653,36.5823065 33.3650492,36.5823065 C35.433433,36.5823065 37.1102995,38.2591729 37.1102995,40.3275567 L37.1102995,47.518693 C37.1102995,47.573026 37.10444,47.6268264 37.1023093,47.6811594 L43.363392,47.6811594 C45.0839379,47.6811594 46.4758223,46.2871443 46.4758223,44.5660657 L46.4822144,32.9909997 L50.3374439,32.9909997 C50.8939131,32.9909997 50.9859063,32.7372896 50.5258343,32.4122538 L34.1863661,20.868601 Z" id="Page-1"></path>
                            <path d="M64.3548465,49.2262319 C65.9952813,45.3224638 66.9032523,41.0352174 66.9032523,36.5450725 C66.9032523,19.8455072 54.3803537,6.02710145 38.2316581,3.9626087 C37.5062958,1.66376812 35.3586146,0 32.8223827,0 C30.1319479,0 27.8889044,1.86971014 27.3025276,4.3826087 C12.405716,7.50115942 1.18644068,20.7372464 1.18644068,36.5450725 C1.18644068,39.4657971 1.5749914,42.2952174 2.29223778,44.9897101 C1.74542619,45.644058 1.41673053,46.4881159 1.41673053,47.4031884 C1.41673053,49.2901449 2.80354213,50.8473913 4.61035372,51.1284058 C9.99223778,61.9469565 21.163832,69.4055072 34.0468755,69.4055072 C41.8899189,69.4055072 49.093832,66.6389855 54.7486146,62.0382609 C55.9335421,62.72 57.3051363,63.1166667 58.7710784,63.1166667 C63.229774,63.1166667 66.8433972,59.502029 66.8433972,55.0433333 C66.8393392,52.7576812 65.8847015,50.6962319 64.3548465,49.2262319 L64.3548465,49.2262319 Z M8.17731024,49.702029 C8.66832474,49.063913 8.96151314,48.2715942 8.96151314,47.4031884 C8.96151314,45.5649275 7.64673053,44.0391304 5.90687546,43.7023188 C5.32455662,41.4115942 5.01107836,39.0143478 5.01107836,36.5410145 C5.01107836,22.6952174 14.7593392,11.0873913 27.7499189,8.20318841 C28.6812233,10.0657971 30.5996291,11.3450725 32.8223827,11.3450725 C35.2044117,11.3450725 37.2415131,9.87507246 38.0815131,7.79434783 C52.1849914,9.76449275 63.0745566,21.9028986 63.0745566,36.5410145 C63.0745566,40.3372464 62.3339769,43.964058 61.0019479,47.2926087 C60.2887595,47.0866667 59.5400639,46.9710145 58.7629624,46.9710145 C54.3052813,46.9710145 50.6906436,50.5856522 50.6906436,55.0433333 C50.6906436,56.6371014 51.1583247,58.1152174 51.9547015,59.3671014 C47.0171653,63.2505797 40.7993392,65.5768116 34.0428175,65.5768116 C22.7687595,65.5768116 12.9839769,59.1134783 8.17731024,49.702029 L8.17731024,49.702029 Z" id="Page-1"></path>
                            <ellipse id="Oval-59" cx="58.7288136" cy="55.1694915" rx="8.89830508" ry="8.89830508"></ellipse>
                            <ellipse id="Oval-59" cx="32.6271186" cy="6.52542373" rx="6.52542373" ry="6.52542373"></ellipse>
                            <ellipse id="Oval-59" cx="5.33898305" cy="48.0508475" rx="5.33898305" ry="5.33898305"></ellipse>
                        </g>
                    </g>
                </g>
                <g id="Bookmark" transform="translate(258.000000, 0.000000)">
                    <rect id="ECH" fill="#007AFF" x="0" y="0" width="213" height="170" rx="6"></rect>
                    <path d="M59.4,117.425 C61.1,116.875 62.025,115.525 62.025,113.825 C62.025,111.275 60.225,109.5 56.675,109.5 L50.55,109.5 L50.55,127 L56.775,127 C61.075,127 63.1,125.15 63.1,121.85 C63.1,119.825 61.8,118.1 59.4,117.425 L59.4,117.425 Z M52.575,111.275 L56.75,111.275 C59.1,111.275 59.975,112.375 59.975,113.925 C59.975,115.675 58.975,116.775 56.975,116.775 L52.575,116.775 L52.575,111.275 Z M56.775,125.225 L52.575,125.225 L52.575,118.375 L56.8,118.375 C59.775,118.375 61.025,119.925 61.025,121.85 C61.025,123.975 59.85,125.225 56.775,125.225 L56.775,125.225 Z M71,113.85 C68.15,113.85 65,115.9 65,120.525 C65,125.175 68.15,127.225 71,127.225 C73.85,127.225 77.025,125.175 77.025,120.525 C77.025,115.9 73.85,113.85 71,113.85 L71,113.85 Z M75.125,120.525 C75.125,124.05 73.125,125.625 71,125.625 C68.9,125.625 66.9,124.05 66.9,120.525 C66.9,117 68.9,115.45 71,115.45 C73.125,115.45 75.125,117 75.125,120.525 L75.125,120.525 Z M84.65,113.85 C81.8,113.85 78.65,115.9 78.65,120.525 C78.65,125.175 81.8,127.225 84.65,127.225 C87.5,127.225 90.675,125.175 90.675,120.525 C90.675,115.9 87.5,113.85 84.65,113.85 L84.65,113.85 Z M88.775,120.525 C88.775,124.05 86.775,125.625 84.65,125.625 C82.55,125.625 80.55,124.05 80.55,120.525 C80.55,117 82.55,115.45 84.65,115.45 C86.775,115.45 88.775,117 88.775,120.525 L88.775,120.525 Z M102.225,127 L104.525,127 L98,119.85 L103.7,114 L101.375,114 L94.8,120.825 L94.8,109.5 L92.875,109.5 L92.875,122.825 L92.875,127 L94.8,127 L94.8,123.175 L96.725,121.175 L102.225,127 Z M121.65,113.875 C119.225,113.875 117.55,115.625 117.025,117.05 C116.425,114.7 114.725,113.875 112.775,113.875 C110.125,113.875 108.675,116.05 108.4,117 L108.4,114 L106.475,114 L106.475,127 L108.4,127 L108.4,118.95 C108.65,117.7 109.95,115.55 112.275,115.55 C113.95,115.55 115.325,116.425 115.325,119.175 L115.325,127 L117.25,127 L117.25,119.075 C117.25,117.725 118.775,115.55 121.15,115.55 C122.8,115.55 124.2,116.45 124.2,119.2 L124.2,127 L126.125,127 L126.125,119.125 C126.125,115.175 124.075,113.875 121.65,113.875 L121.65,113.875 Z M139.325,124.7 L139.325,118.8 C139.325,115.15 137.65,113.85 134.2,113.85 C131.275,113.85 129.425,114.975 129.15,117.2 L131,117.2 C131.2,116.025 132.2,115.375 134.175,115.375 C136.325,115.375 137.4,116.025 137.4,118.35 L137.4,118.625 C136.475,119.125 134.35,119.325 132.85,119.525 C130,119.9 128.35,121.075 128.35,123.425 C128.35,125.95 130.2,127.225 132.675,127.225 C135.825,127.225 137.225,125.075 137.575,124.35 L137.575,125.25 C137.575,126.625 138.275,127.125 139.5,127.125 C139.825,127.125 140.025,127.1 140.35,127 L140.35,125.675 C139.6,125.7 139.325,125.425 139.325,124.7 L139.325,124.7 Z M137.4,122.9 C137.075,123.6 135.775,125.7 132.975,125.7 C131.25,125.7 130.3,124.775 130.3,123.35 C130.3,121.975 131,121.2 132.825,120.925 C134.925,120.625 136.675,120.4 137.4,120 L137.4,122.9 Z M148.775,113.875 C146.3,113.875 144.675,115.45 144.275,117.225 L144.275,114 L142.35,114 L142.35,127 L144.275,127 L144.275,119.4 C144.75,117.075 146.3,115.625 148.85,115.6 C149.15,115.6 149.4,115.6 149.725,115.625 L149.725,113.925 C149.375,113.9 149.1,113.875 148.775,113.875 L148.775,113.875 Z M161.05,127 L163.35,127 L156.825,119.85 L162.525,114 L160.2,114 L153.625,120.825 L153.625,109.5 L151.7,109.5 L151.7,122.825 L151.7,127 L153.625,127 L153.625,123.175 L155.55,121.175 L161.05,127 Z" fill="#FFFFFF"></path>
                    <g id="Bookmarked" transform="translate(83.000000, 20.000000)">
                        <g id="Bookmark" fill="#FFFFFF">
                            <path d="M23.3431627,51.6204564 C23.1347324,51.543401 23.0685417,51.4908076 23.1347324,51.6204564 C22.1165221,51.9494706 6.7630948,67.634522 6.7630948,67.634522 C5.49138824,68.7524366 3.92956922,70 2.28465975,70 C-0.14749665,69.927837 0.00178451881,68.3855062 0.00178451881,64.3859649 L0.00178451881,6.42686236 C0.00178451881,1.43905515 1.22279181,0.283224401 6.95040041,0.283224401 L39.5274946,0.283224401 C45.24947,0.283224401 46.4761105,1.43905515 46.4761105,6.42686236 L46.4761105,64.3859649 C46.4761105,68.3855062 46.6239834,69.927837 44.1932353,70 C42.5483258,70 40.9808736,68.7524366 39.7148003,67.634522 C39.7148003,67.634522 23.4931821,51.6689321 23.3431627,51.6204564 Z" id="Bookmarked"></path>
                        </g>
                        <path d="M31.9758421,17.4186202 C31.3084263,16.8809168 30.919666,16.88695 30.346518,17.5939582 L20.4970445,29.7499755 L15.9133685,25.9411806 C15.2813974,25.4106416 14.8854728,25.4389219 14.3654918,26.0882383 L13.3194966,27.4494649 C12.7878264,28.1165036 12.8572075,28.4965912 13.4846538,29.0210971 L20.017033,34.4252797 C20.6901049,34.9908863 21.0686842,34.9331944 21.5886653,34.3000921 L33.5003405,20.1361714 C34.0599139,19.4646078 34.0259775,19.06265 33.3310356,18.5087326 L31.9758421,17.4186202 Z" id="Page-1" fill="#007AFF"></path>
                    </g>
                </g>
            </g>
        </g>
    </g>
</svg>