<svg id="SvgjsSvg1027" xmlns="http://www.w3.org/2000/svg" version="1.1" xmlns:xlink="http://www.w3.org/1999/xlink" xmlns:svgjs="http://svgjs.com/svgjs" width="26" height="26"><defs id="SvgjsDefs1028"></defs><path id="SvgjsPath1029" d="M818 138L818 112L844 112L844 138Z " fill="#ffffff" fill-opacity="1" transform="matrix(1,0,0,1,-818,-112)"></path><path id="SvgjsPath1030" d="M842.31 118.15C841.4899999999999 118.51 840.6099999999999 118.76 839.68 118.87C840.63 118.30000000000001 841.3499999999999 117.4 841.6899999999999 116.33C840.81 116.86 839.8299999999999 117.24 838.79 117.45C837.9499999999999 116.56 836.76 116 835.4499999999999 116C832.92 116 830.8699999999999 118.05 830.8699999999999 120.58C830.8699999999999 120.94 830.9099999999999 121.28 830.9899999999999 121.62C827.18 121.43 823.81 119.61 821.5499999999998 116.84C821.1599999999999 117.51 820.9299999999998 118.3 820.9299999999998 119.14C820.9299999999998 120.73 821.7399999999998 122.13 822.9699999999998 122.95C822.2199999999998 122.92 821.5099999999998 122.72 820.8999999999997 122.38000000000001C820.8999999999997 122.4 820.8999999999997 122.41000000000001 820.8999999999997 122.43C820.8999999999997 124.65 822.4699999999998 126.5 824.5699999999997 126.92C824.1799999999997 127.03 823.7799999999997 127.08 823.3599999999997 127.08C823.0699999999997 127.08 822.7799999999996 127.05 822.4999999999997 127C823.0799999999997 128.82 824.7699999999996 130.14 826.7799999999996 130.18C825.2099999999996 131.41 823.2399999999997 132.14000000000001 821.0899999999996 132.14000000000001C820.7199999999996 132.14000000000001 820.3599999999996 132.12 819.9999999999995 132.07000000000002C822.0299999999995 133.37000000000003 824.4299999999995 134.13000000000002 827.0199999999995 134.13000000000002C835.4299999999995 134.13000000000002 840.0399999999995 127.16000000000003 840.0399999999995 121.11000000000003C840.0399999999995 120.91000000000003 840.0299999999995 120.71000000000002 840.0299999999995 120.52000000000002C840.9199999999995 119.87000000000002 841.6999999999995 119.06000000000003 842.3099999999995 118.15000000000002 " fill="#007aff" fill-opacity="1" transform="matrix(1,0,0,1,-818,-112)"></path></svg>